# Blender 4.5.2 LTS
# www.blender.org
mtllib wall.mtl
o wall
v 2.000000 1.280640 -1.000000
v 2.000000 0.000000 -1.000000
v 2.000000 1.280640 1.000000
v 2.000000 0.000000 1.000000
v -2.000000 1.280640 -1.000000
v -2.000000 0.000000 -1.000000
v -2.000000 1.280640 1.000000
v -2.000000 0.000000 1.000000
v 1.761993 1.280640 0.741498
v -1.761993 1.280640 0.741498
v 1.761993 1.280640 -0.741498
v -1.761993 1.280640 -0.741498
v 1.761993 1.085718 0.741498
v -1.761993 1.085718 0.741498
v 1.761993 1.085718 -0.741498
v -1.761993 1.085718 -0.741498
v 1.174140 2.058415 -0.748686
v 1.174140 1.204614 -0.748687
v -1.159755 1.204614 -0.748686
v -1.159755 2.058415 -0.748686
v 1.174140 2.058415 0.788157
v -1.159755 2.058415 0.788157
v -1.159755 1.204614 0.788157
v 1.174140 1.204614 0.788157
v 1.764624 2.058415 -0.445344
v 1.764623 2.058415 0.484815
v 1.764623 1.204614 0.484815
v 1.764623 1.204614 -0.445344
v 1.174140 0.959236 -0.445344
v 1.174140 0.959236 0.484815
v -1.159755 0.959236 0.484815
v -1.159755 0.959236 -0.445344
v -1.750238 1.204614 -0.445344
v -1.750238 1.204614 0.484815
v -1.750238 2.058415 0.484815
v -1.750238 2.058415 -0.445344
v 1.174140 2.303793 0.484815
v 1.174140 2.303793 -0.445344
v -1.159755 2.303793 -0.445344
v -1.159755 2.303793 0.484815
v 0.645064 2.059106 -0.759409
v 0.007192 2.059336 -0.762983
v -0.630679 2.059106 -0.759409
v 1.174292 1.863594 -0.759409
v 1.174342 1.631515 -0.762983
v 1.174292 1.399435 -0.759409
v 0.645064 1.203923 -0.759409
v 0.007192 1.203693 -0.762983
v -0.630679 1.203923 -0.759409
v -1.159907 1.399435 -0.759409
v -1.159957 1.631515 -0.762983
v -1.159907 1.863594 -0.759409
v 1.174292 1.863594 0.798879
v 1.174342 1.631514 0.802453
v 1.174292 1.399435 0.798879
v 0.645064 2.059105 0.798879
v 0.007192 2.059336 0.802454
v -0.630679 2.059106 0.798879
v -1.159907 1.863594 0.798879
v -1.159957 1.631515 0.802454
v -1.159907 1.399435 0.798879
v -0.630679 1.203924 0.798879
v 0.007192 1.203693 0.802453
v 0.645064 1.203923 0.798879
v 1.765685 1.863594 -0.446876
v 1.766039 1.631514 -0.447387
v 1.765685 1.399435 -0.446876
v 1.765685 2.059105 -0.231542
v 1.766039 2.059336 0.019735
v 1.765685 2.059105 0.271012
v 1.765685 1.863594 0.486346
v 1.766039 1.631514 0.486857
v 1.765685 1.399435 0.486346
v 1.765685 1.203923 0.271012
v 1.766039 1.203693 0.019735
v 1.765685 1.203923 -0.231542
v 0.645064 0.954401 -0.446876
v 0.007192 0.952789 -0.447387
v -0.630679 0.954401 -0.446876
v 1.174292 0.954401 -0.231542
v 1.174342 0.952789 0.019735
v 1.174292 0.954401 0.271012
v 0.645064 0.954401 0.486346
v 0.007192 0.952789 0.486857
v -0.630679 0.954401 0.486346
v -1.159907 0.954401 0.271012
v -1.159957 0.952789 0.019735
v -1.159907 0.954401 -0.231542
v -1.751300 1.399435 -0.446876
v -1.751654 1.631515 -0.447387
v -1.751300 1.863594 -0.446876
v -1.751300 1.203924 -0.231542
v -1.751654 1.203693 0.019735
v -1.751300 1.203924 0.271012
v -1.751300 1.399435 0.486346
v -1.751654 1.631515 0.486857
v -1.751301 1.863594 0.486346
v -1.751300 2.059106 0.271012
v -1.751654 2.059336 0.019735
v -1.751300 2.059106 -0.231542
v 0.645064 2.308628 0.486346
v 0.007193 2.310240 0.486857
v -0.630679 2.308628 0.486346
v 1.174292 2.308628 0.271012
v 1.174342 2.310240 0.019735
v 1.174292 2.308628 -0.231541
v 0.645064 2.308628 -0.446876
v 0.007192 2.310240 -0.447387
v -0.630679 2.308628 -0.446876
v -1.159907 2.308628 -0.231541
v -1.159957 2.310240 0.019735
v -1.159907 2.308628 0.271012
v 1.173921 2.187821 -0.727820
v 1.173803 2.260073 -0.681835
v 1.173921 2.292687 -0.593099
v -1.159536 2.187821 -0.727820
v -1.159418 2.260073 -0.681835
v -1.159536 2.292687 -0.593099
v -1.498394 1.205612 -0.727821
v -1.673563 1.206149 -0.681835
v -1.739415 1.205612 -0.593099
v -1.498394 2.057417 -0.727820
v -1.673563 2.056880 -0.681835
v -1.739415 2.057417 -0.593099
v -1.739415 2.187821 -0.443132
v -1.673563 2.260073 -0.441940
v -1.498394 2.292687 -0.443132
v -1.739415 2.187821 0.482602
v -1.673563 2.260073 0.481411
v -1.498394 2.292687 0.482602
v 1.173921 2.187821 0.767291
v 1.173803 2.260073 0.721305
v 1.173921 2.292687 0.632570
v -1.159536 2.187821 0.767291
v -1.159418 2.260073 0.721305
v -1.159536 2.292687 0.632570
v -1.498394 1.205612 0.767291
v -1.673564 1.206149 0.721305
v -1.739415 1.205612 0.632570
v -1.498394 2.057417 0.767291
v -1.673563 2.056880 0.721305
v -1.739416 2.057417 0.632570
v 1.512779 2.057417 0.767291
v 1.687948 2.056880 0.721305
v 1.753801 2.057417 0.632570
v 1.512779 1.205612 0.767291
v 1.687948 1.206149 0.721305
v 1.753801 1.205612 0.632570
v 1.753801 1.075208 -0.443132
v 1.687948 1.002956 -0.441940
v 1.512779 0.970342 -0.443132
v 1.753800 1.075208 0.482602
v 1.687948 1.002956 0.481411
v 1.512779 0.970342 0.482602
v 1.512779 2.057417 -0.727820
v 1.687948 2.056880 -0.681835
v 1.753801 2.057417 -0.593099
v 1.512779 1.205612 -0.727821
v 1.687948 1.206149 -0.681835
v 1.753801 1.205612 -0.593099
v 1.173921 1.075208 0.767291
v 1.173803 1.002956 0.721305
v 1.173921 0.970342 0.632570
v -1.159536 1.075208 0.767291
v -1.159418 1.002956 0.721305
v -1.159536 0.970342 0.632570
v 1.753801 2.187821 -0.443132
v 1.687948 2.260073 -0.441940
v 1.512779 2.292687 -0.443132
v 1.753801 2.187821 0.482602
v 1.687948 2.260073 0.481411
v 1.512779 2.292686 0.482602
v 1.173921 1.075208 -0.727821
v 1.173803 1.002956 -0.681835
v 1.173921 0.970342 -0.593099
v -1.159536 1.075208 -0.727821
v -1.159418 1.002956 -0.681835
v -1.159536 0.970342 -0.593099
v -1.498394 0.970342 -0.443132
v -1.673563 1.002956 -0.441940
v -1.739415 1.075208 -0.443132
v -1.498394 0.970342 0.482602
v -1.673563 1.002956 0.481411
v -1.739415 1.075208 0.482602
v 0.645125 1.863875 -0.771855
v 0.645146 1.631515 -0.776003
v 0.645125 1.399154 -0.771855
v 0.007192 1.863968 -0.776003
v 0.007192 1.631515 -0.780343
v 0.007192 1.399061 -0.776003
v -0.630740 1.863875 -0.771855
v -0.630761 1.631515 -0.776003
v -0.630740 1.399154 -0.771855
v 0.645125 1.863875 0.811325
v 0.007193 1.863968 0.815474
v -0.630740 1.863875 0.811325
v 0.645146 1.631515 0.815474
v 0.007192 1.631515 0.819814
v -0.630761 1.631515 0.815474
v 0.645125 1.399154 0.811325
v 0.007192 1.399061 0.815474
v -0.630740 1.399154 0.811325
v 1.766917 1.863875 -0.232164
v 1.767328 1.863968 0.019735
v 1.766917 1.863875 0.271634
v 1.767328 1.631514 -0.232371
v 1.767758 1.631514 0.019735
v 1.767328 1.631514 0.271842
v 1.766917 1.399154 -0.232164
v 1.767328 1.399061 0.019735
v 1.766917 1.399154 0.271634
v 0.645125 0.948789 -0.232164
v 0.645146 0.946918 0.019735
v 0.645125 0.948789 0.271634
v 0.007192 0.946918 -0.232371
v 0.007192 0.944961 0.019735
v 0.007192 0.946918 0.271842
v -0.630740 0.948789 -0.232164
v -0.630761 0.946918 0.019735
v -0.630740 0.948789 0.271634
v -1.752532 1.399154 -0.232164
v -1.752943 1.399061 0.019735
v -1.752532 1.399154 0.271634
v -1.752943 1.631515 -0.232371
v -1.753373 1.631515 0.019735
v -1.752943 1.631515 0.271842
v -1.752532 1.863875 -0.232164
v -1.752943 1.863968 0.019735
v -1.752532 1.863875 0.271634
v 0.645125 2.314240 0.271634
v 0.645146 2.316111 0.019735
v 0.645125 2.314240 -0.232164
v 0.007193 2.316111 0.271842
v 0.007192 2.318068 0.019735
v 0.007192 2.316111 -0.232371
v -0.630740 2.314240 0.271634
v -0.630761 2.316112 0.019735
v -0.630740 2.314240 -0.232164
v 0.644975 2.189170 -0.735838
v 0.007193 2.189620 -0.738511
v -0.630589 2.189170 -0.735838
v 0.644927 2.262404 -0.687005
v 0.007192 2.263181 -0.688728
v -0.630542 2.262404 -0.687005
v 0.644975 2.296302 -0.596091
v 0.007193 2.297508 -0.597088
v -0.630590 2.296302 -0.596091
v -1.498690 1.399840 -0.735838
v -1.674075 1.400059 -0.687005
v -1.740209 1.399840 -0.596091
v -1.498789 1.631515 -0.738511
v -1.674246 1.631515 -0.688728
v -1.740474 1.631515 -0.597088
v -1.498690 1.863189 -0.735838
v -1.674076 1.862971 -0.687005
v -1.740209 1.863189 -0.596091
v -1.740209 2.189170 -0.230643
v -1.740474 2.189620 0.019735
v -1.740209 2.189170 0.270113
v -1.674075 2.262404 -0.230159
v -1.674246 2.263181 0.019735
v -1.674075 2.262404 0.269629
v -1.498690 2.296302 -0.230643
v -1.498790 2.297508 0.019735
v -1.498690 2.296303 0.270113
v 0.644975 2.189170 0.775309
v 0.644927 2.262404 0.726475
v 0.644975 2.296302 0.635561
v 0.007193 2.189620 0.777981
v 0.007193 2.263181 0.728198
v 0.007193 2.297508 0.636559
v -0.630589 2.189170 0.775309
v -0.630542 2.262404 0.726475
v -0.630589 2.296302 0.635561
v -1.498690 1.399840 0.775309
v -1.498790 1.631515 0.777981
v -1.498690 1.863189 0.775309
v -1.674076 1.400059 0.726475
v -1.674246 1.631515 0.728198
v -1.674075 1.862971 0.726475
v -1.740209 1.399840 0.635561
v -1.740474 1.631515 0.636559
v -1.740209 1.863189 0.635562
v 1.513075 1.863189 0.775309
v 1.513174 1.631514 0.777981
v 1.513075 1.399840 0.775309
v 1.688460 1.862970 0.726475
v 1.688631 1.631514 0.728198
v 1.688460 1.400058 0.726475
v 1.754594 1.863189 0.635561
v 1.754859 1.631514 0.636559
v 1.754594 1.399840 0.635561
v 1.754594 1.073858 -0.230643
v 1.754859 1.073409 0.019735
v 1.754594 1.073858 0.270113
v 1.688460 1.000625 -0.230159
v 1.688631 0.999847 0.019735
v 1.688460 1.000625 0.269629
v 1.513076 0.966727 -0.230643
v 1.513174 0.965521 0.019735
v 1.513075 0.966727 0.270113
v 1.513076 1.863189 -0.735838
v 1.688460 1.862970 -0.687005
v 1.754594 1.863189 -0.596091
v 1.513174 1.631515 -0.738511
v 1.688631 1.631515 -0.688728
v 1.754859 1.631514 -0.597088
v 1.513075 1.399840 -0.735838
v 1.688460 1.400059 -0.687005
v 1.754594 1.399840 -0.596091
v 0.644975 1.073859 0.775309
v 0.007192 1.073409 0.777981
v -0.630590 1.073859 0.775309
v 0.644927 1.000625 0.726475
v 0.007192 0.999848 0.728198
v -0.630542 1.000625 0.726475
v 0.644975 0.966727 0.635561
v 0.007192 0.965521 0.636559
v -0.630590 0.966727 0.635561
v 1.754594 2.189170 -0.230643
v 1.688460 2.262404 -0.230159
v 1.513076 2.296302 -0.230643
v 1.754859 2.189620 0.019735
v 1.688631 2.263181 0.019735
v 1.513174 2.297508 0.019735
v 1.754595 2.189170 0.270113
v 1.688460 2.262404 0.269629
v 1.513076 2.296302 0.270113
v 0.644975 1.073859 -0.735838
v 0.644927 1.000625 -0.687005
v 0.644975 0.966727 -0.596091
v 0.007192 1.073409 -0.738511
v 0.007192 0.999848 -0.688728
v 0.007192 0.965521 -0.597088
v -0.630590 1.073859 -0.735838
v -0.630542 1.000625 -0.687005
v -0.630589 0.966727 -0.596091
v -1.498690 0.966727 -0.230643
v -1.498789 0.965522 0.019735
v -1.498690 0.966727 0.270113
v -1.674076 1.000625 -0.230159
v -1.674246 0.999848 0.019735
v -1.674075 1.000625 0.269629
v -1.740209 1.073859 -0.230643
v -1.740474 1.073409 0.019735
v -1.740209 1.073859 0.270113
v 1.650032 2.240132 0.692135
v 1.511164 2.283672 0.627724
v 1.507373 2.254218 0.710899
v 1.511164 2.185416 0.750922
v 1.680918 2.182997 0.710899
v 1.743747 2.185416 0.627724
v 1.680918 2.254218 0.623822
v 1.650032 1.022897 0.692134
v 1.511164 0.979357 0.627723
v 1.680918 1.008811 0.623822
v 1.743747 1.077613 0.627723
v 1.680918 1.080032 0.710898
v 1.511164 1.077613 0.750922
v 1.507372 1.008811 0.710898
v -1.635647 2.240132 0.692135
v -1.496779 2.283672 0.627724
v -1.666533 2.254218 0.623822
v -1.729362 2.185416 0.627724
v -1.666533 2.182997 0.710899
v -1.496779 2.185416 0.750922
v -1.492988 2.254218 0.710899
v -1.635647 2.240132 -0.652664
v -1.729362 2.185416 -0.588253
v -1.666533 2.254218 -0.584352
v -1.496779 2.283672 -0.588253
v -1.492988 2.254218 -0.671428
v -1.496779 2.185416 -0.711452
v -1.666533 2.182997 -0.671428
v 1.650032 1.022897 -0.652664
v 1.511164 1.077613 -0.711452
v 1.680918 1.080032 -0.671428
v 1.743747 1.077613 -0.588253
v 1.680918 1.008811 -0.584352
v 1.511164 0.979357 -0.588253
v 1.507373 1.008811 -0.671428
v -1.635647 1.022897 -0.652664
v -1.496779 1.077613 -0.711452
v -1.492988 1.008811 -0.671428
v -1.496779 0.979357 -0.588253
v -1.666533 1.008811 -0.584352
v -1.729362 1.077613 -0.588253
v -1.666533 1.080032 -0.671428
v -1.635647 1.022897 0.692134
v -1.496779 0.979358 0.627723
v -1.492988 1.008812 0.710898
v -1.496779 1.077613 0.750922
v -1.666533 1.080032 0.710898
v -1.729362 1.077613 0.627723
v -1.666533 1.008812 0.623822
v 1.650032 2.240132 -0.652664
v 1.511164 2.185416 -0.711452
v 1.507373 2.254218 -0.671428
v 1.511164 2.283672 -0.588253
v 1.680918 2.254218 -0.584352
v 1.743747 2.185416 -0.588253
v 1.680918 2.182997 -0.671428
v 1.168442 2.043944 -0.706560
v 1.168442 1.205549 -0.706560
v -1.157022 1.205549 -0.706560
v -1.157022 2.043944 -0.706560
v 1.168442 2.043944 0.776178
v -1.157022 2.043945 0.776178
v -1.157022 1.205549 0.776178
v 1.168442 1.205549 0.776178
v 1.756676 2.043944 -0.413226
v 1.756676 2.043944 0.482845
v 1.756676 1.205549 0.482845
v 1.756676 1.205549 -0.413226
v 1.168442 0.964490 -0.413227
v 1.168442 0.964490 0.482845
v -1.157022 0.964490 0.482845
v -1.157022 0.964490 -0.413227
v -1.745256 1.205549 -0.413226
v -1.745255 1.205549 0.482845
v -1.745255 2.043944 0.482845
v -1.745256 2.043944 -0.413226
v 1.168442 2.285003 0.482845
v 1.168442 2.285003 -0.413226
v -1.157022 2.285003 -0.413226
v -1.157022 2.285003 0.482845
v 0.641282 2.044625 -0.717057
v 0.005710 2.044852 -0.720556
v -0.629862 2.044625 -0.717057
v 1.168591 1.852634 -0.717057
v 1.168640 1.624747 -0.720556
v 1.168591 1.396859 -0.717057
v 0.641282 1.204868 -0.717057
v 0.005710 1.204641 -0.720556
v -0.629862 1.204868 -0.717057
v -1.157171 1.396859 -0.717057
v -1.157220 1.624747 -0.720556
v -1.157171 1.852634 -0.717057
v 1.168591 1.852634 0.786676
v 1.168640 1.624746 0.790175
v 1.168591 1.396859 0.786676
v 0.641282 2.044625 0.786676
v 0.005710 2.044852 0.790175
v -0.629862 2.044625 0.786676
v -1.157171 1.852634 0.786676
v -1.157220 1.624747 0.790175
v -1.157171 1.396859 0.786676
v -0.629862 1.204868 0.786676
v 0.005710 1.204641 0.790175
v 0.641282 1.204868 0.786676
v 1.757716 1.852634 -0.414726
v 1.758062 1.624747 -0.415226
v 1.757716 1.396859 -0.414726
v 1.757716 2.044625 -0.207211
v 1.758062 2.044852 0.034809
v 1.757716 2.044625 0.276829
v 1.757716 1.852634 0.484344
v 1.758062 1.624747 0.484844
v 1.757716 1.396859 0.484344
v 1.757716 1.204868 0.276829
v 1.758062 1.204641 0.034809
v 1.757716 1.204868 -0.207211
v 0.641282 0.959725 -0.414726
v 0.005710 0.958137 -0.415226
v -0.629862 0.959725 -0.414726
v 1.168591 0.959725 -0.207211
v 1.168640 0.958137 0.034809
v 1.168591 0.959725 0.276829
v 0.641282 0.959725 0.484344
v 0.005710 0.958137 0.484844
v -0.629862 0.959726 0.484344
v -1.157171 0.959726 0.276829
v -1.157220 0.958137 0.034809
v -1.157171 0.959725 -0.207211
v -1.746296 1.396859 -0.414726
v -1.746643 1.624747 -0.415226
v -1.746296 1.852634 -0.414726
v -1.746296 1.204868 -0.207211
v -1.746642 1.204641 0.034809
v -1.746296 1.204868 0.276829
v -1.746296 1.396859 0.484344
v -1.746642 1.624747 0.484844
v -1.746296 1.852634 0.484344
v -1.746296 2.044625 0.276829
v -1.746642 2.044852 0.034809
v -1.746296 2.044625 -0.207211
v 0.641282 2.289768 0.484344
v 0.005710 2.291356 0.484844
v -0.629862 2.289768 0.484344
v 1.168591 2.289768 0.276829
v 1.168640 2.291356 0.034809
v 1.168591 2.289768 -0.207211
v 0.641282 2.289768 -0.414726
v 0.005710 2.291356 -0.415226
v -0.629862 2.289768 -0.414726
v -1.157171 2.289768 -0.207211
v -1.157220 2.291356 0.034809
v -1.157171 2.289768 0.276829
v 1.168228 1.078457 -0.686189
v 1.168112 1.007478 -0.641567
v 1.168228 0.975422 -0.555775
v -1.156808 1.078457 -0.686189
v -1.156692 1.007478 -0.641567
v -1.156807 0.975422 -0.555775
v 1.168228 2.171036 -0.686189
v 1.168112 2.242015 -0.641567
v 1.168228 2.274071 -0.555775
v -1.156807 2.171036 -0.686189
v -1.156692 2.242015 -0.641567
v -1.156807 2.274071 -0.555775
v 1.168228 1.078457 0.755807
v 1.168112 1.007478 0.711186
v 1.168228 0.975422 0.625393
v -1.156808 1.078457 0.755807
v -1.156692 1.007479 0.711186
v -1.156807 0.975422 0.625393
v 1.505836 2.042961 -0.686189
v 1.680340 2.042432 -0.641567
v 1.745921 2.042961 -0.555775
v 1.505836 1.206532 -0.686189
v 1.680340 1.207061 -0.641567
v 1.745921 1.206532 -0.555775
v -1.494416 1.206532 0.755807
v -1.668920 1.207062 0.711186
v -1.734500 1.206532 0.625393
v -1.494416 2.042961 0.755807
v -1.668920 2.042432 0.711186
v -1.734500 2.042961 0.625394
v 1.745921 1.078457 -0.411060
v 1.680340 1.007478 -0.409894
v 1.505836 0.975422 -0.411060
v 1.745920 1.078457 0.480679
v 1.680340 1.007478 0.479512
v 1.505836 0.975422 0.480679
v -1.494416 0.975422 -0.411060
v -1.668920 1.007478 -0.409894
v -1.734500 1.078457 -0.411060
v -1.494416 0.975422 0.480679
v -1.668920 1.007479 0.479512
v -1.734500 1.078457 0.480679
v 1.505836 2.042961 0.755807
v 1.680340 2.042432 0.711186
v 1.745920 2.042961 0.625394
v 1.505836 1.206532 0.755807
v 1.680340 1.207061 0.711186
v 1.745920 1.206532 0.625393
v -1.494416 1.206532 -0.686189
v -1.668920 1.207061 -0.641567
v -1.734500 1.206532 -0.555775
v -1.494416 2.042961 -0.686189
v -1.668920 2.042432 -0.641567
v -1.734500 2.042961 -0.555775
v 1.168228 2.171036 0.755807
v 1.168112 2.242015 0.711186
v 1.168228 2.274071 0.625394
v -1.156807 2.171036 0.755807
v -1.156692 2.242015 0.711186
v -1.156807 2.274071 0.625394
v 1.745921 2.171036 -0.411060
v 1.680340 2.242015 -0.409894
v 1.505836 2.274071 -0.411060
v 1.745921 2.171036 0.480679
v 1.680340 2.242015 0.479512
v 1.505836 2.274071 0.480679
v -1.734500 2.171036 -0.411060
v -1.668920 2.242015 -0.409894
v -1.494416 2.274071 -0.411060
v -1.734500 2.171036 0.480679
v -1.668920 2.242015 0.479512
v -1.494416 2.274071 0.480679
v 0.641343 1.852911 -0.729242
v 0.641363 1.624747 -0.733303
v 0.641342 1.396583 -0.729242
v 0.005710 1.853003 -0.733303
v 0.005710 1.624747 -0.737552
v 0.005710 1.396490 -0.733303
v -0.629922 1.852911 -0.729242
v -0.629942 1.624747 -0.733303
v -0.629922 1.396583 -0.729242
v 0.641342 1.852911 0.798860
v 0.005710 1.853003 0.802922
v -0.629922 1.852911 0.798860
v 0.641363 1.624747 0.802922
v 0.005710 1.624747 0.807170
v -0.629942 1.624747 0.802922
v 0.641342 1.396582 0.798860
v 0.005710 1.396490 0.802922
v -0.629923 1.396583 0.798860
v 1.758923 1.852911 -0.207820
v 1.759325 1.853003 0.034809
v 1.758923 1.852911 0.277439
v 1.759325 1.624747 -0.208023
v 1.759746 1.624747 0.034809
v 1.759325 1.624747 0.277642
v 1.758923 1.396582 -0.207820
v 1.759325 1.396490 0.034809
v 1.758923 1.396582 0.277439
v 0.641342 0.954195 -0.207820
v 0.641362 0.952352 0.034809
v 0.641342 0.954195 0.277439
v 0.005710 0.952352 -0.208023
v 0.005710 0.950424 0.034809
v 0.005710 0.952352 0.277642
v -0.629923 0.954195 -0.207820
v -0.629943 0.952352 0.034809
v -0.629923 0.954195 0.277439
v -1.747503 1.396583 -0.207820
v -1.747905 1.396490 0.034809
v -1.747503 1.396583 0.277439
v -1.747906 1.624747 -0.208023
v -1.748327 1.624747 0.034809
v -1.747905 1.624747 0.277642
v -1.747503 1.852911 -0.207820
v -1.747905 1.853003 0.034809
v -1.747503 1.852911 0.277439
v 0.641343 2.295298 0.277439
v 0.641363 2.297141 0.034809
v 0.641343 2.295298 -0.207820
v 0.005710 2.297141 0.277642
v 0.005710 2.299070 0.034809
v 0.005710 2.297141 -0.208023
v -0.629922 2.295298 0.277439
v -0.629942 2.297141 0.034809
v -0.629922 2.295298 -0.207820
v 0.641195 1.077127 -0.694039
v 0.641148 1.005181 -0.646629
v 0.641195 0.971859 -0.558704
v 0.005710 1.076684 -0.696655
v 0.005710 1.004416 -0.648315
v 0.005710 0.970672 -0.559680
v -0.629775 1.077127 -0.694039
v -0.629728 1.005181 -0.646628
v -0.629775 0.971859 -0.558704
v 0.641195 2.172366 -0.694039
v 0.005710 2.172809 -0.696655
v -0.629775 2.172366 -0.694039
v 0.641148 2.244312 -0.646628
v 0.005710 2.245078 -0.648315
v -0.629728 2.244312 -0.646628
v 0.641195 2.277634 -0.558704
v 0.005710 2.278822 -0.559680
v -0.629775 2.277634 -0.558704
v 0.641195 1.077127 0.763657
v 0.005710 1.076684 0.766273
v -0.629775 1.077127 0.763657
v 0.641148 1.005181 0.716247
v 0.005710 1.004416 0.717934
v -0.629728 1.005181 0.716247
v 0.641195 0.971859 0.628322
v 0.005710 0.970672 0.629299
v -0.629775 0.971859 0.628322
v 1.506126 1.852235 -0.694039
v 1.680842 1.852020 -0.646628
v 1.746698 1.852235 -0.558704
v 1.506223 1.624747 -0.696655
v 1.681009 1.624747 -0.648315
v 1.746957 1.624747 -0.559680
v 1.506126 1.397258 -0.694039
v 1.680842 1.397473 -0.646628
v 1.746698 1.397258 -0.558704
v -1.494706 1.397259 0.763657
v -1.494803 1.624747 0.766273
v -1.494706 1.852235 0.763657
v -1.669422 1.397474 0.716247
v -1.669589 1.624747 0.717934
v -1.669421 1.852020 0.716247
v -1.735278 1.397259 0.628322
v -1.735537 1.624747 0.629299
v -1.735278 1.852235 0.628322
v 1.746698 1.077127 -0.206331
v 1.746957 1.076684 0.034809
v 1.746698 1.077127 0.275949
v 1.680842 1.005181 -0.205857
v 1.681009 1.004416 0.034809
v 1.680841 1.005181 0.275476
v 1.506126 0.971859 -0.206331
v 1.506223 0.970672 0.034809
v 1.506126 0.971859 0.275949
v -1.494706 0.971859 -0.206331
v -1.494803 0.970672 0.034809
v -1.494707 0.971859 0.275949
v -1.669422 1.005182 -0.205857
v -1.669589 1.004416 0.034809
v -1.669421 1.005182 0.275476
v -1.735278 1.077128 -0.206331
v -1.735537 1.076684 0.034809
v -1.735278 1.077128 0.275949
v 1.506126 1.852235 0.763657
v 1.506223 1.624746 0.766273
v 1.506126 1.397258 0.763657
v 1.680841 1.852020 0.716247
v 1.681009 1.624746 0.717934
v 1.680841 1.397473 0.716247
v 1.746698 1.852235 0.628322
v 1.746957 1.624746 0.629299
v 1.746698 1.397258 0.628322
v -1.494706 1.397259 -0.694039
v -1.669421 1.397474 -0.646628
v -1.735278 1.397259 -0.558704
v -1.494803 1.624747 -0.696655
v -1.669589 1.624747 -0.648315
v -1.735537 1.624747 -0.559680
v -1.494706 1.852235 -0.694039
v -1.669421 1.852020 -0.646628
v -1.735278 1.852235 -0.558704
v 0.641195 2.172366 0.763657
v 0.641148 2.244312 0.716247
v 0.641195 2.277634 0.628322
v 0.005710 2.172809 0.766273
v 0.005710 2.245078 0.717934
v 0.005710 2.278821 0.629299
v -0.629775 2.172366 0.763657
v -0.629728 2.244312 0.716247
v -0.629775 2.277634 0.628322
v 1.746698 2.172366 -0.206331
v 1.680842 2.244312 -0.205857
v 1.506126 2.277634 -0.206331
v 1.746957 2.172809 0.034809
v 1.681009 2.245078 0.034809
v 1.506223 2.278821 0.034809
v 1.746698 2.172366 0.275949
v 1.680842 2.244312 0.275476
v 1.506126 2.277634 0.275949
v -1.735278 2.172366 -0.206331
v -1.735537 2.172809 0.034809
v -1.735278 2.172366 0.275949
v -1.669421 2.244312 -0.205857
v -1.669588 2.245078 0.034809
v -1.669421 2.244312 0.275476
v -1.494707 2.277634 -0.206331
v -1.494803 2.278822 0.034809
v -1.494706 2.277634 0.275949
v 1.642585 2.222411 -0.613236
v 1.504235 2.168668 -0.670219
v 1.500460 2.236253 -0.631418
v 1.504235 2.265199 -0.551038
v 1.673348 2.236253 -0.547241
v 1.735925 2.168668 -0.551038
v 1.673348 2.166289 -0.631418
v 1.642585 2.222411 0.682855
v 1.504235 2.265199 0.620656
v 1.500460 2.236253 0.701036
v 1.504235 2.168668 0.739837
v 1.673348 2.166289 0.701036
v 1.735925 2.168668 0.620656
v 1.673348 2.236253 0.616859
v 1.642585 1.027082 0.682855
v 1.504234 0.984294 0.620656
v 1.673348 1.013240 0.616859
v 1.735925 1.080825 0.620656
v 1.673348 1.083204 0.701036
v 1.504234 1.080825 0.739837
v 1.500460 1.013240 0.701036
v -1.631165 2.222411 0.682855
v -1.492814 2.265199 0.620656
v -1.661928 2.236253 0.616859
v -1.724504 2.168668 0.620656
v -1.661928 2.166289 0.701036
v -1.492814 2.168668 0.739837
v -1.489040 2.236253 0.701036
v -1.631165 1.027082 -0.613236
v -1.492814 1.080825 -0.670219
v -1.489040 1.013240 -0.631418
v -1.492814 0.984294 -0.551038
v -1.661928 1.013240 -0.547241
v -1.724504 1.080825 -0.551038
v -1.661928 1.083205 -0.631418
v -1.631165 2.222411 -0.613236
v -1.724504 2.168668 -0.551038
v -1.661928 2.236253 -0.547241
v -1.492814 2.265199 -0.551038
v -1.489040 2.236253 -0.631418
v -1.492814 2.168668 -0.670219
v -1.661928 2.166289 -0.631418
v 1.642585 1.027082 -0.613236
v 1.504235 1.080825 -0.670219
v 1.673348 1.083205 -0.631418
v 1.735925 1.080825 -0.551038
v 1.673348 1.013240 -0.547241
v 1.504234 0.984294 -0.551038
v 1.500460 1.013240 -0.631418
v -1.631165 1.027082 0.682855
v -1.492814 0.984294 0.620656
v -1.489040 1.013241 0.701036
v -1.492814 1.080826 0.739837
v -1.661928 1.083205 0.701036
v -1.724505 1.080826 0.620656
v -1.661928 1.013241 0.616859
vn -0.0000 1.0000 -0.0000
vn -0.0000 -0.0000 1.0000
vn -1.0000 -0.0000 -0.0000
vn -0.0000 -1.0000 -0.0000
vn 1.0000 -0.0000 -0.0000
vn -0.0000 -0.0000 -1.0000
vn 0.0147 0.0398 -0.9991
vn 0.0154 -0.0000 -0.9999
vn -0.0000 0.0417 -0.9991
vn 0.0147 -0.0398 -0.9991
vn -0.0000 -0.0417 -0.9991
vn -0.0154 -0.0000 -0.9999
vn -0.0147 0.0398 -0.9991
vn -0.0147 -0.0398 -0.9991
vn 0.0401 0.1050 -0.9937
vn 0.0456 0.0344 -0.9984
vn 0.0127 0.1188 -0.9928
vn 0.0474 -0.0000 -0.9989
vn 0.0456 -0.0344 -0.9984
vn 0.0401 -0.1050 -0.9937
vn 0.0127 -0.1188 -0.9928
vn -0.0000 -0.1235 -0.9923
vn -0.0127 -0.1188 -0.9928
vn -0.0401 -0.1050 -0.9937
vn -0.0456 -0.0344 -0.9984
vn -0.0474 -0.0000 -0.9989
vn -0.0456 0.0344 -0.9984
vn -0.0127 0.1188 -0.9928
vn -0.0401 0.1050 -0.9937
vn -0.0000 0.1235 -0.9923
vn 0.0147 0.0398 0.9991
vn -0.0000 0.0417 0.9991
vn 0.0154 -0.0000 0.9999
vn -0.0147 0.0398 0.9991
vn -0.0154 -0.0000 0.9999
vn -0.0000 -0.0417 0.9991
vn 0.0147 -0.0398 0.9991
vn -0.0147 -0.0398 0.9991
vn 0.0401 0.1050 0.9937
vn 0.0127 0.1188 0.9928
vn 0.0456 0.0344 0.9984
vn -0.0000 0.1235 0.9923
vn -0.0127 0.1188 0.9928
vn -0.0401 0.1050 0.9937
vn -0.0456 0.0344 0.9984
vn -0.0474 -0.0000 0.9989
vn -0.0456 -0.0344 0.9984
vn -0.0401 -0.1050 0.9937
vn -0.0127 -0.1188 0.9928
vn -0.0000 -0.1235 0.9923
vn 0.0127 -0.1188 0.9928
vn 0.0456 -0.0344 0.9984
vn 0.0401 -0.1050 0.9937
vn 0.0474 -0.0000 0.9989
vn 1.0000 0.0040 -0.0036
vn 1.0000 0.0041 -0.0000
vn 1.0000 -0.0000 -0.0038
vn 1.0000 0.0040 0.0036
vn 1.0000 -0.0000 0.0038
vn 1.0000 -0.0041 -0.0000
vn 1.0000 -0.0040 -0.0036
vn 1.0000 -0.0040 0.0036
vn 0.9982 0.0446 -0.0390
vn 0.9990 0.0455 -0.0032
vn 0.9992 0.0037 -0.0399
vn 0.9989 0.0459 -0.0000
vn 0.9990 0.0455 0.0032
vn 0.9982 0.0446 0.0390
vn 0.9992 0.0037 0.0399
vn 0.9992 -0.0000 0.0402
vn 0.9992 -0.0037 0.0399
vn 0.9982 -0.0446 0.0390
vn 0.9990 -0.0455 0.0032
vn 0.9989 -0.0459 -0.0000
vn 0.9990 -0.0455 -0.0032
vn 0.9992 -0.0037 -0.0399
vn 0.9982 -0.0446 -0.0390
vn 0.9992 -0.0000 -0.0402
vn 0.0066 -0.9998 -0.0164
vn 0.0069 -1.0000 -0.0000
vn -0.0000 -0.9999 -0.0172
vn 0.0066 -0.9998 0.0164
vn -0.0000 -0.9999 0.0172
vn -0.0069 -1.0000 -0.0000
vn -0.0066 -0.9998 -0.0164
vn -0.0066 -0.9998 0.0164
vn 0.0208 -0.9986 -0.0479
vn 0.0231 -0.9996 -0.0142
vn 0.0058 -0.9986 -0.0534
vn 0.0239 -0.9997 -0.0000
vn 0.0231 -0.9996 0.0142
vn 0.0208 -0.9986 0.0479
vn 0.0058 -0.9986 0.0534
vn -0.0000 -0.9985 0.0552
vn -0.0058 -0.9986 0.0534
vn -0.0208 -0.9986 0.0479
vn -0.0231 -0.9996 0.0142
vn -0.0239 -0.9997 -0.0000
vn -0.0231 -0.9996 -0.0142
vn -0.0058 -0.9986 -0.0534
vn -0.0208 -0.9986 -0.0479
vn -0.0000 -0.9985 -0.0552
vn -1.0000 -0.0040 -0.0036
vn -1.0000 -0.0041 -0.0000
vn -1.0000 -0.0000 -0.0038
vn -1.0000 -0.0040 0.0036
vn -1.0000 -0.0000 0.0038
vn -1.0000 0.0041 -0.0000
vn -1.0000 0.0040 -0.0036
vn -1.0000 0.0040 0.0036
vn -0.9982 -0.0446 -0.0390
vn -0.9990 -0.0455 -0.0032
vn -0.9992 -0.0037 -0.0399
vn -0.9989 -0.0459 -0.0000
vn -0.9990 -0.0455 0.0032
vn -0.9982 -0.0446 0.0390
vn -0.9992 -0.0037 0.0399
vn -0.9992 -0.0000 0.0402
vn -0.9992 0.0037 0.0399
vn -0.9982 0.0446 0.0390
vn -0.9990 0.0455 0.0032
vn -0.9989 0.0459 -0.0000
vn -0.9990 0.0455 -0.0032
vn -0.9992 0.0037 -0.0399
vn -0.9982 0.0446 -0.0390
vn -0.9992 -0.0000 -0.0402
vn 0.0066 0.9998 0.0164
vn 0.0069 1.0000 -0.0000
vn -0.0000 0.9999 0.0172
vn 0.0066 0.9998 -0.0164
vn -0.0000 0.9999 -0.0172
vn -0.0069 1.0000 -0.0000
vn -0.0066 0.9998 0.0164
vn -0.0066 0.9998 -0.0164
vn 0.0208 0.9986 0.0479
vn 0.0231 0.9996 0.0142
vn 0.0058 0.9986 0.0534
vn 0.0239 0.9997 -0.0000
vn 0.0231 0.9996 -0.0142
vn 0.0208 0.9986 -0.0479
vn 0.0058 0.9986 -0.0534
vn -0.0000 0.9985 -0.0552
vn -0.0058 0.9986 -0.0534
vn -0.0208 0.9986 -0.0479
vn -0.0231 0.9996 -0.0142
vn -0.0239 0.9997 -0.0000
vn -0.0231 0.9996 0.0142
vn -0.0058 0.9986 0.0534
vn -0.0208 0.9986 0.0479
vn -0.0000 0.9985 0.0552
vn 0.0098 0.3711 -0.9286
vn -0.0000 0.3773 -0.9261
vn -0.0000 0.7846 -0.6200
vn 0.0068 0.7829 -0.6222
vn -0.0098 0.3711 -0.9286
vn -0.0068 0.7829 -0.6222
vn -0.0000 0.9757 -0.2190
vn 0.0052 0.9761 -0.2170
vn -0.0052 0.9761 -0.2170
vn 0.0321 0.3517 -0.9356
vn -0.0321 0.3517 -0.9356
vn -0.0235 0.7773 -0.6287
vn -0.0190 0.9773 -0.2109
vn 0.0190 0.9773 -0.2109
vn 0.0235 0.7773 -0.6287
vn -0.1677 -0.0262 -0.9855
vn -0.5677 -0.0164 -0.8231
vn -0.5712 -0.0000 -0.8208
vn -0.1715 -0.0000 -0.9852
vn -0.9383 -0.0069 -0.3458
vn -0.9389 -0.0000 -0.3443
vn -0.5677 0.0164 -0.8231
vn -0.1677 0.0262 -0.9855
vn -0.9383 0.0069 -0.3458
vn -0.1566 -0.0839 -0.9841
vn -0.5594 -0.0650 -0.8263
vn -0.9364 -0.0499 -0.3475
vn -0.9364 0.0499 -0.3475
vn -0.5594 0.0650 -0.8263
vn -0.1566 0.0839 -0.9841
vn -0.9170 0.3990 -0.0043
vn -0.9172 0.3984 -0.0000
vn -0.4920 0.8706 -0.0000
vn -0.4903 0.8715 -0.0075
vn -0.9170 0.3990 0.0043
vn -0.4903 0.8715 0.0075
vn -0.1143 0.9935 -0.0000
vn -0.1126 0.9936 -0.0109
vn -0.1126 0.9936 0.0109
vn -0.9166 0.3980 -0.0387
vn -0.9166 0.3980 0.0387
vn -0.4880 0.8721 0.0370
vn -0.1077 0.9934 0.0398
vn -0.1077 0.9934 -0.0398
vn -0.4880 0.8721 -0.0370
vn 0.0098 0.3711 0.9286
vn 0.0068 0.7829 0.6222
vn -0.0000 0.7846 0.6200
vn -0.0000 0.3773 0.9261
vn 0.0052 0.9761 0.2170
vn -0.0000 0.9757 0.2190
vn -0.0068 0.7829 0.6222
vn -0.0098 0.3711 0.9286
vn -0.0052 0.9761 0.2170
vn 0.0321 0.3517 0.9356
vn 0.0235 0.7773 0.6287
vn 0.0190 0.9773 0.2109
vn -0.0190 0.9773 0.2109
vn -0.0235 0.7773 0.6287
vn -0.0321 0.3517 0.9356
vn -0.1677 -0.0262 0.9855
vn -0.1715 -0.0000 0.9852
vn -0.5712 -0.0000 0.8208
vn -0.5677 -0.0164 0.8231
vn -0.1677 0.0262 0.9855
vn -0.5677 0.0164 0.8231
vn -0.9389 -0.0000 0.3443
vn -0.9383 -0.0069 0.3458
vn -0.9383 0.0069 0.3458
vn -0.1566 -0.0839 0.9841
vn -0.1566 0.0839 0.9841
vn -0.5594 0.0650 0.8263
vn -0.9364 0.0499 0.3475
vn -0.9364 -0.0499 0.3475
vn -0.5594 -0.0650 0.8263
vn 0.1677 0.0262 0.9855
vn 0.1715 -0.0000 0.9852
vn 0.5712 -0.0000 0.8208
vn 0.5677 0.0164 0.8231
vn 0.1677 -0.0262 0.9855
vn 0.5677 -0.0164 0.8231
vn 0.9389 -0.0000 0.3443
vn 0.9383 0.0069 0.3458
vn 0.9383 -0.0069 0.3458
vn 0.1566 0.0839 0.9841
vn 0.1566 -0.0839 0.9841
vn 0.5594 -0.0650 0.8263
vn 0.9364 -0.0499 0.3475
vn 0.9364 0.0499 0.3475
vn 0.5594 0.0650 0.8263
vn 0.9170 -0.3990 -0.0043
vn 0.9172 -0.3984 -0.0000
vn 0.4920 -0.8706 -0.0000
vn 0.4903 -0.8715 -0.0075
vn 0.9170 -0.3990 0.0043
vn 0.4903 -0.8715 0.0075
vn 0.1143 -0.9935 -0.0000
vn 0.1126 -0.9936 -0.0109
vn 0.1126 -0.9936 0.0109
vn 0.9166 -0.3980 -0.0387
vn 0.9166 -0.3980 0.0387
vn 0.4880 -0.8721 0.0370
vn 0.1077 -0.9934 0.0398
vn 0.1077 -0.9934 -0.0398
vn 0.4880 -0.8721 -0.0370
vn 0.1677 0.0262 -0.9855
vn 0.5677 0.0164 -0.8231
vn 0.5712 -0.0000 -0.8208
vn 0.1715 -0.0000 -0.9852
vn 0.9383 0.0069 -0.3458
vn 0.9389 -0.0000 -0.3443
vn 0.5677 -0.0164 -0.8231
vn 0.1677 -0.0262 -0.9855
vn 0.9383 -0.0069 -0.3458
vn 0.1566 0.0839 -0.9841
vn 0.5594 0.0650 -0.8263
vn 0.9364 0.0499 -0.3475
vn 0.9364 -0.0499 -0.3475
vn 0.5594 -0.0650 -0.8263
vn 0.1566 -0.0839 -0.9841
vn 0.0098 -0.3711 0.9286
vn -0.0000 -0.3773 0.9261
vn -0.0000 -0.7846 0.6200
vn 0.0068 -0.7829 0.6222
vn -0.0098 -0.3711 0.9286
vn -0.0068 -0.7829 0.6222
vn -0.0000 -0.9757 0.2190
vn 0.0052 -0.9761 0.2170
vn -0.0052 -0.9761 0.2170
vn 0.0321 -0.3517 0.9356
vn -0.0321 -0.3517 0.9356
vn -0.0235 -0.7773 0.6287
vn -0.0190 -0.9773 0.2109
vn 0.0190 -0.9773 0.2109
vn 0.0235 -0.7773 0.6287
vn 0.9170 0.3990 -0.0043
vn 0.4903 0.8715 -0.0075
vn 0.4920 0.8706 -0.0000
vn 0.9172 0.3984 -0.0000
vn 0.1126 0.9936 -0.0109
vn 0.1143 0.9935 -0.0000
vn 0.4903 0.8715 0.0075
vn 0.9170 0.3990 0.0043
vn 0.1126 0.9936 0.0109
vn 0.9166 0.3980 -0.0387
vn 0.4880 0.8721 -0.0370
vn 0.1077 0.9934 -0.0398
vn 0.1077 0.9934 0.0398
vn 0.4880 0.8721 0.0370
vn 0.9166 0.3980 0.0387
vn 0.0098 -0.3711 -0.9286
vn 0.0068 -0.7829 -0.6222
vn -0.0000 -0.7846 -0.6200
vn -0.0000 -0.3773 -0.9261
vn 0.0052 -0.9761 -0.2170
vn -0.0000 -0.9757 -0.2190
vn -0.0068 -0.7829 -0.6222
vn -0.0098 -0.3711 -0.9286
vn -0.0052 -0.9761 -0.2170
vn 0.0321 -0.3517 -0.9356
vn 0.0235 -0.7773 -0.6287
vn 0.0190 -0.9773 -0.2109
vn -0.0190 -0.9773 -0.2109
vn -0.0235 -0.7773 -0.6287
vn -0.0321 -0.3517 -0.9356
vn -0.1126 -0.9936 -0.0109
vn -0.1143 -0.9935 -0.0000
vn -0.4920 -0.8706 -0.0000
vn -0.4903 -0.8715 -0.0075
vn -0.1126 -0.9936 0.0109
vn -0.4903 -0.8715 0.0075
vn -0.9172 -0.3984 -0.0000
vn -0.9170 -0.3990 -0.0043
vn -0.9170 -0.3990 0.0043
vn -0.1077 -0.9934 -0.0398
vn -0.1077 -0.9934 0.0398
vn -0.4880 -0.8721 0.0370
vn -0.9166 -0.3980 0.0387
vn -0.9166 -0.3980 -0.0387
vn -0.4880 -0.8721 -0.0370
vn 0.0986 0.9761 0.1937
vn 0.1063 0.7640 0.6364
vn 0.3460 0.7204 0.6011
vn 0.4877 0.8402 0.2369
vn 0.1340 0.3121 0.9406
vn 0.5372 0.3231 0.7791
vn 0.8751 0.3688 0.3134
vn 0.0986 -0.9761 0.1937
vn 0.4877 -0.8402 0.2369
vn 0.3460 -0.7204 0.6011
vn 0.1063 -0.7640 0.6364
vn 0.8751 -0.3688 0.3134
vn 0.5372 -0.3231 0.7791
vn 0.1340 -0.3121 0.9406
vn -0.0986 0.9761 0.1937
vn -0.4877 0.8402 0.2369
vn -0.3460 0.7204 0.6011
vn -0.1063 0.7640 0.6364
vn -0.8751 0.3688 0.3134
vn -0.5372 0.3231 0.7791
vn -0.1340 0.3121 0.9406
vn -0.8751 0.3688 -0.3134
vn -0.4877 0.8402 -0.2369
vn -0.3460 0.7204 -0.6011
vn -0.5372 0.3231 -0.7791
vn -0.0986 0.9761 -0.1937
vn -0.1063 0.7640 -0.6364
vn -0.1340 0.3121 -0.9406
vn 0.1340 -0.3121 -0.9406
vn 0.5372 -0.3231 -0.7791
vn 0.3460 -0.7204 -0.6011
vn 0.1063 -0.7640 -0.6364
vn 0.8751 -0.3688 -0.3134
vn 0.4877 -0.8402 -0.2369
vn 0.0986 -0.9761 -0.1937
vn -0.1340 -0.3121 -0.9406
vn -0.1063 -0.7640 -0.6364
vn -0.3460 -0.7204 -0.6011
vn -0.5372 -0.3231 -0.7791
vn -0.0986 -0.9761 -0.1937
vn -0.4877 -0.8402 -0.2369
vn -0.8751 -0.3688 -0.3134
vn -0.0986 -0.9761 0.1937
vn -0.1063 -0.7640 0.6364
vn -0.3460 -0.7204 0.6011
vn -0.4877 -0.8402 0.2369
vn -0.1340 -0.3121 0.9406
vn -0.5372 -0.3231 0.7791
vn -0.8751 -0.3688 0.3134
vn 0.1340 0.3121 -0.9406
vn 0.1063 0.7640 -0.6364
vn 0.3460 0.7204 -0.6011
vn 0.5372 0.3231 -0.7791
vn 0.0986 0.9761 -0.1937
vn 0.4877 0.8402 -0.2369
vn 0.8751 0.3688 -0.3134
vn 0.0144 0.0397 -0.9991
vn 0.0151 -0.0000 -0.9999
vn -0.0000 0.0415 -0.9991
vn 0.0144 -0.0397 -0.9991
vn -0.0000 -0.0415 -0.9991
vn -0.0151 -0.0000 -0.9999
vn -0.0144 0.0397 -0.9991
vn -0.0144 -0.0397 -0.9991
vn 0.0393 0.1045 -0.9937
vn 0.0447 0.0343 -0.9984
vn 0.0125 0.1183 -0.9929
vn 0.0465 -0.0000 -0.9989
vn 0.0447 -0.0343 -0.9984
vn 0.0393 -0.1045 -0.9937
vn 0.0125 -0.1183 -0.9929
vn -0.0000 -0.1229 -0.9924
vn -0.0125 -0.1183 -0.9929
vn -0.0393 -0.1045 -0.9937
vn -0.0447 -0.0343 -0.9984
vn -0.0465 -0.0000 -0.9989
vn -0.0447 0.0343 -0.9984
vn -0.0125 0.1183 -0.9929
vn -0.0393 0.1045 -0.9937
vn -0.0000 0.1229 -0.9924
vn 0.0144 0.0397 0.9991
vn -0.0000 0.0415 0.9991
vn 0.0151 -0.0000 0.9999
vn -0.0144 0.0397 0.9991
vn -0.0151 -0.0000 0.9999
vn -0.0000 -0.0415 0.9991
vn 0.0144 -0.0397 0.9991
vn -0.0144 -0.0397 0.9991
vn 0.0394 0.1045 0.9937
vn 0.0125 0.1183 0.9929
vn 0.0447 0.0343 0.9984
vn -0.0000 0.1229 0.9924
vn -0.0125 0.1183 0.9929
vn -0.0394 0.1045 0.9937
vn -0.0447 0.0343 0.9984
vn -0.0465 -0.0000 0.9989
vn -0.0447 -0.0343 0.9984
vn -0.0394 -0.1045 0.9937
vn -0.0125 -0.1183 0.9929
vn -0.0000 -0.1229 0.9924
vn 0.0125 -0.1183 0.9929
vn 0.0447 -0.0343 0.9984
vn 0.0394 -0.1045 0.9937
vn 0.0465 -0.0000 0.9989
vn 1.0000 0.0039 -0.0037
vn 1.0000 0.0039 0.0037
vn 1.0000 -0.0039 -0.0037
vn 1.0000 -0.0039 0.0037
vn 0.9982 0.0451 -0.0401
vn 0.9989 0.0460 -0.0033
vn 0.9992 0.0037 -0.0410
vn 0.9989 0.0464 -0.0000
vn 0.9989 0.0460 0.0033
vn 0.9982 0.0451 0.0401
vn 0.9992 0.0037 0.0410
vn 0.9991 -0.0000 0.0413
vn 0.9992 -0.0037 0.0410
vn 0.9982 -0.0451 0.0401
vn 0.9989 -0.0460 0.0033
vn 0.9989 -0.0464 -0.0000
vn 0.9989 -0.0460 -0.0033
vn 0.9992 -0.0037 -0.0410
vn 0.9982 -0.0451 -0.0401
vn 0.9991 -0.0000 -0.0413
vn 0.0066 -0.9998 -0.0168
vn -0.0000 -0.9998 -0.0175
vn 0.0066 -0.9998 0.0168
vn -0.0000 -0.9998 0.0175
vn -0.0066 -0.9998 -0.0168
vn -0.0066 -0.9998 0.0168
vn 0.0206 -0.9986 -0.0489
vn 0.0228 -0.9996 -0.0145
vn 0.0058 -0.9985 -0.0545
vn 0.0236 -0.9997 -0.0000
vn 0.0228 -0.9996 0.0145
vn 0.0206 -0.9986 0.0489
vn 0.0058 -0.9985 0.0545
vn -0.0000 -0.9984 0.0563
vn -0.0058 -0.9985 0.0545
vn -0.0206 -0.9986 0.0489
vn -0.0228 -0.9996 0.0145
vn -0.0236 -0.9997 -0.0000
vn -0.0228 -0.9996 -0.0145
vn -0.0058 -0.9985 -0.0545
vn -0.0206 -0.9986 -0.0489
vn -0.0000 -0.9984 -0.0563
vn -1.0000 -0.0039 -0.0037
vn -1.0000 -0.0039 0.0037
vn -1.0000 0.0040 -0.0037
vn -1.0000 0.0039 0.0037
vn -0.9982 -0.0451 -0.0401
vn -0.9989 -0.0460 -0.0033
vn -0.9992 -0.0037 -0.0410
vn -0.9989 -0.0464 -0.0000
vn -0.9989 -0.0460 0.0033
vn -0.9982 -0.0451 0.0401
vn -0.9992 -0.0037 0.0410
vn -0.9991 -0.0000 0.0413
vn -0.9992 0.0037 0.0410
vn -0.9982 0.0451 0.0401
vn -0.9989 0.0460 0.0033
vn -0.9989 0.0464 -0.0000
vn -0.9989 0.0460 -0.0033
vn -0.9992 0.0037 -0.0410
vn -0.9982 0.0451 -0.0401
vn -0.9991 -0.0000 -0.0413
vn 0.0066 0.9998 0.0168
vn -0.0000 0.9998 0.0175
vn 0.0066 0.9998 -0.0168
vn -0.0000 0.9998 -0.0175
vn -0.0066 0.9998 0.0168
vn -0.0066 0.9998 -0.0168
vn 0.0206 0.9986 0.0489
vn 0.0228 0.9996 0.0145
vn 0.0058 0.9985 0.0545
vn 0.0236 0.9997 -0.0000
vn 0.0228 0.9996 -0.0145
vn 0.0206 0.9986 -0.0489
vn 0.0058 0.9985 -0.0545
vn -0.0000 0.9984 -0.0563
vn -0.0058 0.9985 -0.0545
vn -0.0206 0.9986 -0.0489
vn -0.0228 0.9996 -0.0145
vn -0.0236 0.9997 -0.0000
vn -0.0228 0.9996 0.0145
vn -0.0058 0.9985 0.0545
vn -0.0206 0.9986 0.0489
vn -0.0000 0.9984 0.0563
vn 0.0096 -0.3681 -0.9297
vn 0.0067 -0.7795 -0.6264
vn -0.0000 -0.7813 -0.6242
vn -0.0000 -0.3743 -0.9273
vn 0.0052 -0.9754 -0.2205
vn -0.0000 -0.9750 -0.2224
vn -0.0067 -0.7795 -0.6264
vn -0.0096 -0.3681 -0.9297
vn -0.0052 -0.9754 -0.2205
vn 0.0314 -0.3487 -0.9367
vn 0.0232 -0.7739 -0.6329
vn 0.0188 -0.9766 -0.2142
vn -0.0188 -0.9766 -0.2142
vn -0.0232 -0.7739 -0.6329
vn -0.0314 -0.3487 -0.9367
vn 0.0096 0.3681 -0.9297
vn -0.0000 0.3743 -0.9273
vn -0.0000 0.7813 -0.6242
vn 0.0067 0.7795 -0.6264
vn -0.0096 0.3681 -0.9297
vn -0.0067 0.7795 -0.6264
vn -0.0000 0.9750 -0.2224
vn 0.0052 0.9754 -0.2205
vn -0.0052 0.9754 -0.2205
vn 0.0314 0.3487 -0.9367
vn -0.0314 0.3487 -0.9367
vn -0.0232 0.7739 -0.6329
vn -0.0188 0.9766 -0.2142
vn 0.0188 0.9766 -0.2142
vn 0.0232 0.7739 -0.6329
vn 0.0096 -0.3681 0.9297
vn -0.0000 -0.3743 0.9273
vn -0.0000 -0.7813 0.6242
vn 0.0067 -0.7795 0.6264
vn -0.0096 -0.3681 0.9297
vn -0.0067 -0.7795 0.6264
vn -0.0000 -0.9750 0.2224
vn 0.0052 -0.9754 0.2205
vn -0.0052 -0.9754 0.2205
vn 0.0314 -0.3487 0.9367
vn -0.0314 -0.3487 0.9367
vn -0.0232 -0.7739 0.6329
vn -0.0188 -0.9766 0.2142
vn 0.0188 -0.9766 0.2142
vn 0.0232 -0.7739 0.6329
vn 0.1638 0.0261 -0.9861
vn 0.5592 0.0164 -0.8289
vn 0.5628 -0.0000 -0.8266
vn 0.1675 -0.0000 -0.9859
vn 0.9355 0.0070 -0.3534
vn 0.9361 -0.0000 -0.3519
vn 0.5592 -0.0164 -0.8289
vn 0.1638 -0.0261 -0.9861
vn 0.9355 -0.0070 -0.3534
vn 0.1529 0.0835 -0.9847
vn 0.5510 0.0650 -0.8320
vn 0.9335 0.0504 -0.3550
vn 0.9335 -0.0504 -0.3550
vn 0.5510 -0.0650 -0.8320
vn 0.1529 -0.0835 -0.9847
vn -0.1638 -0.0261 0.9861
vn -0.1675 -0.0000 0.9859
vn -0.5628 -0.0000 0.8266
vn -0.5592 -0.0164 0.8289
vn -0.1638 0.0261 0.9861
vn -0.5592 0.0164 0.8289
vn -0.9361 -0.0000 0.3519
vn -0.9355 -0.0070 0.3534
vn -0.9355 0.0070 0.3534
vn -0.1529 -0.0835 0.9847
vn -0.1529 0.0835 0.9847
vn -0.5510 0.0650 0.8320
vn -0.9335 0.0504 0.3550
vn -0.9335 -0.0504 0.3550
vn -0.5510 -0.0650 0.8320
vn 0.9154 -0.4025 -0.0045
vn 0.9157 -0.4020 -0.0000
vn 0.4880 -0.8729 -0.0000
vn 0.4863 -0.8738 -0.0077
vn 0.9154 -0.4025 0.0045
vn 0.4863 -0.8738 0.0077
vn 0.1128 -0.9936 -0.0000
vn 0.1111 -0.9937 -0.0112
vn 0.1111 -0.9937 0.0112
vn 0.9150 -0.4014 -0.0398
vn 0.9150 -0.4014 0.0398
vn 0.4841 -0.8742 0.0378
vn 0.1064 -0.9935 0.0406
vn 0.1064 -0.9935 -0.0406
vn 0.4841 -0.8742 -0.0378
vn -0.1111 -0.9937 -0.0112
vn -0.1128 -0.9936 -0.0000
vn -0.4880 -0.8729 -0.0000
vn -0.4863 -0.8738 -0.0077
vn -0.1111 -0.9937 0.0112
vn -0.4863 -0.8738 0.0077
vn -0.9157 -0.4020 -0.0000
vn -0.9154 -0.4025 -0.0045
vn -0.9154 -0.4025 0.0045
vn -0.1064 -0.9935 -0.0406
vn -0.1064 -0.9935 0.0406
vn -0.4841 -0.8742 0.0378
vn -0.9150 -0.4014 0.0398
vn -0.9150 -0.4014 -0.0398
vn -0.4841 -0.8742 -0.0378
vn 0.1638 0.0261 0.9861
vn 0.1675 -0.0000 0.9859
vn 0.5628 -0.0000 0.8266
vn 0.5592 0.0164 0.8289
vn 0.1638 -0.0261 0.9861
vn 0.5592 -0.0164 0.8289
vn 0.9361 -0.0000 0.3519
vn 0.9355 0.0070 0.3534
vn 0.9355 -0.0070 0.3534
vn 0.1529 0.0835 0.9847
vn 0.1529 -0.0835 0.9847
vn 0.5510 -0.0650 0.8320
vn 0.9335 -0.0504 0.3550
vn 0.9335 0.0504 0.3550
vn 0.5510 0.0650 0.8320
vn -0.1638 -0.0261 -0.9861
vn -0.5592 -0.0164 -0.8289
vn -0.5628 -0.0000 -0.8266
vn -0.1675 -0.0000 -0.9859
vn -0.9355 -0.0070 -0.3534
vn -0.9361 -0.0000 -0.3519
vn -0.5592 0.0164 -0.8289
vn -0.1638 0.0261 -0.9861
vn -0.9355 0.0070 -0.3534
vn -0.1529 -0.0835 -0.9847
vn -0.5510 -0.0650 -0.8320
vn -0.9335 -0.0504 -0.3550
vn -0.9335 0.0504 -0.3550
vn -0.5510 0.0650 -0.8320
vn -0.1529 0.0835 -0.9847
vn 0.0096 0.3681 0.9297
vn 0.0067 0.7795 0.6264
vn -0.0000 0.7813 0.6242
vn -0.0000 0.3743 0.9273
vn 0.0052 0.9754 0.2205
vn -0.0000 0.9750 0.2224
vn -0.0067 0.7795 0.6264
vn -0.0096 0.3681 0.9297
vn -0.0052 0.9754 0.2205
vn 0.0314 0.3487 0.9367
vn 0.0232 0.7739 0.6329
vn 0.0188 0.9766 0.2142
vn -0.0188 0.9766 0.2142
vn -0.0232 0.7739 0.6329
vn -0.0314 0.3487 0.9367
vn 0.9154 0.4025 -0.0045
vn 0.4863 0.8738 -0.0077
vn 0.4880 0.8729 -0.0000
vn 0.9157 0.4020 -0.0000
vn 0.1111 0.9937 -0.0112
vn 0.1128 0.9936 -0.0000
vn 0.4863 0.8738 0.0077
vn 0.9154 0.4025 0.0045
vn 0.1111 0.9937 0.0112
vn 0.9150 0.4014 -0.0398
vn 0.4841 0.8742 -0.0378
vn 0.1064 0.9935 -0.0406
vn 0.1064 0.9935 0.0406
vn 0.4841 0.8742 0.0378
vn 0.9150 0.4014 0.0398
vn -0.9154 0.4025 -0.0045
vn -0.9157 0.4020 -0.0000
vn -0.4880 0.8729 -0.0000
vn -0.4863 0.8738 -0.0077
vn -0.9154 0.4025 0.0045
vn -0.4863 0.8738 0.0077
vn -0.1128 0.9936 -0.0000
vn -0.1111 0.9937 -0.0112
vn -0.1111 0.9937 0.0112
vn -0.9150 0.4014 -0.0398
vn -0.9150 0.4014 0.0398
vn -0.4841 0.8742 0.0378
vn -0.1064 0.9935 0.0406
vn -0.1064 0.9935 -0.0406
vn -0.4841 0.8742 -0.0378
vn 0.1308 0.3093 -0.9419
vn 0.1042 0.7609 -0.6404
vn 0.3397 0.7185 -0.6069
vn 0.5297 0.3227 -0.7844
vn 0.0973 0.9756 -0.1969
vn 0.4837 0.8413 -0.2416
vn 0.8716 0.3713 -0.3200
vn 0.0973 0.9756 0.1969
vn 0.1042 0.7609 0.6404
vn 0.3397 0.7185 0.6069
vn 0.4837 0.8413 0.2416
vn 0.1308 0.3093 0.9419
vn 0.5297 0.3227 0.7844
vn 0.8716 0.3713 0.3200
vn 0.0973 -0.9756 0.1969
vn 0.4837 -0.8413 0.2416
vn 0.3397 -0.7185 0.6069
vn 0.1042 -0.7609 0.6404
vn 0.8716 -0.3713 0.3200
vn 0.5297 -0.3227 0.7844
vn 0.1308 -0.3093 0.9419
vn -0.0973 0.9756 0.1969
vn -0.4837 0.8413 0.2416
vn -0.3397 0.7185 0.6069
vn -0.1042 0.7609 0.6404
vn -0.8716 0.3713 0.3200
vn -0.5297 0.3227 0.7844
vn -0.1308 0.3093 0.9419
vn -0.1308 -0.3093 -0.9419
vn -0.1042 -0.7609 -0.6404
vn -0.3397 -0.7185 -0.6069
vn -0.5297 -0.3227 -0.7844
vn -0.0973 -0.9756 -0.1969
vn -0.4837 -0.8413 -0.2416
vn -0.8716 -0.3713 -0.3200
vn -0.8716 0.3713 -0.3200
vn -0.4837 0.8413 -0.2416
vn -0.3397 0.7185 -0.6069
vn -0.5297 0.3227 -0.7844
vn -0.0973 0.9756 -0.1969
vn -0.1042 0.7609 -0.6404
vn -0.1308 0.3093 -0.9419
vn 0.1308 -0.3093 -0.9419
vn 0.5297 -0.3227 -0.7844
vn 0.3397 -0.7185 -0.6069
vn 0.1042 -0.7609 -0.6404
vn 0.8716 -0.3713 -0.3200
vn 0.4837 -0.8413 -0.2416
vn 0.0973 -0.9756 -0.1969
vn -0.0973 -0.9756 0.1969
vn -0.1042 -0.7609 0.6404
vn -0.3397 -0.7185 0.6069
vn -0.4837 -0.8413 0.2416
vn -0.1308 -0.3093 0.9419
vn -0.5297 -0.3227 0.7844
vn -0.8716 -0.3713 0.3200
vt 0.625000 0.500000
vt 0.625000 0.250000
vt 0.375000 0.750000
vt 0.625000 0.750000
vt 0.625000 1.000000
vt 0.375000 1.000000
vt 0.375000 0.000000
vt 0.625000 0.000000
vt 0.375000 0.250000
vt 0.125000 0.500000
vt 0.375000 0.500000
vt 0.125000 0.750000
vt 0.875000 0.500000
vt 0.875000 0.750000
vt 0.000000 0.000000
s 0
usemtl wall
f 1/1/1 5/2/1 12/2/1 11/1/1
f 4/3/2 3/4/2 7/5/2 8/6/2
f 8/7/3 7/8/3 5/2/3 6/9/3
f 6/10/4 2/11/4 4/3/4 8/12/4
f 2/11/5 1/1/5 3/4/5 4/3/5
f 6/9/6 5/2/6 1/1/6 2/11/6
f 12/2/5 10/8/5 14/8/5 16/2/5
f 7/5/1 3/4/1 9/4/1 10/5/1
f 5/2/1 7/8/1 10/8/1 12/2/1
f 3/4/1 1/1/1 11/1/1 9/4/1
f 15/1/1 16/13/1 14/14/1 13/4/1
f 10/5/6 9/4/6 13/4/6 14/5/6
f 11/1/2 12/2/2 16/2/2 15/1/2
f 9/4/3 11/1/3 15/1/3 13/4/3
s 1
usemtl hedge_OUT
f 185/15/7 186/15/8 189/15/6 188/15/9
f 186/15/8 187/15/10 190/15/11 189/15/6
f 188/15/9 189/15/6 192/15/12 191/15/13
f 189/15/6 190/15/11 193/15/14 192/15/12
f 17/15/15 44/15/16 185/15/7 41/15/17
f 44/15/16 45/15/18 186/15/8 185/15/7
f 45/15/18 46/15/19 187/15/10 186/15/8
f 46/15/19 18/15/20 47/15/21 187/15/10
f 187/15/10 47/15/21 48/15/22 190/15/11
f 190/15/11 48/15/22 49/15/23 193/15/14
f 193/15/14 49/15/23 19/15/24 50/15/25
f 192/15/12 193/15/14 50/15/25 51/15/26
f 191/15/13 192/15/12 51/15/26 52/15/27
f 43/15/28 191/15/13 52/15/27 20/15/29
f 42/15/30 188/15/9 191/15/13 43/15/28
f 41/15/17 185/15/7 188/15/9 42/15/30
f 194/15/31 195/15/32 198/15/2 197/15/33
f 195/15/32 196/15/34 199/15/35 198/15/2
f 197/15/33 198/15/2 201/15/36 200/15/37
f 198/15/2 199/15/35 202/15/38 201/15/36
f 21/15/39 56/15/40 194/15/31 53/15/41
f 56/15/40 57/15/42 195/15/32 194/15/31
f 57/15/42 58/15/43 196/15/34 195/15/32
f 58/15/43 22/15/44 59/15/45 196/15/34
f 196/15/34 59/15/45 60/15/46 199/15/35
f 199/15/35 60/15/46 61/15/47 202/15/38
f 202/15/38 61/15/47 23/15/48 62/15/49
f 201/15/36 202/15/38 62/15/49 63/15/50
f 200/15/37 201/15/36 63/15/50 64/15/51
f 55/15/52 200/15/37 64/15/51 24/15/53
f 54/15/54 197/15/33 200/15/37 55/15/52
f 53/15/41 194/15/31 197/15/33 54/15/54
f 203/15/55 204/15/56 207/15/5 206/15/57
f 204/15/56 205/15/58 208/15/59 207/15/5
f 206/15/57 207/15/5 210/15/60 209/15/61
f 207/15/5 208/15/59 211/15/62 210/15/60
f 25/15/63 68/15/64 203/15/55 65/15/65
f 68/15/64 69/15/66 204/15/56 203/15/55
f 69/15/66 70/15/67 205/15/58 204/15/56
f 70/15/67 26/15/68 71/15/69 205/15/58
f 205/15/58 71/15/69 72/15/70 208/15/59
f 208/15/59 72/15/70 73/15/71 211/15/62
f 211/15/62 73/15/71 27/15/72 74/15/73
f 210/15/60 211/15/62 74/15/73 75/15/74
f 209/15/61 210/15/60 75/15/74 76/15/75
f 67/15/76 209/15/61 76/15/75 28/15/77
f 66/15/78 206/15/57 209/15/61 67/15/76
f 65/15/65 203/15/55 206/15/57 66/15/78
f 212/15/79 213/15/80 216/15/4 215/15/81
f 213/15/80 214/15/82 217/15/83 216/15/4
f 215/15/81 216/15/4 219/15/84 218/15/85
f 216/15/4 217/15/83 220/15/86 219/15/84
f 29/15/87 80/15/88 212/15/79 77/15/89
f 80/15/88 81/15/90 213/15/80 212/15/79
f 81/15/90 82/15/91 214/15/82 213/15/80
f 82/15/91 30/15/92 83/15/93 214/15/82
f 214/15/82 83/15/93 84/15/94 217/15/83
f 217/15/83 84/15/94 85/15/95 220/15/86
f 220/15/86 85/15/95 31/15/96 86/15/97
f 219/15/84 220/15/86 86/15/97 87/15/98
f 218/15/85 219/15/84 87/15/98 88/15/99
f 79/15/100 218/15/85 88/15/99 32/15/101
f 78/15/102 215/15/81 218/15/85 79/15/100
f 77/15/89 212/15/79 215/15/81 78/15/102
f 221/15/103 222/15/104 225/15/3 224/15/105
f 222/15/104 223/15/106 226/15/107 225/15/3
f 224/15/105 225/15/3 228/15/108 227/15/109
f 225/15/3 226/15/107 229/15/110 228/15/108
f 33/15/111 92/15/112 221/15/103 89/15/113
f 92/15/112 93/15/114 222/15/104 221/15/103
f 93/15/114 94/15/115 223/15/106 222/15/104
f 94/15/115 34/15/116 95/15/117 223/15/106
f 223/15/106 95/15/117 96/15/118 226/15/107
f 226/15/107 96/15/118 97/15/119 229/15/110
f 229/15/110 97/15/119 35/15/120 98/15/121
f 228/15/108 229/15/110 98/15/121 99/15/122
f 227/15/109 228/15/108 99/15/122 100/15/123
f 91/15/124 227/15/109 100/15/123 36/15/125
f 90/15/126 224/15/105 227/15/109 91/15/124
f 89/15/113 221/15/103 224/15/105 90/15/126
f 230/15/127 231/15/128 234/15/1 233/15/129
f 231/15/128 232/15/130 235/15/131 234/15/1
f 233/15/129 234/15/1 237/15/132 236/15/133
f 234/15/1 235/15/131 238/15/134 237/15/132
f 37/15/135 104/15/136 230/15/127 101/15/137
f 104/15/136 105/15/138 231/15/128 230/15/127
f 105/15/138 106/15/139 232/15/130 231/15/128
f 106/15/139 38/15/140 107/15/141 232/15/130
f 232/15/130 107/15/141 108/15/142 235/15/131
f 235/15/131 108/15/142 109/15/143 238/15/134
f 238/15/134 109/15/143 39/15/144 110/15/145
f 237/15/132 238/15/134 110/15/145 111/15/146
f 236/15/133 237/15/132 111/15/146 112/15/147
f 103/15/148 236/15/133 112/15/147 40/15/149
f 102/15/150 233/15/129 236/15/133 103/15/148
f 101/15/137 230/15/127 233/15/129 102/15/150
f 239/15/151 240/15/152 243/15/153 242/15/154
f 240/15/152 241/15/155 244/15/156 243/15/153
f 242/15/154 243/15/153 246/15/157 245/15/158
f 243/15/153 244/15/156 247/15/159 246/15/157
f 17/15/15 41/15/17 239/15/151 113/15/160
f 41/15/17 42/15/30 240/15/152 239/15/151
f 42/15/30 43/15/28 241/15/155 240/15/152
f 43/15/28 20/15/29 116/15/161 241/15/155
f 241/15/155 116/15/161 117/15/162 244/15/156
f 244/15/156 117/15/162 118/15/163 247/15/159
f 247/15/159 118/15/163 39/15/144 109/15/143
f 246/15/157 247/15/159 109/15/143 108/15/142
f 245/15/158 246/15/157 108/15/142 107/15/141
f 115/15/164 245/15/158 107/15/141 38/15/140
f 114/15/165 242/15/154 245/15/158 115/15/164
f 113/15/160 239/15/151 242/15/154 114/15/165
f 248/15/166 249/15/167 252/15/168 251/15/169
f 249/15/167 250/15/170 253/15/171 252/15/168
f 251/15/169 252/15/168 255/15/172 254/15/173
f 252/15/168 253/15/171 256/15/174 255/15/172
f 19/15/24 119/15/175 248/15/166 50/15/25
f 119/15/175 120/15/176 249/15/167 248/15/166
f 120/15/176 121/15/177 250/15/170 249/15/167
f 121/15/177 33/15/111 89/15/113 250/15/170
f 250/15/170 89/15/113 90/15/126 253/15/171
f 253/15/171 90/15/126 91/15/124 256/15/174
f 256/15/174 91/15/124 36/15/125 124/15/178
f 255/15/172 256/15/174 124/15/178 123/15/179
f 254/15/173 255/15/172 123/15/179 122/15/180
f 52/15/27 254/15/173 122/15/180 20/15/29
f 51/15/26 251/15/169 254/15/173 52/15/27
f 50/15/25 248/15/166 251/15/169 51/15/26
f 257/15/181 258/15/182 261/15/183 260/15/184
f 258/15/182 259/15/185 262/15/186 261/15/183
f 260/15/184 261/15/183 264/15/187 263/15/188
f 261/15/183 262/15/186 265/15/189 264/15/187
f 36/15/125 100/15/123 257/15/181 125/15/190
f 100/15/123 99/15/122 258/15/182 257/15/181
f 99/15/122 98/15/121 259/15/185 258/15/182
f 98/15/121 35/15/120 128/15/191 259/15/185
f 259/15/185 128/15/191 129/15/192 262/15/186
f 262/15/186 129/15/192 130/15/193 265/15/189
f 265/15/189 130/15/193 40/15/149 112/15/147
f 264/15/187 265/15/189 112/15/147 111/15/146
f 263/15/188 264/15/187 111/15/146 110/15/145
f 127/15/194 263/15/188 110/15/145 39/15/144
f 126/15/195 260/15/184 263/15/188 127/15/194
f 125/15/190 257/15/181 260/15/184 126/15/195
f 266/15/196 267/15/197 270/15/198 269/15/199
f 267/15/197 268/15/200 271/15/201 270/15/198
f 269/15/199 270/15/198 273/15/202 272/15/203
f 270/15/198 271/15/201 274/15/204 273/15/202
f 21/15/39 131/15/205 266/15/196 56/15/40
f 131/15/205 132/15/206 267/15/197 266/15/196
f 132/15/206 133/15/207 268/15/200 267/15/197
f 133/15/207 37/15/135 101/15/137 268/15/200
f 268/15/200 101/15/137 102/15/150 271/15/201
f 271/15/201 102/15/150 103/15/148 274/15/204
f 274/15/204 103/15/148 40/15/149 136/15/208
f 273/15/202 274/15/204 136/15/208 135/15/209
f 272/15/203 273/15/202 135/15/209 134/15/210
f 58/15/43 272/15/203 134/15/210 22/15/44
f 57/15/42 269/15/199 272/15/203 58/15/43
f 56/15/40 266/15/196 269/15/199 57/15/42
f 275/15/211 276/15/212 279/15/213 278/15/214
f 276/15/212 277/15/215 280/15/216 279/15/213
f 278/15/214 279/15/213 282/15/217 281/15/218
f 279/15/213 280/15/216 283/15/219 282/15/217
f 23/15/48 61/15/47 275/15/211 137/15/220
f 61/15/47 60/15/46 276/15/212 275/15/211
f 60/15/46 59/15/45 277/15/215 276/15/212
f 59/15/45 22/15/44 140/15/221 277/15/215
f 277/15/215 140/15/221 141/15/222 280/15/216
f 280/15/216 141/15/222 142/15/223 283/15/219
f 283/15/219 142/15/223 35/15/120 97/15/119
f 282/15/217 283/15/219 97/15/119 96/15/118
f 281/15/218 282/15/217 96/15/118 95/15/117
f 139/15/224 281/15/218 95/15/117 34/15/116
f 138/15/225 278/15/214 281/15/218 139/15/224
f 137/15/220 275/15/211 278/15/214 138/15/225
f 284/15/226 285/15/227 288/15/228 287/15/229
f 285/15/227 286/15/230 289/15/231 288/15/228
f 287/15/229 288/15/228 291/15/232 290/15/233
f 288/15/228 289/15/231 292/15/234 291/15/232
f 21/15/39 53/15/41 284/15/226 143/15/235
f 53/15/41 54/15/54 285/15/227 284/15/226
f 54/15/54 55/15/52 286/15/230 285/15/227
f 55/15/52 24/15/53 146/15/236 286/15/230
f 286/15/230 146/15/236 147/15/237 289/15/231
f 289/15/231 147/15/237 148/15/238 292/15/234
f 292/15/234 148/15/238 27/15/72 73/15/71
f 291/15/232 292/15/234 73/15/71 72/15/70
f 290/15/233 291/15/232 72/15/70 71/15/69
f 145/15/239 290/15/233 71/15/69 26/15/68
f 144/15/240 287/15/229 290/15/233 145/15/239
f 143/15/235 284/15/226 287/15/229 144/15/240
f 293/15/241 294/15/242 297/15/243 296/15/244
f 294/15/242 295/15/245 298/15/246 297/15/243
f 296/15/244 297/15/243 300/15/247 299/15/248
f 297/15/243 298/15/246 301/15/249 300/15/247
f 28/15/77 76/15/75 293/15/241 149/15/250
f 76/15/75 75/15/74 294/15/242 293/15/241
f 75/15/74 74/15/73 295/15/245 294/15/242
f 74/15/73 27/15/72 152/15/251 295/15/245
f 295/15/245 152/15/251 153/15/252 298/15/246
f 298/15/246 153/15/252 154/15/253 301/15/249
f 301/15/249 154/15/253 30/15/92 82/15/91
f 300/15/247 301/15/249 82/15/91 81/15/90
f 299/15/248 300/15/247 81/15/90 80/15/88
f 151/15/254 299/15/248 80/15/88 29/15/87
f 150/15/255 296/15/244 299/15/248 151/15/254
f 149/15/250 293/15/241 296/15/244 150/15/255
f 302/15/256 303/15/257 306/15/258 305/15/259
f 303/15/257 304/15/260 307/15/261 306/15/258
f 305/15/259 306/15/258 309/15/262 308/15/263
f 306/15/258 307/15/261 310/15/264 309/15/262
f 17/15/15 155/15/265 302/15/256 44/15/16
f 155/15/265 156/15/266 303/15/257 302/15/256
f 156/15/266 157/15/267 304/15/260 303/15/257
f 157/15/267 25/15/63 65/15/65 304/15/260
f 304/15/260 65/15/65 66/15/78 307/15/261
f 307/15/261 66/15/78 67/15/76 310/15/264
f 310/15/264 67/15/76 28/15/77 160/15/268
f 309/15/262 310/15/264 160/15/268 159/15/269
f 308/15/263 309/15/262 159/15/269 158/15/270
f 46/15/19 308/15/263 158/15/270 18/15/20
f 45/15/18 305/15/259 308/15/263 46/15/19
f 44/15/16 302/15/256 305/15/259 45/15/18
f 311/15/271 312/15/272 315/15/273 314/15/274
f 312/15/272 313/15/275 316/15/276 315/15/273
f 314/15/274 315/15/273 318/15/277 317/15/278
f 315/15/273 316/15/276 319/15/279 318/15/277
f 24/15/53 64/15/51 311/15/271 161/15/280
f 64/15/51 63/15/50 312/15/272 311/15/271
f 63/15/50 62/15/49 313/15/275 312/15/272
f 62/15/49 23/15/48 164/15/281 313/15/275
f 313/15/275 164/15/281 165/15/282 316/15/276
f 316/15/276 165/15/282 166/15/283 319/15/279
f 319/15/279 166/15/283 31/15/96 85/15/95
f 318/15/277 319/15/279 85/15/95 84/15/94
f 317/15/278 318/15/277 84/15/94 83/15/93
f 163/15/284 317/15/278 83/15/93 30/15/92
f 162/15/285 314/15/274 317/15/278 163/15/284
f 161/15/280 311/15/271 314/15/274 162/15/285
f 320/15/286 321/15/287 324/15/288 323/15/289
f 321/15/287 322/15/290 325/15/291 324/15/288
f 323/15/289 324/15/288 327/15/292 326/15/293
f 324/15/288 325/15/291 328/15/294 327/15/292
f 25/15/63 167/15/295 320/15/286 68/15/64
f 167/15/295 168/15/296 321/15/287 320/15/286
f 168/15/296 169/15/297 322/15/290 321/15/287
f 169/15/297 38/15/140 106/15/139 322/15/290
f 322/15/290 106/15/139 105/15/138 325/15/291
f 325/15/291 105/15/138 104/15/136 328/15/294
f 328/15/294 104/15/136 37/15/135 172/15/298
f 327/15/292 328/15/294 172/15/298 171/15/299
f 326/15/293 327/15/292 171/15/299 170/15/300
f 70/15/67 326/15/293 170/15/300 26/15/68
f 69/15/66 323/15/289 326/15/293 70/15/67
f 68/15/64 320/15/286 323/15/289 69/15/66
f 329/15/301 330/15/302 333/15/303 332/15/304
f 330/15/302 331/15/305 334/15/306 333/15/303
f 332/15/304 333/15/303 336/15/307 335/15/308
f 333/15/303 334/15/306 337/15/309 336/15/307
f 18/15/20 173/15/310 329/15/301 47/15/21
f 173/15/310 174/15/311 330/15/302 329/15/301
f 174/15/311 175/15/312 331/15/305 330/15/302
f 175/15/312 29/15/87 77/15/89 331/15/305
f 331/15/305 77/15/89 78/15/102 334/15/306
f 334/15/306 78/15/102 79/15/100 337/15/309
f 337/15/309 79/15/100 32/15/101 178/15/313
f 336/15/307 337/15/309 178/15/313 177/15/314
f 335/15/308 336/15/307 177/15/314 176/15/315
f 49/15/23 335/15/308 176/15/315 19/15/24
f 48/15/22 332/15/304 335/15/308 49/15/23
f 47/15/21 329/15/301 332/15/304 48/15/22
f 338/15/316 339/15/317 342/15/318 341/15/319
f 339/15/317 340/15/320 343/15/321 342/15/318
f 341/15/319 342/15/318 345/15/322 344/15/323
f 342/15/318 343/15/321 346/15/324 345/15/322
f 32/15/101 88/15/99 338/15/316 179/15/325
f 88/15/99 87/15/98 339/15/317 338/15/316
f 87/15/98 86/15/97 340/15/320 339/15/317
f 86/15/97 31/15/96 182/15/326 340/15/320
f 340/15/320 182/15/326 183/15/327 343/15/321
f 343/15/321 183/15/327 184/15/328 346/15/324
f 346/15/324 184/15/328 34/15/116 94/15/115
f 345/15/322 346/15/324 94/15/115 93/15/114
f 344/15/323 345/15/322 93/15/114 92/15/112
f 181/15/329 344/15/323 92/15/112 33/15/111
f 180/15/330 341/15/319 344/15/323 181/15/329
f 179/15/325 338/15/316 341/15/319 180/15/330
f 348/15/331 349/15/332 347/15/333 353/15/334
f 350/15/335 351/15/336 347/15/333 349/15/332
f 352/15/337 353/15/334 347/15/333 351/15/336
f 37/15/135 133/15/207 348/15/331 172/15/298
f 133/15/207 132/15/206 349/15/332 348/15/331
f 172/15/298 348/15/331 353/15/334 171/15/299
f 21/15/39 143/15/235 350/15/335 131/15/205
f 143/15/235 144/15/240 351/15/336 350/15/335
f 131/15/205 350/15/335 349/15/332 132/15/206
f 26/15/68 170/15/300 352/15/337 145/15/239
f 170/15/300 171/15/299 353/15/334 352/15/337
f 145/15/239 352/15/337 351/15/336 144/15/240
f 355/15/338 356/15/339 354/15/340 360/15/341
f 357/15/342 358/15/343 354/15/340 356/15/339
f 359/15/344 360/15/341 354/15/340 358/15/343
f 30/15/92 154/15/253 355/15/338 163/15/284
f 154/15/253 153/15/252 356/15/339 355/15/338
f 163/15/284 355/15/338 360/15/341 162/15/285
f 27/15/72 148/15/238 357/15/342 152/15/251
f 148/15/238 147/15/237 358/15/343 357/15/342
f 152/15/251 357/15/342 356/15/339 153/15/252
f 24/15/53 161/15/280 359/15/344 146/15/236
f 161/15/280 162/15/285 360/15/341 359/15/344
f 146/15/236 359/15/344 358/15/343 147/15/237
f 362/15/345 363/15/346 361/15/347 367/15/348
f 364/15/349 365/15/350 361/15/347 363/15/346
f 366/15/351 367/15/348 361/15/347 365/15/350
f 40/15/149 130/15/193 362/15/345 136/15/208
f 130/15/193 129/15/192 363/15/346 362/15/345
f 136/15/208 362/15/345 367/15/348 135/15/209
f 35/15/120 142/15/223 364/15/349 128/15/191
f 142/15/223 141/15/222 365/15/350 364/15/349
f 128/15/191 364/15/349 363/15/346 129/15/192
f 22/15/44 134/15/210 366/15/351 140/15/221
f 134/15/210 135/15/209 367/15/348 366/15/351
f 140/15/221 366/15/351 365/15/350 141/15/222
f 369/15/352 370/15/353 368/15/354 374/15/355
f 371/15/356 372/15/357 368/15/354 370/15/353
f 373/15/358 374/15/355 368/15/354 372/15/357
f 36/15/125 125/15/190 369/15/352 124/15/178
f 125/15/190 126/15/195 370/15/353 369/15/352
f 124/15/178 369/15/352 374/15/355 123/15/179
f 39/15/144 118/15/163 371/15/356 127/15/194
f 118/15/163 117/15/162 372/15/357 371/15/356
f 127/15/194 371/15/356 370/15/353 126/15/195
f 20/15/29 122/15/180 373/15/358 116/15/161
f 122/15/180 123/15/179 374/15/355 373/15/358
f 116/15/161 373/15/358 372/15/357 117/15/162
f 376/15/359 377/15/360 375/15/361 381/15/362
f 378/15/363 379/15/364 375/15/361 377/15/360
f 380/15/365 381/15/362 375/15/361 379/15/364
f 18/15/20 158/15/270 376/15/359 173/15/310
f 158/15/270 159/15/269 377/15/360 376/15/359
f 173/15/310 376/15/359 381/15/362 174/15/311
f 28/15/77 149/15/250 378/15/363 160/15/268
f 149/15/250 150/15/255 379/15/364 378/15/363
f 160/15/268 378/15/363 377/15/360 159/15/269
f 29/15/87 175/15/312 380/15/365 151/15/254
f 175/15/312 174/15/311 381/15/362 380/15/365
f 151/15/254 380/15/365 379/15/364 150/15/255
f 383/15/366 384/15/367 382/15/368 388/15/369
f 385/15/370 386/15/371 382/15/368 384/15/367
f 387/15/372 388/15/369 382/15/368 386/15/371
f 19/15/24 176/15/315 383/15/366 119/15/175
f 176/15/315 177/15/314 384/15/367 383/15/366
f 119/15/175 383/15/366 388/15/369 120/15/176
f 32/15/101 179/15/325 385/15/370 178/15/313
f 179/15/325 180/15/330 386/15/371 385/15/370
f 178/15/313 385/15/370 384/15/367 177/15/314
f 33/15/111 121/15/177 387/15/372 181/15/329
f 121/15/177 120/15/176 388/15/369 387/15/372
f 181/15/329 387/15/372 386/15/371 180/15/330
f 390/15/373 391/15/374 389/15/375 395/15/376
f 392/15/377 393/15/378 389/15/375 391/15/374
f 394/15/379 395/15/376 389/15/375 393/15/378
f 31/15/96 166/15/283 390/15/373 182/15/326
f 166/15/283 165/15/282 391/15/374 390/15/373
f 182/15/326 390/15/373 395/15/376 183/15/327
f 23/15/48 137/15/220 392/15/377 164/15/281
f 137/15/220 138/15/225 393/15/378 392/15/377
f 164/15/281 392/15/377 391/15/374 165/15/282
f 34/15/116 184/15/328 394/15/379 139/15/224
f 184/15/328 183/15/327 395/15/376 394/15/379
f 139/15/224 394/15/379 393/15/378 138/15/225
f 397/15/380 398/15/381 396/15/382 402/15/383
f 399/15/384 400/15/385 396/15/382 398/15/381
f 401/15/386 402/15/383 396/15/382 400/15/385
f 17/15/15 113/15/160 397/15/380 155/15/265
f 113/15/160 114/15/165 398/15/381 397/15/380
f 155/15/265 397/15/380 402/15/383 156/15/266
f 38/15/140 169/15/297 399/15/384 115/15/164
f 169/15/297 168/15/296 400/15/385 399/15/384
f 115/15/164 399/15/384 398/15/381 114/15/165
f 25/15/63 157/15/267 401/15/386 167/15/295
f 157/15/267 156/15/266 402/15/383 401/15/386
f 167/15/295 401/15/386 400/15/385 168/15/296
usemtl hedge_IN
f 571/15/387 572/15/388 575/15/6 574/15/389
f 572/15/388 573/15/390 576/15/391 575/15/6
f 574/15/389 575/15/6 578/15/392 577/15/393
f 575/15/6 576/15/391 579/15/394 578/15/392
f 403/15/395 430/15/396 571/15/387 427/15/397
f 430/15/396 431/15/398 572/15/388 571/15/387
f 431/15/398 432/15/399 573/15/390 572/15/388
f 432/15/399 404/15/400 433/15/401 573/15/390
f 573/15/390 433/15/401 434/15/402 576/15/391
f 576/15/391 434/15/402 435/15/403 579/15/394
f 579/15/394 435/15/403 405/15/404 436/15/405
f 578/15/392 579/15/394 436/15/405 437/15/406
f 577/15/393 578/15/392 437/15/406 438/15/407
f 429/15/408 577/15/393 438/15/407 406/15/409
f 428/15/410 574/15/389 577/15/393 429/15/408
f 427/15/397 571/15/387 574/15/389 428/15/410
f 580/15/411 581/15/412 584/15/2 583/15/413
f 581/15/412 582/15/414 585/15/415 584/15/2
f 583/15/413 584/15/2 587/15/416 586/15/417
f 584/15/2 585/15/415 588/15/418 587/15/416
f 407/15/419 442/15/420 580/15/411 439/15/421
f 442/15/420 443/15/422 581/15/412 580/15/411
f 443/15/422 444/15/423 582/15/414 581/15/412
f 444/15/423 408/15/424 445/15/425 582/15/414
f 582/15/414 445/15/425 446/15/426 585/15/415
f 585/15/415 446/15/426 447/15/427 588/15/418
f 588/15/418 447/15/427 409/15/428 448/15/429
f 587/15/416 588/15/418 448/15/429 449/15/430
f 586/15/417 587/15/416 449/15/430 450/15/431
f 441/15/432 586/15/417 450/15/431 410/15/433
f 440/15/434 583/15/413 586/15/417 441/15/432
f 439/15/421 580/15/411 583/15/413 440/15/434
f 589/15/435 590/15/56 593/15/5 592/15/57
f 590/15/56 591/15/436 594/15/59 593/15/5
f 592/15/57 593/15/5 596/15/60 595/15/437
f 593/15/5 594/15/59 597/15/438 596/15/60
f 411/15/439 454/15/440 589/15/435 451/15/441
f 454/15/440 455/15/442 590/15/56 589/15/435
f 455/15/442 456/15/443 591/15/436 590/15/56
f 456/15/443 412/15/444 457/15/445 591/15/436
f 591/15/436 457/15/445 458/15/446 594/15/59
f 594/15/59 458/15/446 459/15/447 597/15/438
f 597/15/438 459/15/447 413/15/448 460/15/449
f 596/15/60 597/15/438 460/15/449 461/15/450
f 595/15/437 596/15/60 461/15/450 462/15/451
f 453/15/452 595/15/437 462/15/451 414/15/453
f 452/15/454 592/15/57 595/15/437 453/15/452
f 451/15/441 589/15/435 592/15/57 452/15/454
f 598/15/455 599/15/80 602/15/4 601/15/456
f 599/15/80 600/15/457 603/15/458 602/15/4
f 601/15/456 602/15/4 605/15/84 604/15/459
f 602/15/4 603/15/458 606/15/460 605/15/84
f 415/15/461 466/15/462 598/15/455 463/15/463
f 466/15/462 467/15/464 599/15/80 598/15/455
f 467/15/464 468/15/465 600/15/457 599/15/80
f 468/15/465 416/15/466 469/15/467 600/15/457
f 600/15/457 469/15/467 470/15/468 603/15/458
f 603/15/458 470/15/468 471/15/469 606/15/460
f 606/15/460 471/15/469 417/15/470 472/15/471
f 605/15/84 606/15/460 472/15/471 473/15/472
f 604/15/459 605/15/84 473/15/472 474/15/473
f 465/15/474 604/15/459 474/15/473 418/15/475
f 464/15/476 601/15/456 604/15/459 465/15/474
f 463/15/463 598/15/455 601/15/456 464/15/476
f 607/15/477 608/15/104 611/15/3 610/15/105
f 608/15/104 609/15/478 612/15/107 611/15/3
f 610/15/105 611/15/3 614/15/108 613/15/479
f 611/15/3 612/15/107 615/15/480 614/15/108
f 419/15/481 478/15/482 607/15/477 475/15/483
f 478/15/482 479/15/484 608/15/104 607/15/477
f 479/15/484 480/15/485 609/15/478 608/15/104
f 480/15/485 420/15/486 481/15/487 609/15/478
f 609/15/478 481/15/487 482/15/488 612/15/107
f 612/15/107 482/15/488 483/15/489 615/15/480
f 615/15/480 483/15/489 421/15/490 484/15/491
f 614/15/108 615/15/480 484/15/491 485/15/492
f 613/15/479 614/15/108 485/15/492 486/15/493
f 477/15/494 613/15/479 486/15/493 422/15/495
f 476/15/496 610/15/105 613/15/479 477/15/494
f 475/15/483 607/15/477 610/15/105 476/15/496
f 616/15/497 617/15/128 620/15/1 619/15/498
f 617/15/128 618/15/499 621/15/500 620/15/1
f 619/15/498 620/15/1 623/15/132 622/15/501
f 620/15/1 621/15/500 624/15/502 623/15/132
f 423/15/503 490/15/504 616/15/497 487/15/505
f 490/15/504 491/15/506 617/15/128 616/15/497
f 491/15/506 492/15/507 618/15/499 617/15/128
f 492/15/507 424/15/508 493/15/509 618/15/499
f 618/15/499 493/15/509 494/15/510 621/15/500
f 621/15/500 494/15/510 495/15/511 624/15/502
f 624/15/502 495/15/511 425/15/512 496/15/513
f 623/15/132 624/15/502 496/15/513 497/15/514
f 622/15/501 623/15/132 497/15/514 498/15/515
f 489/15/516 622/15/501 498/15/515 426/15/517
f 488/15/518 619/15/498 622/15/501 489/15/516
f 487/15/505 616/15/497 619/15/498 488/15/518
f 625/15/519 626/15/520 629/15/521 628/15/522
f 626/15/520 627/15/523 630/15/524 629/15/521
f 628/15/522 629/15/521 632/15/525 631/15/526
f 629/15/521 630/15/524 633/15/527 632/15/525
f 404/15/400 499/15/528 625/15/519 433/15/401
f 499/15/528 500/15/529 626/15/520 625/15/519
f 500/15/529 501/15/530 627/15/523 626/15/520
f 501/15/530 415/15/461 463/15/463 627/15/523
f 627/15/523 463/15/463 464/15/476 630/15/524
f 630/15/524 464/15/476 465/15/474 633/15/527
f 633/15/527 465/15/474 418/15/475 504/15/531
f 632/15/525 633/15/527 504/15/531 503/15/532
f 631/15/526 632/15/525 503/15/532 502/15/533
f 435/15/403 631/15/526 502/15/533 405/15/404
f 434/15/402 628/15/522 631/15/526 435/15/403
f 433/15/401 625/15/519 628/15/522 434/15/402
f 634/15/534 635/15/535 638/15/536 637/15/537
f 635/15/535 636/15/538 639/15/539 638/15/536
f 637/15/537 638/15/536 641/15/540 640/15/541
f 638/15/536 639/15/539 642/15/542 641/15/540
f 403/15/395 427/15/397 634/15/534 505/15/543
f 427/15/397 428/15/410 635/15/535 634/15/534
f 428/15/410 429/15/408 636/15/538 635/15/535
f 429/15/408 406/15/409 508/15/544 636/15/538
f 636/15/538 508/15/544 509/15/545 639/15/539
f 639/15/539 509/15/545 510/15/546 642/15/542
f 642/15/542 510/15/546 425/15/512 495/15/511
f 641/15/540 642/15/542 495/15/511 494/15/510
f 640/15/541 641/15/540 494/15/510 493/15/509
f 507/15/547 640/15/541 493/15/509 424/15/508
f 506/15/548 637/15/537 640/15/541 507/15/547
f 505/15/543 634/15/534 637/15/537 506/15/548
f 643/15/549 644/15/550 647/15/551 646/15/552
f 644/15/550 645/15/553 648/15/554 647/15/551
f 646/15/552 647/15/551 650/15/555 649/15/556
f 647/15/551 648/15/554 651/15/557 650/15/555
f 410/15/433 450/15/431 643/15/549 511/15/558
f 450/15/431 449/15/430 644/15/550 643/15/549
f 449/15/430 448/15/429 645/15/553 644/15/550
f 448/15/429 409/15/428 514/15/559 645/15/553
f 645/15/553 514/15/559 515/15/560 648/15/554
f 648/15/554 515/15/560 516/15/561 651/15/557
f 651/15/557 516/15/561 417/15/470 471/15/469
f 650/15/555 651/15/557 471/15/469 470/15/468
f 649/15/556 650/15/555 470/15/468 469/15/467
f 513/15/562 649/15/556 469/15/467 416/15/466
f 512/15/563 646/15/552 649/15/556 513/15/562
f 511/15/558 643/15/549 646/15/552 512/15/563
f 652/15/564 653/15/565 656/15/566 655/15/567
f 653/15/565 654/15/568 657/15/569 656/15/566
f 655/15/567 656/15/566 659/15/570 658/15/571
f 656/15/566 657/15/569 660/15/572 659/15/570
f 403/15/395 517/15/573 652/15/564 430/15/396
f 517/15/573 518/15/574 653/15/565 652/15/564
f 518/15/574 519/15/575 654/15/568 653/15/565
f 519/15/575 411/15/439 451/15/441 654/15/568
f 654/15/568 451/15/441 452/15/454 657/15/569
f 657/15/569 452/15/454 453/15/452 660/15/572
f 660/15/572 453/15/452 414/15/453 522/15/576
f 659/15/570 660/15/572 522/15/576 521/15/577
f 658/15/571 659/15/570 521/15/577 520/15/578
f 432/15/399 658/15/571 520/15/578 404/15/400
f 431/15/398 655/15/567 658/15/571 432/15/399
f 430/15/396 652/15/564 655/15/567 431/15/398
f 661/15/579 662/15/580 665/15/581 664/15/582
f 662/15/580 663/15/583 666/15/584 665/15/581
f 664/15/582 665/15/581 668/15/585 667/15/586
f 665/15/581 666/15/584 669/15/587 668/15/585
f 409/15/428 447/15/427 661/15/579 523/15/588
f 447/15/427 446/15/426 662/15/580 661/15/579
f 446/15/426 445/15/425 663/15/583 662/15/580
f 445/15/425 408/15/424 526/15/589 663/15/583
f 663/15/583 526/15/589 527/15/590 666/15/584
f 666/15/584 527/15/590 528/15/591 669/15/587
f 669/15/587 528/15/591 421/15/490 483/15/489
f 668/15/585 669/15/587 483/15/489 482/15/488
f 667/15/586 668/15/585 482/15/488 481/15/487
f 525/15/592 667/15/586 481/15/487 420/15/486
f 524/15/593 664/15/582 667/15/586 525/15/592
f 523/15/588 661/15/579 664/15/582 524/15/593
f 670/15/594 671/15/595 674/15/596 673/15/597
f 671/15/595 672/15/598 675/15/599 674/15/596
f 673/15/597 674/15/596 677/15/600 676/15/601
f 674/15/596 675/15/599 678/15/602 677/15/600
f 414/15/453 462/15/451 670/15/594 529/15/603
f 462/15/451 461/15/450 671/15/595 670/15/594
f 461/15/450 460/15/449 672/15/598 671/15/595
f 460/15/449 413/15/448 532/15/604 672/15/598
f 672/15/598 532/15/604 533/15/605 675/15/599
f 675/15/599 533/15/605 534/15/606 678/15/602
f 678/15/602 534/15/606 416/15/466 468/15/465
f 677/15/600 678/15/602 468/15/465 467/15/464
f 676/15/601 677/15/600 467/15/464 466/15/462
f 531/15/607 676/15/601 466/15/462 415/15/461
f 530/15/608 673/15/597 676/15/601 531/15/607
f 529/15/603 670/15/594 673/15/597 530/15/608
f 679/15/609 680/15/610 683/15/611 682/15/612
f 680/15/610 681/15/613 684/15/614 683/15/611
f 682/15/612 683/15/611 686/15/615 685/15/616
f 683/15/611 684/15/614 687/15/617 686/15/615
f 418/15/475 474/15/473 679/15/609 535/15/618
f 474/15/473 473/15/472 680/15/610 679/15/609
f 473/15/472 472/15/471 681/15/613 680/15/610
f 472/15/471 417/15/470 538/15/619 681/15/613
f 681/15/613 538/15/619 539/15/620 684/15/614
f 684/15/614 539/15/620 540/15/621 687/15/617
f 687/15/617 540/15/621 420/15/486 480/15/485
f 686/15/615 687/15/617 480/15/485 479/15/484
f 685/15/616 686/15/615 479/15/484 478/15/482
f 537/15/622 685/15/616 478/15/482 419/15/481
f 536/15/623 682/15/612 685/15/616 537/15/622
f 535/15/618 679/15/609 682/15/612 536/15/623
f 688/15/624 689/15/625 692/15/626 691/15/627
f 689/15/625 690/15/628 693/15/629 692/15/626
f 691/15/627 692/15/626 695/15/630 694/15/631
f 692/15/626 693/15/629 696/15/632 695/15/630
f 407/15/419 439/15/421 688/15/624 541/15/633
f 439/15/421 440/15/434 689/15/625 688/15/624
f 440/15/434 441/15/432 690/15/628 689/15/625
f 441/15/432 410/15/433 544/15/634 690/15/628
f 690/15/628 544/15/634 545/15/635 693/15/629
f 693/15/629 545/15/635 546/15/636 696/15/632
f 696/15/632 546/15/636 413/15/448 459/15/447
f 695/15/630 696/15/632 459/15/447 458/15/446
f 694/15/631 695/15/630 458/15/446 457/15/445
f 543/15/637 694/15/631 457/15/445 412/15/444
f 542/15/638 691/15/627 694/15/631 543/15/637
f 541/15/633 688/15/624 691/15/627 542/15/638
f 697/15/639 698/15/640 701/15/641 700/15/642
f 698/15/640 699/15/643 702/15/644 701/15/641
f 700/15/642 701/15/641 704/15/645 703/15/646
f 701/15/641 702/15/644 705/15/647 704/15/645
f 405/15/404 547/15/648 697/15/639 436/15/405
f 547/15/648 548/15/649 698/15/640 697/15/639
f 548/15/649 549/15/650 699/15/643 698/15/640
f 549/15/650 419/15/481 475/15/483 699/15/643
f 699/15/643 475/15/483 476/15/496 702/15/644
f 702/15/644 476/15/496 477/15/494 705/15/647
f 705/15/647 477/15/494 422/15/495 552/15/651
f 704/15/645 705/15/647 552/15/651 551/15/652
f 703/15/646 704/15/645 551/15/652 550/15/653
f 438/15/407 703/15/646 550/15/653 406/15/409
f 437/15/406 700/15/642 703/15/646 438/15/407
f 436/15/405 697/15/639 700/15/642 437/15/406
f 706/15/654 707/15/655 710/15/656 709/15/657
f 707/15/655 708/15/658 711/15/659 710/15/656
f 709/15/657 710/15/656 713/15/660 712/15/661
f 710/15/656 711/15/659 714/15/662 713/15/660
f 407/15/419 553/15/663 706/15/654 442/15/420
f 553/15/663 554/15/664 707/15/655 706/15/654
f 554/15/664 555/15/665 708/15/658 707/15/655
f 555/15/665 423/15/503 487/15/505 708/15/658
f 708/15/658 487/15/505 488/15/518 711/15/659
f 711/15/659 488/15/518 489/15/516 714/15/662
f 714/15/662 489/15/516 426/15/517 558/15/666
f 713/15/660 714/15/662 558/15/666 557/15/667
f 712/15/661 713/15/660 557/15/667 556/15/668
f 444/15/423 712/15/661 556/15/668 408/15/424
f 443/15/422 709/15/657 712/15/661 444/15/423
f 442/15/420 706/15/654 709/15/657 443/15/422
f 715/15/669 716/15/670 719/15/671 718/15/672
f 716/15/670 717/15/673 720/15/674 719/15/671
f 718/15/672 719/15/671 722/15/675 721/15/676
f 719/15/671 720/15/674 723/15/677 722/15/675
f 411/15/439 559/15/678 715/15/669 454/15/440
f 559/15/678 560/15/679 716/15/670 715/15/669
f 560/15/679 561/15/680 717/15/673 716/15/670
f 561/15/680 424/15/508 492/15/507 717/15/673
f 717/15/673 492/15/507 491/15/506 720/15/674
f 720/15/674 491/15/506 490/15/504 723/15/677
f 723/15/677 490/15/504 423/15/503 564/15/681
f 722/15/675 723/15/677 564/15/681 563/15/682
f 721/15/676 722/15/675 563/15/682 562/15/683
f 456/15/443 721/15/676 562/15/683 412/15/444
f 455/15/442 718/15/672 721/15/676 456/15/443
f 454/15/440 715/15/669 718/15/672 455/15/442
f 724/15/684 725/15/685 728/15/686 727/15/687
f 725/15/685 726/15/688 729/15/689 728/15/686
f 727/15/687 728/15/686 731/15/690 730/15/691
f 728/15/686 729/15/689 732/15/692 731/15/690
f 422/15/495 486/15/493 724/15/684 565/15/693
f 486/15/493 485/15/492 725/15/685 724/15/684
f 485/15/492 484/15/491 726/15/688 725/15/685
f 484/15/491 421/15/490 568/15/694 726/15/688
f 726/15/688 568/15/694 569/15/695 729/15/689
f 729/15/689 569/15/695 570/15/696 732/15/692
f 732/15/692 570/15/696 426/15/517 498/15/515
f 731/15/690 732/15/692 498/15/515 497/15/514
f 730/15/691 731/15/690 497/15/514 496/15/513
f 567/15/697 730/15/691 496/15/513 425/15/512
f 566/15/698 727/15/687 730/15/691 567/15/697
f 565/15/693 724/15/684 727/15/687 566/15/698
f 734/15/699 735/15/700 733/15/701 739/15/702
f 736/15/703 737/15/704 733/15/701 735/15/700
f 738/15/705 739/15/702 733/15/701 737/15/704
f 403/15/395 505/15/543 734/15/699 517/15/573
f 505/15/543 506/15/548 735/15/700 734/15/699
f 517/15/573 734/15/699 739/15/702 518/15/574
f 424/15/508 561/15/680 736/15/703 507/15/547
f 561/15/680 560/15/679 737/15/704 736/15/703
f 507/15/547 736/15/703 735/15/700 506/15/548
f 411/15/439 519/15/575 738/15/705 559/15/678
f 519/15/575 518/15/574 739/15/702 738/15/705
f 559/15/678 738/15/705 737/15/704 560/15/679
f 741/15/706 742/15/707 740/15/708 746/15/709
f 743/15/710 744/15/711 740/15/708 742/15/707
f 745/15/712 746/15/709 740/15/708 744/15/711
f 423/15/503 555/15/665 741/15/706 564/15/681
f 555/15/665 554/15/664 742/15/707 741/15/706
f 564/15/681 741/15/706 746/15/709 563/15/682
f 407/15/419 541/15/633 743/15/710 553/15/663
f 541/15/633 542/15/638 744/15/711 743/15/710
f 553/15/663 743/15/710 742/15/707 554/15/664
f 412/15/444 562/15/683 745/15/712 543/15/637
f 562/15/683 563/15/682 746/15/709 745/15/712
f 543/15/637 745/15/712 744/15/711 542/15/638
f 748/15/713 749/15/714 747/15/715 753/15/716
f 750/15/717 751/15/718 747/15/715 749/15/714
f 752/15/719 753/15/716 747/15/715 751/15/718
f 416/15/466 534/15/606 748/15/713 513/15/562
f 534/15/606 533/15/605 749/15/714 748/15/713
f 513/15/562 748/15/713 753/15/716 512/15/563
f 413/15/448 546/15/636 750/15/717 532/15/604
f 546/15/636 545/15/635 751/15/718 750/15/717
f 532/15/604 750/15/717 749/15/714 533/15/605
f 410/15/433 511/15/558 752/15/719 544/15/634
f 511/15/558 512/15/563 753/15/716 752/15/719
f 544/15/634 752/15/719 751/15/718 545/15/635
f 755/15/720 756/15/721 754/15/722 760/15/723
f 757/15/724 758/15/725 754/15/722 756/15/721
f 759/15/726 760/15/723 754/15/722 758/15/725
f 426/15/517 570/15/696 755/15/720 558/15/666
f 570/15/696 569/15/695 756/15/721 755/15/720
f 558/15/666 755/15/720 760/15/723 557/15/667
f 421/15/490 528/15/591 757/15/724 568/15/694
f 528/15/591 527/15/590 758/15/725 757/15/724
f 568/15/694 757/15/724 756/15/721 569/15/695
f 408/15/424 556/15/668 759/15/726 526/15/589
f 556/15/668 557/15/667 760/15/723 759/15/726
f 526/15/589 759/15/726 758/15/725 527/15/590
f 762/15/727 763/15/728 761/15/729 767/15/730
f 764/15/731 765/15/732 761/15/729 763/15/728
f 766/15/733 767/15/730 761/15/729 765/15/732
f 405/15/404 502/15/533 762/15/727 547/15/648
f 502/15/533 503/15/532 763/15/728 762/15/727
f 547/15/648 762/15/727 767/15/730 548/15/649
f 418/15/475 535/15/618 764/15/731 504/15/531
f 535/15/618 536/15/623 765/15/732 764/15/731
f 504/15/531 764/15/731 763/15/728 503/15/532
f 419/15/481 549/15/650 766/15/733 537/15/622
f 549/15/650 548/15/649 767/15/730 766/15/733
f 537/15/622 766/15/733 765/15/732 536/15/623
f 769/15/734 770/15/735 768/15/736 774/15/737
f 771/15/738 772/15/739 768/15/736 770/15/735
f 773/15/740 774/15/737 768/15/736 772/15/739
f 422/15/495 565/15/693 769/15/734 552/15/651
f 565/15/693 566/15/698 770/15/735 769/15/734
f 552/15/651 769/15/734 774/15/737 551/15/652
f 425/15/512 510/15/546 771/15/738 567/15/697
f 510/15/546 509/15/545 772/15/739 771/15/738
f 567/15/697 771/15/738 770/15/735 566/15/698
f 406/15/409 550/15/653 773/15/740 508/15/544
f 550/15/653 551/15/652 774/15/737 773/15/740
f 508/15/544 773/15/740 772/15/739 509/15/545
f 776/15/741 777/15/742 775/15/743 781/15/744
f 778/15/745 779/15/746 775/15/743 777/15/742
f 780/15/747 781/15/744 775/15/743 779/15/746
f 404/15/400 520/15/578 776/15/741 499/15/528
f 520/15/578 521/15/577 777/15/742 776/15/741
f 499/15/528 776/15/741 781/15/744 500/15/529
f 414/15/453 529/15/603 778/15/745 522/15/576
f 529/15/603 530/15/608 779/15/746 778/15/745
f 522/15/576 778/15/745 777/15/742 521/15/577
f 415/15/461 501/15/530 780/15/747 531/15/607
f 501/15/530 500/15/529 781/15/744 780/15/747
f 531/15/607 780/15/747 779/15/746 530/15/608
f 783/15/748 784/15/749 782/15/750 788/15/751
f 785/15/752 786/15/753 782/15/750 784/15/749
f 787/15/754 788/15/751 782/15/750 786/15/753
f 417/15/470 516/15/561 783/15/748 538/15/619
f 516/15/561 515/15/560 784/15/749 783/15/748
f 538/15/619 783/15/748 788/15/751 539/15/620
f 409/15/428 523/15/588 785/15/752 514/15/559
f 523/15/588 524/15/593 786/15/753 785/15/752
f 514/15/559 785/15/752 784/15/749 515/15/560
f 420/15/486 540/15/621 787/15/754 525/15/592
f 540/15/621 539/15/620 788/15/751 787/15/754
f 525/15/592 787/15/754 786/15/753 524/15/593
