# Blender 4.5.2 LTS
# www.blender.org
mtllib sun_lounger.mtl
o sun_lounger
v 0.234711 -0.004174 0.891136
v 0.234711 0.202417 0.891136
v 0.234711 -0.004174 0.830207
v 0.234711 0.202417 0.830207
v 0.300403 -0.004174 0.891136
v 0.300403 0.202417 0.891136
v 0.300403 -0.004174 0.830207
v 0.300403 0.202417 0.830207
v -0.234711 -0.004174 0.891136
v -0.234711 0.202417 0.891136
v -0.234711 -0.004174 0.830207
v -0.234711 0.202417 0.830207
v -0.300403 -0.004174 0.891136
v -0.300403 0.202417 0.891136
v -0.300403 -0.004174 0.830207
v -0.300403 0.202417 0.830207
v 0.234711 -0.004174 -0.881339
v 0.234711 0.202417 -0.881339
v 0.234711 -0.004174 -0.820410
v 0.234711 0.202417 -0.820410
v 0.300403 -0.004174 -0.881339
v 0.300403 0.202417 -0.881339
v 0.300403 -0.004174 -0.820410
v 0.300403 0.202417 -0.820410
v -0.234711 -0.004174 -0.881339
v -0.234711 0.202417 -0.881339
v -0.234711 -0.004174 -0.820410
v -0.234711 0.202417 -0.820410
v -0.300403 -0.004174 -0.881339
v -0.300403 0.202417 -0.881339
v -0.300403 -0.004174 -0.820410
v -0.300403 0.202417 -0.820410
v 0.335199 0.305180 -0.933336
v -0.348691 0.266307 -0.946828
v 0.335199 0.305180 0.932152
v 0.348691 0.266307 0.945644
v -0.335199 0.305180 -0.933336
v 0.348691 0.266307 -0.946828
v -0.335199 0.305180 0.932152
v -0.348691 0.305180 -0.946828
v 0.274961 0.305180 -0.259734
v -0.274961 0.305180 -0.259734
v 0.274961 0.305180 -0.870122
v -0.274961 0.305180 -0.870122
v 0.274961 0.246424 -0.259734
v -0.274961 0.246424 -0.259734
v 0.274961 0.246424 -0.870122
v -0.274961 0.246424 -0.870122
v 0.335199 0.266307 -0.933336
v -0.335199 0.266307 0.932152
v 0.335199 0.266307 0.932152
v -0.335199 0.266307 -0.933336
v 0.335199 0.187668 -0.933336
v 0.348691 0.305180 -0.946828
v 0.335199 0.187668 0.932152
v 0.348691 0.305180 0.945644
v -0.335199 0.187668 -0.933336
v -0.348691 0.305180 0.945644
v -0.335199 0.187668 0.932152
v -0.348691 0.266307 0.945644
v 0.274961 0.187668 -0.259734
v -0.274961 0.187668 -0.259734
v 0.274961 0.187668 -0.870122
v -0.274961 0.187668 -0.870122
v 0.273680 0.682374 -0.743321
v 0.273680 0.638076 -0.781520
v 0.273680 0.270237 -0.265372
v 0.273680 0.225938 -0.303571
v -0.273680 0.682374 -0.743321
v -0.273680 0.638076 -0.781520
v -0.273680 0.270237 -0.265372
v -0.273680 0.225938 -0.303571
v 0.286480 0.348788 -0.280834
v 0.255546 0.328905 -0.257138
v 0.282335 0.338847 -0.268986
v 0.271013 0.331569 -0.260312
v 0.255546 0.711558 -0.713166
v 0.286480 0.691675 -0.689470
v 0.271013 0.708894 -0.709992
v 0.282335 0.701617 -0.701318
v 0.220935 0.381275 -0.256745
v 0.253118 0.401961 -0.281398
v 0.237026 0.384046 -0.260048
v 0.248806 0.391618 -0.269072
v 0.255427 0.343659 -0.244758
v 0.286480 0.363619 -0.268545
v 0.270953 0.346333 -0.247945
v 0.282319 0.353639 -0.256652
v 0.237884 0.368386 -0.245785
v 0.269799 0.388900 -0.270233
v 0.253841 0.371134 -0.249060
v 0.265523 0.378643 -0.258009
v 0.250611 0.354617 -0.241397
v 0.282010 0.374800 -0.265450
v 0.266310 0.357321 -0.244620
v 0.277803 0.364709 -0.253424
v 0.253118 0.700352 -0.637007
v 0.220935 0.721039 -0.661661
v 0.248806 0.710696 -0.649334
v 0.237026 0.718267 -0.658358
v 0.286480 0.706352 -0.676999
v 0.255427 0.726312 -0.700787
v 0.282319 0.716332 -0.688893
v 0.270953 0.723638 -0.697600
v 0.269799 0.709080 -0.651809
v 0.237884 0.729594 -0.676257
v 0.265523 0.719337 -0.664033
v 0.253841 0.726846 -0.672981
v 0.282010 0.711342 -0.666525
v 0.250611 0.731525 -0.690578
v 0.277803 0.721433 -0.678551
v 0.266310 0.728821 -0.687355
v 0.286480 0.524283 -0.489980
v 0.286480 0.539037 -0.477601
v 0.253118 0.555208 -0.464031
v 0.269799 0.553042 -0.465849
v 0.282010 0.547122 -0.470816
v 0.220935 0.319425 -0.308644
v 0.253118 0.340111 -0.333297
v 0.237026 0.322196 -0.311947
v 0.248806 0.329768 -0.320970
v 0.255427 0.314151 -0.269518
v 0.286480 0.334111 -0.293305
v 0.270953 0.316825 -0.272704
v 0.282319 0.324131 -0.281411
v 0.237884 0.310869 -0.294047
v 0.269799 0.331383 -0.318496
v 0.253841 0.313617 -0.297323
v 0.265523 0.321126 -0.306271
v 0.250611 0.308939 -0.279726
v 0.282010 0.329122 -0.303779
v 0.266310 0.311642 -0.282949
v 0.277803 0.319030 -0.291753
v 0.253118 0.638502 -0.688906
v 0.220935 0.659189 -0.713559
v 0.248806 0.648846 -0.701232
v 0.237026 0.656417 -0.710256
v 0.286480 0.676844 -0.701759
v 0.255427 0.696805 -0.725546
v 0.282319 0.686825 -0.713652
v 0.270953 0.694130 -0.722359
v 0.269799 0.651563 -0.700071
v 0.237884 0.672078 -0.724519
v 0.265523 0.661820 -0.712295
v 0.253841 0.669329 -0.721244
v 0.282010 0.665663 -0.704854
v 0.250611 0.685846 -0.728907
v 0.277803 0.675754 -0.716880
v 0.266310 0.683142 -0.725684
v 0.286480 0.509529 -0.502360
v 0.253118 0.493358 -0.515930
v 0.269799 0.495525 -0.514112
v 0.282010 0.501444 -0.509145
v 0.000000 0.328905 -0.257138
v 0.000000 0.343659 -0.244758
v 0.000000 0.711558 -0.713166
v 0.000000 0.726312 -0.700787
v 0.000000 0.381275 -0.256745
v 0.000000 0.368386 -0.245785
v 0.000000 0.721039 -0.661661
v 0.000000 0.354617 -0.241397
v 0.000000 0.729594 -0.676257
v 0.000000 0.731525 -0.690578
v 0.000000 0.555208 -0.464031
v 0.000000 0.314151 -0.269518
v 0.000000 0.696805 -0.725546
v 0.000000 0.319425 -0.308644
v 0.000000 0.310869 -0.294047
v 0.000000 0.659189 -0.713559
v 0.000000 0.308939 -0.279726
v 0.000000 0.672078 -0.724519
v 0.000000 0.685846 -0.728907
v 0.000000 0.493358 -0.515930
v -0.286480 0.348788 -0.280834
v -0.255546 0.328905 -0.257138
v -0.282335 0.338847 -0.268986
v -0.271013 0.331569 -0.260312
v -0.255546 0.711558 -0.713166
v -0.286480 0.691675 -0.689470
v -0.271013 0.708894 -0.709992
v -0.282335 0.701617 -0.701318
v -0.220935 0.381275 -0.256745
v -0.253118 0.401961 -0.281398
v -0.237026 0.384046 -0.260048
v -0.248806 0.391618 -0.269072
v -0.255427 0.343659 -0.244758
v -0.286480 0.363619 -0.268545
v -0.270953 0.346333 -0.247945
v -0.282319 0.353639 -0.256652
v -0.237884 0.368386 -0.245785
v -0.269799 0.388900 -0.270233
v -0.253841 0.371134 -0.249060
v -0.265523 0.378643 -0.258009
v -0.250611 0.354617 -0.241397
v -0.282010 0.374800 -0.265450
v -0.266310 0.357321 -0.244620
v -0.277803 0.364709 -0.253424
v -0.253118 0.700352 -0.637007
v -0.220935 0.721039 -0.661661
v -0.248806 0.710696 -0.649334
v -0.237026 0.718267 -0.658358
v -0.286480 0.706352 -0.676999
v -0.255427 0.726312 -0.700787
v -0.282319 0.716332 -0.688893
v -0.270953 0.723638 -0.697600
v -0.269799 0.709080 -0.651809
v -0.237884 0.729594 -0.676257
v -0.265523 0.719337 -0.664033
v -0.253841 0.726846 -0.672981
v -0.282010 0.711342 -0.666525
v -0.250611 0.731525 -0.690578
v -0.277803 0.721433 -0.678551
v -0.266310 0.728821 -0.687355
v -0.286480 0.524283 -0.489980
v -0.286480 0.539037 -0.477601
v -0.253118 0.555208 -0.464031
v -0.269799 0.553042 -0.465849
v -0.282010 0.547122 -0.470816
v -0.220935 0.319425 -0.308644
v -0.253118 0.340111 -0.333297
v -0.237026 0.322196 -0.311947
v -0.248806 0.329768 -0.320970
v -0.255427 0.314151 -0.269518
v -0.286480 0.334111 -0.293305
v -0.270953 0.316825 -0.272704
v -0.282319 0.324131 -0.281411
v -0.237884 0.310869 -0.294047
v -0.269799 0.331383 -0.318496
v -0.253841 0.313617 -0.297323
v -0.265523 0.321126 -0.306271
v -0.250611 0.308939 -0.279726
v -0.282010 0.329122 -0.303779
v -0.266310 0.311642 -0.282949
v -0.277803 0.319030 -0.291753
v -0.253118 0.638502 -0.688906
v -0.220935 0.659189 -0.713559
v -0.248806 0.648846 -0.701232
v -0.237026 0.656417 -0.710256
v -0.286480 0.676844 -0.701759
v -0.255427 0.696805 -0.725546
v -0.282319 0.686825 -0.713652
v -0.270953 0.694130 -0.722359
v -0.269799 0.651563 -0.700071
v -0.237884 0.672078 -0.724519
v -0.265523 0.661820 -0.712295
v -0.253841 0.669329 -0.721244
v -0.282010 0.665663 -0.704854
v -0.250611 0.685846 -0.728907
v -0.277803 0.675754 -0.716880
v -0.266310 0.683142 -0.725684
v -0.286480 0.509529 -0.502360
v -0.253118 0.493358 -0.515930
v -0.269799 0.495525 -0.514112
v -0.282010 0.501444 -0.509145
v 0.289687 0.346123 0.875775
v 0.258754 0.346123 0.906709
v 0.285543 0.346123 0.891242
v 0.274220 0.346123 0.902564
v 0.258754 0.346123 -0.255182
v 0.289687 0.346123 -0.224249
v 0.274220 0.346123 -0.251038
v 0.285543 0.346123 -0.239716
v 0.224143 0.386492 0.873347
v 0.256325 0.386492 0.841164
v 0.240234 0.386492 0.869035
v 0.252013 0.386492 0.857255
v 0.258634 0.365382 0.906709
v 0.289687 0.365382 0.875656
v 0.274161 0.365382 0.902548
v 0.285527 0.365382 0.891182
v 0.241091 0.383664 0.890028
v 0.273006 0.383664 0.858113
v 0.257048 0.383664 0.885752
v 0.268730 0.383664 0.874070
v 0.253818 0.375937 0.902239
v 0.285217 0.375937 0.870840
v 0.269518 0.375937 0.898032
v 0.281011 0.375937 0.886539
v 0.256325 0.386492 -0.189638
v 0.224143 0.386492 -0.221820
v 0.252013 0.386492 -0.205729
v 0.240234 0.386492 -0.217509
v 0.289687 0.365382 -0.224130
v 0.258634 0.365382 -0.255182
v 0.285527 0.365382 -0.239656
v 0.274161 0.365382 -0.251022
v 0.273006 0.383664 -0.206586
v 0.241091 0.383664 -0.238501
v 0.268730 0.383664 -0.222544
v 0.257048 0.383664 -0.234225
v 0.285217 0.375937 -0.219313
v 0.253818 0.375937 -0.250712
v 0.281010 0.375937 -0.235013
v 0.269518 0.375937 -0.246506
v 0.289687 0.346123 0.314547
v 0.289687 0.365382 0.314547
v 0.256325 0.386492 0.314547
v 0.273006 0.383664 0.314547
v 0.285217 0.375937 0.314547
v 0.224143 0.305753 0.873347
v 0.256325 0.305753 0.841164
v 0.240234 0.305753 0.869035
v 0.252013 0.305753 0.857255
v 0.258634 0.326863 0.906709
v 0.289687 0.326863 0.875656
v 0.274161 0.326863 0.902548
v 0.285527 0.326863 0.891182
v 0.241091 0.308581 0.890028
v 0.273006 0.308581 0.858113
v 0.257048 0.308581 0.885752
v 0.268730 0.308581 0.874070
v 0.253818 0.316308 0.902239
v 0.285217 0.316308 0.870840
v 0.269518 0.316308 0.898032
v 0.281011 0.316308 0.886539
v 0.256325 0.305753 -0.189638
v 0.224143 0.305753 -0.221820
v 0.252013 0.305753 -0.205729
v 0.240234 0.305753 -0.217509
v 0.289687 0.326863 -0.224130
v 0.258634 0.326863 -0.255182
v 0.285527 0.326863 -0.239656
v 0.274161 0.326863 -0.251022
v 0.273006 0.308581 -0.206586
v 0.241091 0.308581 -0.238501
v 0.268730 0.308581 -0.222544
v 0.257048 0.308581 -0.234225
v 0.285217 0.316308 -0.219313
v 0.253818 0.316308 -0.250712
v 0.281010 0.316308 -0.235013
v 0.269518 0.316308 -0.246506
v 0.289687 0.326863 0.314547
v 0.256325 0.305753 0.314547
v 0.273006 0.308581 0.314547
v 0.285217 0.316308 0.314547
v 0.000000 0.346123 0.906709
v 0.000000 0.365382 0.906709
v 0.000000 0.346123 -0.255182
v 0.000000 0.365382 -0.255182
v 0.000000 0.386492 0.873347
v 0.000000 0.383664 0.890028
v 0.000000 0.386492 -0.221820
v 0.000000 0.375937 0.902239
v 0.000000 0.383664 -0.238501
v 0.000000 0.375937 -0.250712
v 0.000000 0.386492 0.314547
v 0.000000 0.326863 0.906709
v 0.000000 0.326863 -0.255182
v 0.000000 0.305753 0.873347
v 0.000000 0.308581 0.890028
v 0.000000 0.305753 -0.221820
v 0.000000 0.316308 0.902239
v 0.000000 0.308581 -0.238501
v 0.000000 0.316308 -0.250712
v 0.000000 0.305753 0.314547
v -0.289687 0.346123 0.875775
v -0.258754 0.346123 0.906709
v -0.285543 0.346123 0.891242
v -0.274220 0.346123 0.902564
v -0.258754 0.346123 -0.255182
v -0.289687 0.346123 -0.224249
v -0.274220 0.346123 -0.251038
v -0.285543 0.346123 -0.239716
v -0.224143 0.386492 0.873347
v -0.256325 0.386492 0.841164
v -0.240234 0.386492 0.869035
v -0.252013 0.386492 0.857255
v -0.258634 0.365382 0.906709
v -0.289687 0.365382 0.875656
v -0.274161 0.365382 0.902548
v -0.285527 0.365382 0.891182
v -0.241091 0.383664 0.890028
v -0.273006 0.383664 0.858113
v -0.257048 0.383664 0.885752
v -0.268730 0.383664 0.874070
v -0.253818 0.375937 0.902239
v -0.285217 0.375937 0.870840
v -0.269518 0.375937 0.898032
v -0.281011 0.375937 0.886539
v -0.256325 0.386492 -0.189638
v -0.224143 0.386492 -0.221820
v -0.252013 0.386492 -0.205729
v -0.240234 0.386492 -0.217509
v -0.289687 0.365382 -0.224130
v -0.258634 0.365382 -0.255182
v -0.285527 0.365382 -0.239656
v -0.274161 0.365382 -0.251022
v -0.273006 0.383664 -0.206586
v -0.241091 0.383664 -0.238501
v -0.268730 0.383664 -0.222544
v -0.257048 0.383664 -0.234225
v -0.285217 0.375937 -0.219313
v -0.253818 0.375937 -0.250712
v -0.281010 0.375937 -0.235013
v -0.269518 0.375937 -0.246506
v -0.289687 0.346123 0.314547
v -0.289687 0.365382 0.314547
v -0.256325 0.386492 0.314547
v -0.273006 0.383664 0.314547
v -0.285217 0.375937 0.314547
v -0.224143 0.305753 0.873347
v -0.256325 0.305753 0.841164
v -0.240234 0.305753 0.869035
v -0.252013 0.305753 0.857255
v -0.258634 0.326863 0.906709
v -0.289687 0.326863 0.875656
v -0.274161 0.326863 0.902548
v -0.285527 0.326863 0.891182
v -0.241091 0.308581 0.890028
v -0.273006 0.308581 0.858113
v -0.257048 0.308581 0.885752
v -0.268730 0.308581 0.874070
v -0.253818 0.316308 0.902239
v -0.285217 0.316308 0.870840
v -0.269518 0.316308 0.898032
v -0.281011 0.316308 0.886539
v -0.256325 0.305753 -0.189638
v -0.224143 0.305753 -0.221820
v -0.252013 0.305753 -0.205729
v -0.240234 0.305753 -0.217509
v -0.289687 0.326863 -0.224130
v -0.258634 0.326863 -0.255182
v -0.285527 0.326863 -0.239656
v -0.274161 0.326863 -0.251022
v -0.273006 0.308581 -0.206586
v -0.241091 0.308581 -0.238501
v -0.268730 0.308581 -0.222544
v -0.257048 0.308581 -0.234225
v -0.285217 0.316308 -0.219313
v -0.253818 0.316308 -0.250712
v -0.281010 0.316308 -0.235013
v -0.269518 0.316308 -0.246506
v -0.289687 0.326863 0.314547
v -0.256325 0.305753 0.314547
v -0.273006 0.308581 0.314547
v -0.285217 0.316308 0.314547
vn -1.0000 -0.0000 -0.0000
vn -0.0000 -0.0000 -1.0000
vn 1.0000 -0.0000 -0.0000
vn -0.0000 -0.0000 1.0000
vn -0.0000 -1.0000 -0.0000
vn -0.0000 1.0000 -0.0000
vn -0.0000 0.7573 0.6530
vn -0.0000 -0.6530 0.7573
vn -0.0000 -0.7573 -0.6530
vn -0.0000 0.6530 -0.7573
vn 0.0849 0.7671 0.6359
vn 0.3441 0.7399 0.5780
vn 0.2640 0.8209 0.5064
vn 0.0651 0.7851 0.6160
vn 0.1397 0.9008 0.4112
vn 0.0328 0.8058 0.5912
vn 0.0328 0.9400 0.3395
vn 0.0059 0.8179 0.5754
vn 0.7336 0.5751 0.3620
vn 0.6057 0.7701 0.2004
vn 0.3415 0.9399 -0.0020
vn 0.0923 0.9873 -0.1293
vn 0.9650 0.2597 0.0362
vn 0.8329 0.5112 -0.2120
vn 0.4910 0.7310 -0.4739
vn 0.1392 0.7905 -0.5964
vn 0.0059 0.7087 0.7055
vn 0.0328 0.4976 0.8668
vn 0.1397 0.5614 0.8157
vn 0.0328 0.7222 0.6909
vn 0.2640 0.6413 0.7205
vn 0.0651 0.7429 0.6662
vn 0.3441 0.6977 0.6283
vn 0.0849 0.7595 0.6450
vn 0.0923 0.0442 0.9947
vn 0.3415 0.1612 0.9259
vn 0.6057 0.3310 0.7236
vn 0.7336 0.4564 0.5035
vn 0.1392 -0.4500 0.8821
vn 0.4910 -0.3398 0.8022
vn 0.8329 -0.1200 0.5403
vn 0.9650 0.0808 0.2495
vn 0.9914 -0.0842 0.1004
vn 0.8658 -0.3216 0.3833
vn 0.5003 -0.5566 0.6633
vn 0.1310 -0.6372 0.7594
vn 0.9914 0.0842 -0.1004
vn 0.8658 0.3216 -0.3833
vn 0.5003 0.5566 -0.6633
vn 0.1310 0.6372 -0.7594
vn -0.0000 0.6428 -0.7660
vn -0.0000 0.7823 -0.6229
vn 0.9800 0.1524 0.1279
vn -0.0000 0.8173 0.5763
vn -0.0000 0.9454 0.3260
vn -0.0000 0.9857 -0.1683
vn 0.0839 0.7633 0.6405
vn 0.3579 0.7153 0.6002
vn 0.7625 0.4956 0.4159
vn 0.0849 -0.7595 -0.6450
vn 0.0651 -0.7429 -0.6662
vn 0.2640 -0.6413 -0.7205
vn 0.3441 -0.6977 -0.6283
vn 0.0328 -0.7222 -0.6909
vn 0.1397 -0.5614 -0.8157
vn 0.0059 -0.7087 -0.7055
vn 0.0329 -0.4976 -0.8668
vn 0.6057 -0.3310 -0.7236
vn 0.7336 -0.4564 -0.5035
vn 0.3415 -0.1612 -0.9259
vn 0.0923 -0.0442 -0.9947
vn 0.8329 0.1200 -0.5403
vn 0.9650 -0.0808 -0.2495
vn 0.4910 0.3398 -0.8022
vn 0.1392 0.4500 -0.8821
vn 0.0059 -0.8179 -0.5754
vn 0.0328 -0.8058 -0.5912
vn 0.1397 -0.9008 -0.4112
vn 0.0329 -0.9400 -0.3395
vn 0.0651 -0.7851 -0.6160
vn 0.2640 -0.8209 -0.5064
vn 0.0849 -0.7671 -0.6359
vn 0.3442 -0.7399 -0.5780
vn 0.3415 -0.9399 0.0020
vn 0.0923 -0.9873 0.1293
vn 0.6057 -0.7701 -0.2004
vn 0.7336 -0.5751 -0.3620
vn 0.4910 -0.7310 0.4739
vn 0.1392 -0.7905 0.5964
vn 0.8329 -0.5112 0.2120
vn 0.9650 -0.2597 -0.0362
vn -0.0000 0.4775 -0.8786
vn 0.9800 -0.1524 -0.1279
vn -0.0000 -0.7094 -0.7048
vn -0.0000 -0.4852 -0.8744
vn -0.0000 -0.0055 -1.0000
vn 0.0839 -0.7633 -0.6405
vn 0.3579 -0.7153 -0.6002
vn 0.7625 -0.4956 -0.4159
vn -0.0000 -0.7660 -0.6428
vn -0.0000 -0.9857 0.1683
vn -0.0000 -0.9454 -0.3260
vn -0.0000 -0.7823 0.6229
vn -0.0000 -0.8173 -0.5763
vn -0.0000 -0.6428 0.7660
vn -0.0000 0.7660 0.6428
vn -0.0000 0.4852 0.8744
vn -0.0000 0.0055 1.0000
vn -0.0000 -0.4775 0.8786
vn -0.0000 0.7094 0.7048
vn -0.0849 0.7671 0.6359
vn -0.0651 0.7851 0.6160
vn -0.2640 0.8209 0.5064
vn -0.3441 0.7399 0.5780
vn -0.0328 0.8058 0.5912
vn -0.1397 0.9008 0.4112
vn -0.0059 0.8179 0.5754
vn -0.0328 0.9400 0.3395
vn -0.6057 0.7701 0.2004
vn -0.7336 0.5751 0.3620
vn -0.3415 0.9399 -0.0020
vn -0.0923 0.9873 -0.1293
vn -0.8329 0.5112 -0.2120
vn -0.9650 0.2597 0.0362
vn -0.4910 0.7310 -0.4739
vn -0.1392 0.7905 -0.5964
vn -0.0059 0.7087 0.7055
vn -0.0328 0.7222 0.6909
vn -0.1397 0.5614 0.8157
vn -0.0328 0.4976 0.8668
vn -0.0651 0.7429 0.6662
vn -0.2640 0.6413 0.7205
vn -0.0849 0.7595 0.6450
vn -0.3441 0.6977 0.6283
vn -0.3415 0.1612 0.9259
vn -0.0923 0.0442 0.9947
vn -0.6057 0.3310 0.7236
vn -0.7336 0.4564 0.5035
vn -0.4910 -0.3398 0.8022
vn -0.1392 -0.4500 0.8821
vn -0.8329 -0.1200 0.5403
vn -0.9650 0.0808 0.2495
vn -0.9914 -0.0842 0.1004
vn -0.8658 -0.3216 0.3833
vn -0.5003 -0.5566 0.6633
vn -0.1310 -0.6372 0.7594
vn -0.8658 0.3216 -0.3833
vn -0.9914 0.0842 -0.1004
vn -0.5003 0.5566 -0.6633
vn -0.1310 0.6372 -0.7594
vn -0.9800 0.1524 0.1279
vn -0.0839 0.7633 0.6405
vn -0.3579 0.7153 0.6002
vn -0.7625 0.4956 0.4159
vn -0.0849 -0.7595 -0.6450
vn -0.3441 -0.6977 -0.6283
vn -0.2640 -0.6413 -0.7205
vn -0.0651 -0.7429 -0.6662
vn -0.1397 -0.5614 -0.8157
vn -0.0328 -0.7222 -0.6909
vn -0.0329 -0.4976 -0.8668
vn -0.0059 -0.7087 -0.7055
vn -0.7336 -0.4564 -0.5035
vn -0.6057 -0.3310 -0.7236
vn -0.3415 -0.1612 -0.9259
vn -0.0923 -0.0442 -0.9947
vn -0.9650 -0.0808 -0.2495
vn -0.8329 0.1200 -0.5403
vn -0.4910 0.3398 -0.8022
vn -0.1392 0.4500 -0.8821
vn -0.0059 -0.8179 -0.5754
vn -0.0329 -0.9400 -0.3395
vn -0.1397 -0.9008 -0.4112
vn -0.0328 -0.8058 -0.5912
vn -0.2640 -0.8209 -0.5064
vn -0.0651 -0.7851 -0.6160
vn -0.3442 -0.7399 -0.5780
vn -0.0849 -0.7671 -0.6359
vn -0.0923 -0.9873 0.1293
vn -0.3415 -0.9399 0.0020
vn -0.6057 -0.7701 -0.2004
vn -0.7336 -0.5751 -0.3620
vn -0.1392 -0.7905 0.5964
vn -0.4910 -0.7310 0.4739
vn -0.8329 -0.5112 0.2120
vn -0.9650 -0.2597 -0.0362
vn -0.9800 -0.1524 -0.1279
vn -0.0839 -0.7633 -0.6405
vn -0.3579 -0.7153 -0.6002
vn -0.7625 -0.4956 -0.4159
vn 0.0849 0.9964 -0.0059
vn 0.3442 0.9383 -0.0329
vn 0.2640 0.9544 -0.1397
vn 0.0651 0.9973 -0.0328
vn 0.1397 0.9544 -0.2640
vn 0.0328 0.9973 -0.0651
vn 0.0329 0.9383 -0.3441
vn 0.0059 0.9964 -0.0849
vn 0.7336 0.6732 -0.0923
vn 0.6057 0.7187 -0.3415
vn 0.3415 0.7187 -0.6057
vn 0.0923 0.6732 -0.7336
vn 0.9650 0.2223 -0.1392
vn 0.8329 0.2554 -0.4910
vn 0.4910 0.2554 -0.8329
vn 0.1392 0.2223 -0.9650
vn 0.0059 0.9964 0.0849
vn 0.0329 0.9383 0.3441
vn 0.1397 0.9544 0.2640
vn 0.0328 0.9973 0.0651
vn 0.2640 0.9544 0.1397
vn 0.0651 0.9973 0.0328
vn 0.3442 0.9383 0.0329
vn 0.0849 0.9964 0.0059
vn 0.0923 0.6732 0.7336
vn 0.3415 0.7187 0.6057
vn 0.6057 0.7187 0.3415
vn 0.7336 0.6732 0.0923
vn 0.1392 0.2222 0.9650
vn 0.4910 0.2553 0.8329
vn 0.8329 0.2553 0.4910
vn 0.9650 0.2223 0.1392
vn 0.9914 -0.0000 0.1310
vn 0.8658 -0.0000 0.5003
vn 0.5003 -0.0000 0.8658
vn 0.1310 -0.0000 0.9914
vn 0.9914 -0.0000 -0.1310
vn 0.8658 -0.0000 -0.5003
vn 0.5003 -0.0000 -0.8658
vn 0.1310 -0.0000 -0.9914
vn -0.0000 0.1989 -0.9800
vn 0.9800 0.1989 -0.0000
vn -0.0000 0.9965 -0.0839
vn -0.0000 0.9337 -0.3579
vn -0.0000 0.6470 -0.7625
vn 0.0839 0.9965 -0.0000
vn 0.3579 0.9337 -0.0000
vn 0.7625 0.6470 -0.0000
vn 0.0849 -0.9964 -0.0059
vn 0.0651 -0.9973 -0.0328
vn 0.2640 -0.9544 -0.1397
vn 0.3441 -0.9383 -0.0328
vn 0.0328 -0.9973 -0.0651
vn 0.1397 -0.9544 -0.2640
vn 0.0059 -0.9964 -0.0849
vn 0.0328 -0.9383 -0.3441
vn 0.6057 -0.7187 -0.3415
vn 0.7336 -0.6732 -0.0923
vn 0.3415 -0.7187 -0.6057
vn 0.0923 -0.6732 -0.7336
vn 0.8329 -0.2554 -0.4910
vn 0.9650 -0.2223 -0.1392
vn 0.4910 -0.2554 -0.8329
vn 0.1392 -0.2223 -0.9650
vn 0.0059 -0.9964 0.0849
vn 0.0328 -0.9973 0.0651
vn 0.1397 -0.9544 0.2640
vn 0.0329 -0.9383 0.3442
vn 0.0651 -0.9973 0.0328
vn 0.2640 -0.9544 0.1397
vn 0.0849 -0.9964 0.0059
vn 0.3441 -0.9383 0.0328
vn 0.3415 -0.7187 0.6057
vn 0.0923 -0.6732 0.7336
vn 0.6057 -0.7187 0.3415
vn 0.7336 -0.6732 0.0923
vn 0.4910 -0.2554 0.8329
vn 0.1392 -0.2222 0.9650
vn 0.8329 -0.2554 0.4910
vn 0.9650 -0.2222 0.1392
vn -0.0000 -0.1989 -0.9800
vn 0.9800 -0.1989 -0.0000
vn -0.0000 -0.9965 -0.0839
vn -0.0000 -0.9337 -0.3579
vn -0.0000 -0.6470 -0.7625
vn 0.0839 -0.9965 -0.0000
vn 0.3579 -0.9337 -0.0000
vn 0.7625 -0.6470 -0.0000
vn -0.0000 -0.6470 0.7625
vn -0.0000 -0.9337 0.3579
vn -0.0000 -0.1990 0.9800
vn -0.0000 -0.9965 0.0839
vn -0.0000 0.9337 0.3579
vn -0.0000 0.6470 0.7625
vn -0.0000 0.1989 0.9800
vn -0.0000 0.9965 0.0839
vn -0.0849 0.9964 -0.0059
vn -0.0651 0.9973 -0.0328
vn -0.2640 0.9544 -0.1397
vn -0.3442 0.9383 -0.0329
vn -0.0328 0.9973 -0.0651
vn -0.1397 0.9544 -0.2640
vn -0.0059 0.9964 -0.0849
vn -0.0329 0.9383 -0.3441
vn -0.6057 0.7187 -0.3415
vn -0.7336 0.6732 -0.0923
vn -0.3415 0.7187 -0.6057
vn -0.0923 0.6732 -0.7336
vn -0.8329 0.2554 -0.4910
vn -0.9650 0.2223 -0.1392
vn -0.4910 0.2554 -0.8329
vn -0.1392 0.2223 -0.9650
vn -0.0059 0.9964 0.0849
vn -0.0328 0.9973 0.0651
vn -0.1397 0.9544 0.2640
vn -0.0329 0.9383 0.3441
vn -0.0651 0.9973 0.0328
vn -0.2640 0.9544 0.1397
vn -0.0849 0.9964 0.0059
vn -0.3442 0.9383 0.0329
vn -0.3415 0.7187 0.6057
vn -0.0923 0.6732 0.7336
vn -0.6057 0.7187 0.3415
vn -0.7336 0.6732 0.0923
vn -0.4910 0.2553 0.8329
vn -0.1392 0.2222 0.9650
vn -0.8329 0.2553 0.4910
vn -0.9650 0.2223 0.1392
vn -0.9914 -0.0000 0.1310
vn -0.8658 -0.0000 0.5003
vn -0.5003 -0.0000 0.8658
vn -0.1310 -0.0000 0.9914
vn -0.8658 -0.0000 -0.5003
vn -0.9914 -0.0000 -0.1310
vn -0.5003 -0.0000 -0.8658
vn -0.1310 -0.0000 -0.9914
vn -0.9800 0.1989 -0.0000
vn -0.0839 0.9965 -0.0000
vn -0.3579 0.9337 -0.0000
vn -0.7625 0.6470 -0.0000
vn -0.0849 -0.9964 -0.0059
vn -0.3441 -0.9383 -0.0328
vn -0.2640 -0.9544 -0.1397
vn -0.0651 -0.9973 -0.0328
vn -0.1397 -0.9544 -0.2640
vn -0.0328 -0.9973 -0.0651
vn -0.0328 -0.9383 -0.3441
vn -0.0059 -0.9964 -0.0849
vn -0.7336 -0.6732 -0.0923
vn -0.6057 -0.7187 -0.3415
vn -0.3415 -0.7187 -0.6057
vn -0.0923 -0.6732 -0.7336
vn -0.9650 -0.2223 -0.1392
vn -0.8329 -0.2554 -0.4910
vn -0.4910 -0.2554 -0.8329
vn -0.1392 -0.2223 -0.9650
vn -0.0059 -0.9964 0.0849
vn -0.0329 -0.9383 0.3442
vn -0.1397 -0.9544 0.2640
vn -0.0328 -0.9973 0.0651
vn -0.2640 -0.9544 0.1397
vn -0.0651 -0.9973 0.0328
vn -0.3441 -0.9383 0.0328
vn -0.0849 -0.9964 0.0059
vn -0.0923 -0.6732 0.7336
vn -0.3415 -0.7187 0.6057
vn -0.6057 -0.7187 0.3415
vn -0.7336 -0.6732 0.0923
vn -0.1392 -0.2222 0.9650
vn -0.4910 -0.2554 0.8329
vn -0.8329 -0.2554 0.4910
vn -0.9650 -0.2222 0.1392
vn -0.9800 -0.1989 -0.0000
vn -0.0839 -0.9965 -0.0000
vn -0.3579 -0.9337 -0.0000
vn -0.7625 -0.6470 -0.0000
vt 0.375000 0.000000
vt 0.625000 0.000000
vt 0.625000 0.250000
vt 0.375000 0.250000
vt 0.625000 0.500000
vt 0.375000 0.500000
vt 0.625000 0.750000
vt 0.375000 0.750000
vt 0.625000 1.000000
vt 0.375000 1.000000
vt 0.125000 0.500000
vt 0.125000 0.750000
vt 0.469358 0.250000
vt 0.469358 0.000000
vt 0.469358 0.750000
vt 0.469358 0.500000
vt 0.469358 1.000000
vt 0.875000 0.500000
vt 0.875000 0.750000
vt 0.911651 0.881551
vt 0.934574 0.907181
vt 0.927903 0.928956
vt 0.904926 0.904854
vt 0.911918 0.944697
vt 0.888146 0.921498
vt 0.889972 0.951104
vt 0.864782 0.927725
vt 0.953394 0.926961
vt 0.945531 0.947598
vt 0.930397 0.962859
vt 0.909483 0.970355
vt 0.968963 0.937885
vt 0.958085 0.959523
vt 0.941788 0.975456
vt 0.920159 0.986214
vt 0.863005 0.082342
vt 0.888772 0.059426
vt 0.910636 0.066296
vt 0.886281 0.089084
vt 0.926201 0.082508
vt 0.902725 0.106098
vt 0.932411 0.104450
vt 0.908918 0.129524
vt 0.908761 0.040559
vt 0.929545 0.048559
vt 0.944343 0.064225
vt 0.951727 0.085094
vt 0.919823 0.024904
vt 0.941259 0.036205
vt 0.957212 0.052573
vt 0.967593 0.074521
vt 0.997679 0.061555
vt 0.982550 0.034396
vt 0.961777 0.011257
vt 0.934390 -0.005353
vt 0.998678 0.951541
vt 0.982913 0.978260
vt 0.961647 1.000808
vt 0.933978 1.016705
vt 0.498563 1.018851
vt 0.498819 0.988328
vt 1.001099 0.519454
vt 0.970710 0.519076
vt 0.499345 0.922309
vt 0.499141 0.948172
vt 0.498963 0.970445
vt 0.904891 0.518271
vt 0.930683 0.518585
vt 0.952887 0.518857
vt 0.916130 0.137153
vt 0.909501 0.113886
vt 0.932425 0.089747
vt 0.939107 0.111552
vt 0.892567 0.097370
vt 0.916361 0.074044
vt 0.869121 0.091052
vt 0.894373 0.067643
vt 0.950144 0.070961
vt 0.957966 0.091739
vt 0.934720 0.055896
vt 0.913895 0.048351
vt 0.962820 0.059266
vt 0.973560 0.080871
vt 0.946410 0.043413
vt 0.924660 0.032457
vt 0.864463 0.930481
vt 0.887799 0.923677
vt 0.912105 0.946587
vt 0.890228 0.953412
vt 0.904406 0.906829
vt 0.927749 0.930469
vt 0.910552 0.883470
vt 0.934009 0.908542
vt 0.930825 0.964312
vt 0.910162 0.972306
vt 0.945920 0.948899
vt 0.953292 0.927943
vt 0.942787 0.976543
vt 0.921263 0.987974
vt 0.958855 0.960325
vt 0.969131 0.938478
vt 0.999180 0.951413
vt 0.984091 0.978503
vt 0.963284 1.001602
vt 0.935854 1.018243
vt 0.987643 0.040554
vt 1.003318 0.067299
vt 0.966352 0.017933
vt 0.938598 0.001901
vt 0.498253 -0.002409
vt 0.498538 0.028237
vt 1.001172 0.497632
vt 0.970784 0.497967
vt 0.499154 0.094490
vt 0.498912 0.068537
vt 0.498704 0.046184
vt 0.904960 0.498685
vt 0.930754 0.498405
vt 0.952960 0.498162
vt 0.502987 0.502510
vt 0.507394 0.978059
vt 0.507182 0.955718
vt 0.507564 0.996001
vt 0.506937 0.929785
vt 0.507853 1.026641
vt 0.503086 0.514226
vt 0.507631 0.060688
vt 0.507862 0.038339
vt 0.508048 0.020391
vt 0.507363 0.086630
vt 0.508366 -0.010260
vt 0.100517 0.869980
vt 0.106757 0.893373
vt 0.083457 0.917155
vt 0.077105 0.895224
vt 0.123408 0.910169
vt 0.099266 0.933105
vt 0.146717 0.916873
vt 0.121116 0.939836
vt 0.065519 0.935693
vt 0.057899 0.914762
vt 0.080648 0.951019
vt 0.101324 0.958771
vt 0.052828 0.947131
vt 0.042045 0.925467
vt 0.068720 0.963509
vt 0.090404 0.974401
vt 0.147236 0.079398
vt 0.123760 0.085779
vt 0.099823 0.062384
vt 0.121863 0.055951
vt 0.106832 0.102345
vt 0.083901 0.078277
vt 0.100259 0.125613
vt 0.077241 0.100102
vt 0.081260 0.044230
vt 0.102234 0.036651
vt 0.066120 0.059604
vt 0.058298 0.080343
vt 0.069790 0.031618
vt 0.091485 0.020752
vt 0.053476 0.047671
vt 0.042625 0.069435
vt 0.012759 0.055829
vt 0.028484 0.028941
vt 0.049773 0.006213
vt 0.077537 -0.009831
vt 0.027396 0.966995
vt 0.011530 0.939288
vt 0.049931 0.988352
vt 0.076716 1.004191
vt 0.004691 0.509965
vt 0.035188 0.510162
vt 0.101224 0.510571
vt 0.075347 0.510412
vt 0.053071 0.510274
vt 0.093209 0.134520
vt 0.069806 0.109328
vt 0.076112 0.087401
vt 0.099498 0.111105
vt 0.091772 0.071299
vt 0.116005 0.094157
vt 0.113640 0.064518
vt 0.139301 0.087502
vt 0.050570 0.089876
vt 0.057977 0.068940
vt 0.073089 0.053556
vt 0.093755 0.045601
vt 0.034764 0.079311
vt 0.045067 0.057497
vt 0.061153 0.041311
vt 0.082685 0.029918
vt 0.141130 0.934799
vt 0.115858 0.958220
vt 0.093873 0.951807
vt 0.117725 0.928539
vt 0.077942 0.935964
vt 0.100937 0.911874
vt 0.071277 0.914140
vt 0.094263 0.888581
vt 0.096290 0.977478
vt 0.075483 0.969868
vt 0.060106 0.954731
vt 0.052347 0.933908
vt 0.085483 0.993351
vt 0.063748 0.982319
vt 0.047381 0.966396
vt 0.036702 0.944738
vt 0.006892 0.958230
vt 0.022481 0.985041
vt 0.043715 1.007757
vt 0.071456 1.023890
vt 0.004751 0.066330
vt 0.019874 0.039287
vt 0.040702 0.016231
vt 0.068144 -0.000369
vt 0.004726 0.506927
vt 0.035116 0.506695
vt 0.100943 0.506183
vt 0.075148 0.506384
vt 0.052942 0.506557
vt 0.104147 -0.278861
vt 0.081029 -0.302782
vt 0.086589 -0.323914
vt 0.109468 -0.301718
vt 0.101234 -0.339466
vt 0.124546 -0.318336
vt 0.121755 -0.346261
vt 0.145949 -0.325244
vt 0.062233 -0.321153
vt 0.069127 -0.341188
vt 0.083142 -0.356204
vt 0.102800 -0.363929
vt 0.046885 -0.331182
vt 0.056779 -0.352260
vt 0.071965 -0.367910
vt 0.092291 -0.378686
vt 0.143306 1.316622
vt 0.119039 1.337680
vt 0.098487 1.330883
vt 0.121873 1.309671
vt 0.083926 1.315200
vt 0.106824 1.293051
vt 0.078384 1.294047
vt 0.101544 1.270190
vt 0.100023 1.355355
vt 0.080351 1.347569
vt 0.066360 1.332476
vt 0.059515 1.312386
vt 0.089464 1.370120
vt 0.069122 1.359263
vt 0.053956 1.343532
vt 0.044113 1.322388
vt 0.015159 1.334738
vt 0.029659 1.360861
vt 0.049538 1.382972
vt 0.075621 1.398679
vt 0.018004 -0.343601
vt 0.032579 -0.369635
vt 0.052490 -0.391625
vt 0.078548 -0.407213
vt 0.497826 -0.409206
vt 0.497830 -0.380634
vt 0.012882 0.479080
vt 0.041641 0.479121
vt 0.497838 -0.318918
vt 0.497835 -0.343106
vt 0.497832 -0.363914
vt 0.104575 0.479207
vt 0.079871 0.479174
vt 0.058660 0.479145
vt 0.894246 -0.270648
vt 0.888893 -0.293499
vt 0.911721 -0.315776
vt 0.917346 -0.294604
vt 0.873796 -0.310089
vt 0.897010 -0.331250
vt 0.852406 -0.316960
vt 0.876546 -0.337974
vt 0.929325 -0.333020
vt 0.936169 -0.313013
vt 0.915104 -0.347825
vt 0.895445 -0.355596
vt 0.941549 -0.344112
vt 0.951513 -0.323067
vt 0.926266 -0.359632
vt 0.905923 -0.370340
vt 0.845086 1.317454
vt 0.866553 1.310451
vt 0.889947 1.331734
vt 0.869372 1.338522
vt 0.881764 1.293903
vt 0.904581 1.316091
vt 0.886928 1.271088
vt 0.910137 1.294915
vt 0.907949 1.348402
vt 0.888380 1.356220
vt 0.922226 1.333501
vt 0.929033 1.313289
vt 0.919453 1.359969
vt 0.899011 1.371004
vt 0.934721 1.344337
vt 0.944446 1.323243
vt 0.973421 1.335528
vt 0.958987 1.361649
vt 0.939085 1.383792
vt 0.912938 1.399594
vt 0.965651 -0.361583
vt 0.980370 -0.335590
vt 0.945621 -0.383432
vt 0.919550 -0.398863
vt 0.493292 -0.401452
vt 0.493306 -0.372922
vt 0.978770 0.486427
vt 0.949999 0.486496
vt 0.493335 -0.311286
vt 0.493324 -0.335444
vt 0.493314 -0.356226
vt 0.887040 0.486643
vt 0.911753 0.486587
vt 0.932972 0.486537
vt 0.493710 0.487123
vt 0.494077 1.363440
vt 0.494076 1.342581
vt 0.494077 1.380201
vt 0.494076 1.318337
vt 0.494078 1.408850
vt 0.497930 0.479509
vt 0.497994 1.334839
vt 0.497987 1.355684
vt 0.497981 1.372435
vt 0.498002 1.310613
vt 0.497971 1.401063
vt 0.896324 -0.269408
vt 0.890998 -0.292265
vt 0.913874 -0.314468
vt 0.919438 -0.293336
vt 0.875915 -0.308880
vt 0.899224 -0.330017
vt 0.854510 -0.315783
vt 0.878700 -0.336808
vt 0.931333 -0.331748
vt 0.938232 -0.311712
vt 0.917313 -0.346761
vt 0.897652 -0.354481
vt 0.943679 -0.342823
vt 0.953579 -0.321746
vt 0.928488 -0.358470
vt 0.908158 -0.369242
vt 0.855080 1.309670
vt 0.876538 1.302667
vt 0.899949 1.323946
vt 0.879374 1.330739
vt 0.891737 1.286122
vt 0.914533 1.308270
vt 0.896893 1.263322
vt 0.920077 1.287121
vt 0.918087 1.340653
vt 0.898399 1.348435
vt 0.932094 1.325559
vt 0.938949 1.305462
vt 0.929317 1.352359
vt 0.908957 1.363213
vt 0.944500 1.336626
vt 0.954358 1.315471
vt 0.983326 1.327836
vt 0.968806 1.353975
vt 0.948902 1.376092
vt 0.922792 1.391792
vt 0.967876 -0.360206
vt 0.982460 -0.334173
vt 0.947957 -0.382193
vt 0.921894 -0.397774
vt 0.983002 0.479048
vt 0.954237 0.479096
vt 0.891289 0.479196
vt 0.915998 0.479158
vt 0.937214 0.479124
vt 0.104519 -0.270312
vt 0.081399 -0.294245
vt 0.087003 -0.315421
vt 0.109851 -0.293167
vt 0.101699 -0.330908
vt 0.124932 -0.309771
vt 0.122155 -0.337651
vt 0.146314 -0.316661
vt 0.062559 -0.312635
vt 0.069384 -0.332647
vt 0.083591 -0.347465
vt 0.103240 -0.355254
vt 0.047208 -0.322673
vt 0.057150 -0.343726
vt 0.072418 -0.359260
vt 0.092749 -0.369988
vt 0.146050 1.317477
vt 0.121805 1.338552
vt 0.101247 1.331776
vt 0.124601 1.310543
vt 0.086626 1.316136
vt 0.109529 1.293931
vt 0.081056 1.294960
vt 0.104226 1.271059
vt 0.102819 1.356244
vt 0.083261 1.348435
vt 0.068988 1.333545
vt 0.062177 1.313345
vt 0.092197 1.371022
vt 0.071765 1.359999
vt 0.056504 1.344380
vt 0.046778 1.323303
vt 0.017825 1.335594
vt 0.032258 1.361689
vt 0.052151 1.383811
vt 0.078283 1.399603
vt 0.018342 -0.335168
vt 0.033034 -0.361173
vt 0.053041 -0.383039
vt 0.079095 -0.398495
vt 0.008672 0.486804
vt 0.037437 0.486846
vt 0.100383 0.486934
vt 0.075675 0.486900
vt 0.054460 0.486870
s 0
usemtl frame
f 1/1/1 2/2/1 4/3/1 3/4/1
f 3/4/2 4/3/2 8/5/2 7/6/2
f 7/6/3 8/5/3 6/7/3 5/8/3
f 5/8/4 6/7/4 2/9/4 1/10/4
f 3/11/5 7/6/5 5/8/5 1/12/5
f 9/1/3 11/4/3 12/3/3 10/2/3
f 11/4/2 15/6/2 16/5/2 12/3/2
f 15/6/1 13/8/1 14/7/1 16/5/1
f 13/8/4 9/10/4 10/9/4 14/7/4
f 11/11/5 9/12/5 13/8/5 15/6/5
f 17/1/1 19/4/1 20/3/1 18/2/1
f 19/4/4 23/6/4 24/5/4 20/3/4
f 23/6/3 21/8/3 22/7/3 24/5/3
f 21/8/2 17/10/2 18/9/2 22/7/2
f 19/11/5 17/12/5 21/8/5 23/6/5
f 25/1/3 26/2/3 28/3/3 27/4/3
f 27/4/4 28/3/4 32/5/4 31/6/4
f 31/6/1 32/5/1 30/7/1 29/8/1
f 29/8/2 30/7/2 26/9/2 25/10/2
f 27/11/5 31/6/5 29/8/5 25/12/5
f 33/5/6 37/3/6 44/3/6 43/5/6
f 52/13/5 50/14/5 60/14/5 34/13/5
f 33/5/6 35/7/6 56/7/6 54/5/6
f 39/2/6 37/3/6 40/3/6 58/2/6
f 51/15/5 49/16/5 38/16/5 36/15/5
f 42/9/2 41/7/2 45/7/2 46/9/2
f 39/9/6 35/7/6 41/7/6 42/9/6
f 37/3/6 39/2/6 42/2/6 44/3/6
f 35/7/6 33/5/6 43/5/6 41/7/6
f 43/5/4 44/3/4 48/3/4 47/5/4
f 41/7/1 43/5/1 47/5/1 45/7/1
f 44/3/3 42/2/3 46/2/3 48/3/3
f 38/16/3 54/5/3 56/7/3 36/15/3
f 59/2/1 50/14/1 52/13/1 57/3/1
f 34/13/2 40/3/2 54/5/2 38/16/2
f 60/14/1 58/2/1 40/3/1 34/13/1
f 53/5/5 63/5/5 64/3/5 57/3/5
f 35/7/6 39/9/6 58/9/6 56/7/6
f 53/5/3 49/16/3 51/15/3 55/7/3
f 57/3/2 52/13/2 49/16/2 53/5/2
f 36/15/4 56/7/4 58/9/4 60/17/4
f 62/9/2 46/9/2 45/7/2 61/7/2
f 59/9/5 62/9/5 61/7/5 55/7/5
f 57/3/5 64/3/5 62/2/5 59/2/5
f 55/7/5 61/7/5 63/5/5 53/5/5
f 63/5/4 47/5/4 48/3/4 64/3/4
f 61/7/1 45/7/1 47/5/1 63/5/1
f 64/3/3 48/3/3 46/2/3 62/2/3
f 49/16/5 52/13/5 34/13/5 38/16/5
f 50/17/5 51/15/5 36/15/5 60/17/5
f 37/3/6 33/5/6 54/5/6 40/3/6
f 55/7/4 51/15/4 50/17/4 59/9/4
f 65/5/7 69/18/7 71/19/7 67/7/7
f 68/8/8 67/7/8 71/9/8 72/10/8
f 72/1/1 71/2/1 69/3/1 70/4/1
f 70/11/9 66/6/9 68/8/9 72/12/9
f 66/6/3 65/5/3 67/7/3 68/8/3
f 70/4/10 69/3/10 65/5/10 66/6/10
s 1
usemtl pillows
f 97/20/11 105/21/12 107/22/13 99/23/14
f 99/23/14 107/22/13 108/24/15 100/25/16
f 100/25/16 108/24/15 106/26/17 98/27/18
f 105/21/12 109/28/19 111/29/20 107/22/13
f 107/22/13 111/29/20 112/30/21 108/24/15
f 108/24/15 112/30/21 110/31/22 106/26/17
f 109/28/19 101/32/23 103/33/24 111/29/20
f 111/29/20 103/33/24 104/34/25 112/30/21
f 112/30/21 104/34/25 102/35/26 110/31/22
f 81/36/27 89/37/28 91/38/29 83/39/30
f 83/39/30 91/38/29 92/40/31 84/41/32
f 84/41/32 92/40/31 90/42/33 82/43/34
f 89/37/28 93/44/35 95/45/36 91/38/29
f 91/38/29 95/45/36 96/46/37 92/40/31
f 92/40/31 96/46/37 94/47/38 90/42/33
f 93/44/35 85/48/39 87/49/40 95/45/36
f 95/45/36 87/49/40 88/50/41 96/46/37
f 96/46/37 88/50/41 86/51/42 94/47/38
f 73/52/43 86/51/42 88/50/41 75/53/44
f 75/53/44 88/50/41 87/49/40 76/54/45
f 76/54/45 87/49/40 85/48/39 74/55/46
f 101/32/23 78/56/47 80/57/48 103/33/24
f 103/33/24 80/57/48 79/58/49 104/34/25
f 104/34/25 79/58/49 77/59/50 102/35/26
f 156/60/51 157/61/52 102/35/26 77/59/50
f 113/62/3 114/63/53 86/51/42 73/52/43
f 160/64/54 98/27/18 106/26/17 162/65/55
f 163/66/56 110/31/22 102/35/26 157/61/52
f 162/65/55 106/26/17 110/31/22 163/66/56
f 115/67/57 82/43/34 90/42/33 116/68/58
f 117/69/59 94/47/38 86/51/42 114/63/53
f 116/68/58 90/42/33 94/47/38 117/69/59
f 105/21/12 116/68/58 117/69/59 109/28/19
f 109/28/19 117/69/59 114/63/53 101/32/23
f 97/20/11 115/67/57 116/68/58 105/21/12
f 78/56/47 101/32/23 114/63/53 113/62/3
f 134/70/60 136/71/61 144/72/62 142/73/63
f 136/71/61 137/74/64 145/75/65 144/72/62
f 137/74/64 135/76/66 143/77/67 145/75/65
f 142/73/63 144/72/62 148/78/68 146/79/69
f 144/72/62 145/75/65 149/80/70 148/78/68
f 145/75/65 143/77/67 147/81/71 149/80/70
f 146/79/69 148/78/68 140/82/72 138/83/73
f 148/78/68 149/80/70 141/84/74 140/82/72
f 149/80/70 147/81/71 139/85/75 141/84/74
f 118/86/76 120/87/77 128/88/78 126/89/79
f 120/87/77 121/90/80 129/91/81 128/88/78
f 121/90/80 119/92/82 127/93/83 129/91/81
f 126/89/79 128/88/78 132/94/84 130/95/85
f 128/88/78 129/91/81 133/96/86 132/94/84
f 129/91/81 127/93/83 131/97/87 133/96/86
f 130/95/85 132/94/84 124/98/88 122/99/89
f 132/94/84 133/96/86 125/100/90 124/98/88
f 133/96/86 131/97/87 123/101/91 125/100/90
f 73/102/43 75/103/44 125/100/90 123/101/91
f 75/103/44 76/104/45 124/98/88 125/100/90
f 76/104/45 74/105/46 122/99/89 124/98/88
f 138/83/73 140/82/72 80/106/48 78/107/47
f 140/82/72 141/84/74 79/108/49 80/106/48
f 141/84/74 139/85/75 77/109/50 79/108/49
f 156/110/51 77/109/50 139/85/75 166/111/92
f 113/112/3 73/102/43 123/101/91 150/113/93
f 169/114/94 171/115/95 143/77/67 135/76/66
f 172/116/96 166/111/92 139/85/75 147/81/71
f 171/115/95 172/116/96 147/81/71 143/77/67
f 151/117/97 152/118/98 127/93/83 119/92/82
f 153/119/99 150/113/93 123/101/91 131/97/87
f 152/118/98 153/119/99 131/97/87 127/93/83
f 142/73/63 146/79/69 153/119/99 152/118/98
f 146/79/69 138/83/73 150/113/93 153/119/99
f 134/70/60 142/73/63 152/118/98 151/117/97
f 78/107/47 113/112/3 150/113/93 138/83/73
f 134/70/60 151/117/97 173/120/100 169/114/94 135/76/66 137/74/64 136/71/61
f 126/89/79 130/95/85 170/121/101 168/122/102
f 130/95/85 122/99/89 165/123/103 170/121/101
f 151/117/97 119/92/82 121/90/80 120/87/77 118/86/76 167/124/104 173/120/100
f 118/86/76 126/89/79 168/122/102 167/124/104
f 74/105/46 154/125/105 165/123/103 122/99/89
f 97/20/11 99/23/14 100/25/16 98/27/18 160/64/54 164/126/106 115/67/57
f 89/37/28 159/127/107 161/128/108 93/44/35
f 93/44/35 161/128/108 155/129/109 85/48/39
f 115/67/57 164/126/106 158/130/110 81/36/27 83/39/30 84/41/32 82/43/34
f 81/36/27 158/130/110 159/127/107 89/37/28
f 74/55/46 85/48/39 155/129/109 154/131/105
f 198/132/111 200/133/112 208/134/113 206/135/114
f 200/133/112 201/136/115 209/137/116 208/134/113
f 201/136/115 199/138/117 207/139/118 209/137/116
f 206/135/114 208/134/113 212/140/119 210/141/120
f 208/134/113 209/137/116 213/142/121 212/140/119
f 209/137/116 207/139/118 211/143/122 213/142/121
f 210/141/120 212/140/119 204/144/123 202/145/124
f 212/140/119 213/142/121 205/146/125 204/144/123
f 213/142/121 211/143/122 203/147/126 205/146/125
f 182/148/127 184/149/128 192/150/129 190/151/130
f 184/149/128 185/152/131 193/153/132 192/150/129
f 185/152/131 183/154/133 191/155/134 193/153/132
f 190/151/130 192/150/129 196/156/135 194/157/136
f 192/150/129 193/153/132 197/158/137 196/156/135
f 193/153/132 191/155/134 195/159/138 197/158/137
f 194/157/136 196/156/135 188/160/139 186/161/140
f 196/156/135 197/158/137 189/162/141 188/160/139
f 197/158/137 195/159/138 187/163/142 189/162/141
f 174/164/143 176/165/144 189/162/141 187/163/142
f 176/165/144 177/166/145 188/160/139 189/162/141
f 177/166/145 175/167/146 186/161/140 188/160/139
f 202/145/124 204/144/123 181/168/147 179/169/148
f 204/144/123 205/146/125 180/170/149 181/168/147
f 205/146/125 203/147/126 178/171/150 180/170/149
f 156/60/51 178/171/150 203/147/126 157/61/52
f 214/172/1 174/164/143 187/163/142 215/173/151
f 160/64/54 162/65/55 207/139/118 199/138/117
f 163/66/56 157/61/52 203/147/126 211/143/122
f 162/65/55 163/66/56 211/143/122 207/139/118
f 216/174/152 217/175/153 191/155/134 183/154/133
f 218/176/154 215/173/151 187/163/142 195/159/138
f 217/175/153 218/176/154 195/159/138 191/155/134
f 206/135/114 210/141/120 218/176/154 217/175/153
f 210/141/120 202/145/124 215/173/151 218/176/154
f 198/132/111 206/135/114 217/175/153 216/174/152
f 179/169/148 214/172/1 215/173/151 202/145/124
f 235/177/155 243/178/156 245/179/157 237/180/158
f 237/180/158 245/179/157 246/181/159 238/182/160
f 238/182/160 246/181/159 244/183/161 236/184/162
f 243/178/156 247/185/163 249/186/164 245/179/157
f 245/179/157 249/186/164 250/187/165 246/181/159
f 246/181/159 250/187/165 248/188/166 244/183/161
f 247/185/163 239/189/167 241/190/168 249/186/164
f 249/186/164 241/190/168 242/191/169 250/187/165
f 250/187/165 242/191/169 240/192/170 248/188/166
f 219/193/171 227/194/172 229/195/173 221/196/174
f 221/196/174 229/195/173 230/197/175 222/198/176
f 222/198/176 230/197/175 228/199/177 220/200/178
f 227/194/172 231/201/179 233/202/180 229/195/173
f 229/195/173 233/202/180 234/203/181 230/197/175
f 230/197/175 234/203/181 232/204/182 228/199/177
f 231/201/179 223/205/183 225/206/184 233/202/180
f 233/202/180 225/206/184 226/207/185 234/203/181
f 234/203/181 226/207/185 224/208/186 232/204/182
f 174/209/143 224/208/186 226/207/185 176/210/144
f 176/210/144 226/207/185 225/206/184 177/211/145
f 177/211/145 225/206/184 223/205/183 175/212/146
f 239/189/167 179/213/148 181/214/147 241/190/168
f 241/190/168 181/214/147 180/215/149 242/191/169
f 242/191/169 180/215/149 178/216/150 240/192/170
f 156/110/51 166/111/92 240/192/170 178/216/150
f 214/217/1 251/218/187 224/208/186 174/209/143
f 169/114/94 236/184/162 244/183/161 171/115/95
f 172/116/96 248/188/166 240/192/170 166/111/92
f 171/115/95 244/183/161 248/188/166 172/116/96
f 252/219/188 220/200/178 228/199/177 253/220/189
f 254/221/190 232/204/182 224/208/186 251/218/187
f 253/220/189 228/199/177 232/204/182 254/221/190
f 243/178/156 253/220/189 254/221/190 247/185/163
f 247/185/163 254/221/190 251/218/187 239/189/167
f 235/177/155 252/219/188 253/220/189 243/178/156
f 179/213/148 239/189/167 251/218/187 214/217/1
f 235/177/155 237/180/158 238/182/160 236/184/162 169/114/94 173/120/100 252/219/188
f 227/194/172 168/122/102 170/121/101 231/201/179
f 231/201/179 170/121/101 165/123/103 223/205/183
f 252/219/188 173/120/100 167/124/104 219/193/171 221/196/174 222/198/176 220/200/178
f 219/193/171 167/124/104 168/122/102 227/194/172
f 175/212/146 223/205/183 165/123/103 154/125/105
f 198/132/111 216/174/152 164/126/106 160/64/54 199/138/117 201/136/115 200/133/112
f 190/151/130 194/157/136 161/128/108 159/127/107
f 194/157/136 186/161/140 155/129/109 161/128/108
f 216/174/152 183/154/133 185/152/131 184/149/128 182/148/127 158/130/110 164/126/106
f 182/148/127 190/151/130 159/127/107 158/130/110
f 175/167/146 154/131/105 155/129/109 186/161/140
f 279/222/191 287/223/192 289/224/193 281/225/194
f 281/225/194 289/224/193 290/226/195 282/227/196
f 282/227/196 290/226/195 288/228/197 280/229/198
f 287/223/192 291/230/199 293/231/200 289/224/193
f 289/224/193 293/231/200 294/232/201 290/226/195
f 290/226/195 294/232/201 292/233/202 288/228/197
f 291/230/199 283/234/203 285/235/204 293/231/200
f 293/231/200 285/235/204 286/236/205 294/232/201
f 294/232/201 286/236/205 284/237/206 292/233/202
f 263/238/207 271/239/208 273/240/209 265/241/210
f 265/241/210 273/240/209 274/242/211 266/243/212
f 266/243/212 274/242/211 272/244/213 264/245/214
f 271/239/208 275/246/215 277/247/216 273/240/209
f 273/240/209 277/247/216 278/248/217 274/242/211
f 274/242/211 278/248/217 276/249/218 272/244/213
f 275/246/215 267/250/219 269/251/220 277/247/216
f 277/247/216 269/251/220 270/252/221 278/248/217
f 278/248/217 270/252/221 268/253/222 276/249/218
f 255/254/223 268/253/222 270/252/221 257/255/224
f 257/255/224 270/252/221 269/251/220 258/256/225
f 258/256/225 269/251/220 267/250/219 256/257/226
f 283/234/203 260/258/227 262/259/228 285/235/204
f 285/235/204 262/259/228 261/260/229 286/236/205
f 286/236/205 261/260/229 259/261/230 284/237/206
f 338/262/2 339/263/231 284/237/206 259/261/230
f 295/264/3 296/265/232 268/253/222 255/254/223
f 342/266/233 280/229/198 288/228/197 344/267/234
f 345/268/235 292/233/202 284/237/206 339/263/231
f 344/267/234 288/228/197 292/233/202 345/268/235
f 297/269/236 264/245/214 272/244/213 298/270/237
f 299/271/238 276/249/218 268/253/222 296/265/232
f 298/270/237 272/244/213 276/249/218 299/271/238
f 287/223/192 298/270/237 299/271/238 291/230/199
f 291/230/199 299/271/238 296/265/232 283/234/203
f 279/222/191 297/269/236 298/270/237 287/223/192
f 260/258/227 283/234/203 296/265/232 295/264/3
f 316/272/239 318/273/240 326/274/241 324/275/242
f 318/273/240 319/276/243 327/277/244 326/274/241
f 319/276/243 317/278/245 325/279/246 327/277/244
f 324/275/242 326/274/241 330/280/247 328/281/248
f 326/274/241 327/277/244 331/282/249 330/280/247
f 327/277/244 325/279/246 329/283/250 331/282/249
f 328/281/248 330/280/247 322/284/251 320/285/252
f 330/280/247 331/282/249 323/286/253 322/284/251
f 331/282/249 329/283/250 321/287/254 323/286/253
f 300/288/255 302/289/256 310/290/257 308/291/258
f 302/289/256 303/292/259 311/293/260 310/290/257
f 303/292/259 301/294/261 309/295/262 311/293/260
f 308/291/258 310/290/257 314/296/263 312/297/264
f 310/290/257 311/293/260 315/298/265 314/296/263
f 311/293/260 309/295/262 313/299/266 315/298/265
f 312/297/264 314/296/263 306/300/267 304/301/268
f 314/296/263 315/298/265 307/302/269 306/300/267
f 315/298/265 313/299/266 305/303/270 307/302/269
f 255/304/223 257/305/224 307/302/269 305/303/270
f 257/305/224 258/306/225 306/300/267 307/302/269
f 258/306/225 256/307/226 304/301/268 306/300/267
f 320/285/252 322/284/251 262/308/228 260/309/227
f 322/284/251 323/286/253 261/310/229 262/308/228
f 323/286/253 321/287/254 259/311/230 261/310/229
f 338/312/2 259/311/230 321/287/254 348/313/271
f 295/314/3 255/304/223 305/303/270 332/315/272
f 351/316/273 353/317/274 325/279/246 317/278/245
f 354/318/275 348/313/271 321/287/254 329/283/250
f 353/317/274 354/318/275 329/283/250 325/279/246
f 333/319/276 334/320/277 309/295/262 301/294/261
f 335/321/278 332/315/272 305/303/270 313/299/266
f 334/320/277 335/321/278 313/299/266 309/295/262
f 324/275/242 328/281/248 335/321/278 334/320/277
f 328/281/248 320/285/252 332/315/272 335/321/278
f 316/272/239 324/275/242 334/320/277 333/319/276
f 260/309/227 295/314/3 332/315/272 320/285/252
f 316/272/239 333/319/276 355/322/5 351/316/273 317/278/245 319/276/243 318/273/240
f 308/291/258 312/297/264 352/323/279 350/324/280
f 312/297/264 304/301/268 347/325/281 352/323/279
f 333/319/276 301/294/261 303/292/259 302/289/256 300/288/255 349/326/282 355/322/5
f 300/288/255 308/291/258 350/324/280 349/326/282
f 256/307/226 336/327/4 347/325/281 304/301/268
f 279/222/191 281/225/194 282/227/196 280/229/198 342/266/233 346/328/6 297/269/236
f 271/239/208 341/329/283 343/330/284 275/246/215
f 275/246/215 343/330/284 337/331/285 267/250/219
f 297/269/236 346/328/6 340/332/286 263/238/207 265/241/210 266/243/212 264/245/214
f 263/238/207 340/332/286 341/329/283 271/239/208
f 256/257/226 267/250/219 337/331/285 336/333/4
f 380/334/287 382/335/288 390/336/289 388/337/290
f 382/335/288 383/338/291 391/339/292 390/336/289
f 383/338/291 381/340/293 389/341/294 391/339/292
f 388/337/290 390/336/289 394/342/295 392/343/296
f 390/336/289 391/339/292 395/344/297 394/342/295
f 391/339/292 389/341/294 393/345/298 395/344/297
f 392/343/296 394/342/295 386/346/299 384/347/300
f 394/342/295 395/344/297 387/348/301 386/346/299
f 395/344/297 393/345/298 385/349/302 387/348/301
f 364/350/303 366/351/304 374/352/305 372/353/306
f 366/351/304 367/354/307 375/355/308 374/352/305
f 367/354/307 365/356/309 373/357/310 375/355/308
f 372/353/306 374/352/305 378/358/311 376/359/312
f 374/352/305 375/355/308 379/360/313 378/358/311
f 375/355/308 373/357/310 377/361/314 379/360/313
f 376/359/312 378/358/311 370/362/315 368/363/316
f 378/358/311 379/360/313 371/364/317 370/362/315
f 379/360/313 377/361/314 369/365/318 371/364/317
f 356/366/319 358/367/320 371/364/317 369/365/318
f 358/367/320 359/368/321 370/362/315 371/364/317
f 359/368/321 357/369/322 368/363/316 370/362/315
f 384/347/300 386/346/299 363/370/323 361/371/324
f 386/346/299 387/348/301 362/372/325 363/370/323
f 387/348/301 385/349/302 360/373/326 362/372/325
f 338/262/2 360/373/326 385/349/302 339/263/231
f 396/374/1 356/366/319 369/365/318 397/375/327
f 342/266/233 344/267/234 389/341/294 381/340/293
f 345/268/235 339/263/231 385/349/302 393/345/298
f 344/267/234 345/268/235 393/345/298 389/341/294
f 398/376/328 399/377/329 373/357/310 365/356/309
f 400/378/330 397/375/327 369/365/318 377/361/314
f 399/377/329 400/378/330 377/361/314 373/357/310
f 388/337/290 392/343/296 400/378/330 399/377/329
f 392/343/296 384/347/300 397/375/327 400/378/330
f 380/334/287 388/337/290 399/377/329 398/376/328
f 361/371/324 396/374/1 397/375/327 384/347/300
f 417/379/331 425/380/332 427/381/333 419/382/334
f 419/382/334 427/381/333 428/383/335 420/384/336
f 420/384/336 428/383/335 426/385/337 418/386/338
f 425/380/332 429/387/339 431/388/340 427/381/333
f 427/381/333 431/388/340 432/389/341 428/383/335
f 428/383/335 432/389/341 430/390/342 426/385/337
f 429/387/339 421/391/343 423/392/344 431/388/340
f 431/388/340 423/392/344 424/393/345 432/389/341
f 432/389/341 424/393/345 422/394/346 430/390/342
f 401/395/347 409/396/348 411/397/349 403/398/350
f 403/398/350 411/397/349 412/399/351 404/400/352
f 404/400/352 412/399/351 410/401/353 402/402/354
f 409/396/348 413/403/355 415/404/356 411/397/349
f 411/397/349 415/404/356 416/405/357 412/399/351
f 412/399/351 416/405/357 414/406/358 410/401/353
f 413/403/355 405/407/359 407/408/360 415/404/356
f 415/404/356 407/408/360 408/409/361 416/405/357
f 416/405/357 408/409/361 406/410/362 414/406/358
f 356/411/319 406/410/362 408/409/361 358/412/320
f 358/412/320 408/409/361 407/408/360 359/413/321
f 359/413/321 407/408/360 405/407/359 357/414/322
f 421/391/343 361/415/324 363/416/323 423/392/344
f 423/392/344 363/416/323 362/417/325 424/393/345
f 424/393/345 362/417/325 360/418/326 422/394/346
f 338/312/2 348/313/271 422/394/346 360/418/326
f 396/419/1 433/420/363 406/410/362 356/411/319
f 351/316/273 418/386/338 426/385/337 353/317/274
f 354/318/275 430/390/342 422/394/346 348/313/271
f 353/317/274 426/385/337 430/390/342 354/318/275
f 434/421/364 402/402/354 410/401/353 435/422/365
f 436/423/366 414/406/358 406/410/362 433/420/363
f 435/422/365 410/401/353 414/406/358 436/423/366
f 425/380/332 435/422/365 436/423/366 429/387/339
f 429/387/339 436/423/366 433/420/363 421/391/343
f 417/379/331 434/421/364 435/422/365 425/380/332
f 361/415/324 421/391/343 433/420/363 396/419/1
f 417/379/331 419/382/334 420/384/336 418/386/338 351/316/273 355/322/5 434/421/364
f 409/396/348 350/324/280 352/323/279 413/403/355
f 413/403/355 352/323/279 347/325/281 405/407/359
f 434/421/364 355/322/5 349/326/282 401/395/347 403/398/350 404/400/352 402/402/354
f 401/395/347 349/326/282 350/324/280 409/396/348
f 357/414/322 405/407/359 347/325/281 336/327/4
f 380/334/287 398/376/328 346/328/6 342/266/233 381/340/293 383/338/291 382/335/288
f 372/353/306 376/359/312 343/330/284 341/329/283
f 376/359/312 368/363/316 337/331/285 343/330/284
f 398/376/328 365/356/309 367/354/307 366/351/304 364/350/303 340/332/286 346/328/6
f 364/350/303 372/353/306 341/329/283 340/332/286
f 357/369/322 336/333/4 337/331/285 368/363/316
