# Blender 4.5.2 LTS
# www.blender.org
mtllib tree_pot_square.mtl
o Cube
v 1.000000 0.168312 -1.000000
v 1.000000 -0.039000 -1.000000
v 1.000000 0.168312 1.000000
v 1.000000 -0.039000 1.000000
v -1.000000 0.168312 -1.000000
v -1.000000 -0.039000 -1.000000
v -1.000000 0.168312 1.000000
v -1.000000 -0.039000 1.000000
v 0.868595 0.393272 0.868595
v -0.868595 0.393272 0.868595
v 0.868595 0.393272 -0.868595
v -0.868595 0.393272 -0.868595
v 1.063751 0.168312 1.063751
v -1.063751 0.168312 1.063751
v 1.063751 0.168312 -1.063751
v -1.063751 0.168312 -1.063751
v 1.063751 0.393272 1.063751
v -1.063751 0.393272 1.063751
v 1.063751 0.393272 -1.063751
v -1.063751 0.393272 -1.063751
v 0.868595 0.282587 0.868595
v -0.868595 0.282587 0.868595
v 0.868595 0.282587 -0.868595
v -0.868595 0.282587 -0.868595
vn -0.0000 1.0000 -0.0000
vn -0.0000 -0.0000 1.0000
vn -1.0000 -0.0000 -0.0000
vn -0.0000 -1.0000 -0.0000
vn 1.0000 -0.0000 -0.0000
vn -0.0000 -0.0000 -1.0000
vt 0.156111 0.866249
vt -1.343523 0.866249
vt -1.343523 0.573314
vt 0.156111 0.573314
vt 1.655745 0.018813
vt 1.655745 0.238851
vt 0.156111 0.238851
vt 0.156111 0.018813
vt -1.343523 0.238851
vt -1.343523 0.018813
vt 0.844951 0.817138
vt 0.177615 0.817139
vt 0.177615 0.149802
vt 0.844951 0.149802
vt 3.155379 0.018813
vt 3.155379 0.238851
vt -2.843157 0.238851
vt -2.843157 0.018813
vt 1.655745 0.866249
vt 3.155378 0.866249
vt 3.155378 0.983729
vt 1.655745 0.983729
vt 3.155379 0.334543
vt 1.655745 0.334544
vt 0.156111 0.334544
vt -1.343523 0.334544
vt 1.655745 0.573314
vt 3.155379 0.573314
vt -2.843158 0.334544
vt -2.843157 0.573314
vt -2.843157 0.866250
vt 0.930786 0.912679
vt 0.089481 0.912679
vt 0.089481 0.071374
vt 0.930786 0.071374
vt 0.156111 0.983729
vt -1.343523 0.983729
vt -2.843157 0.983729
s 0
usemtl pot
f 10/1/1 12/2/1 20/3/1 18/4/1
f 4/5/2 3/6/2 7/7/2 8/8/2
f 8/8/3 7/7/3 5/9/3 6/10/3
f 6/11/4 2/12/4 4/13/4 8/14/4
f 2/15/5 1/16/5 3/6/5 4/5/5
f 6/10/6 5/9/6 1/17/6 2/18/6
f 9/19/3 11/20/3 23/21/3 21/22/3
f 3/6/4 1/16/4 15/23/4 13/24/4
f 5/9/4 7/7/4 14/25/4 16/26/4
f 11/20/1 9/19/1 17/27/1 19/28/1
f 15/29/6 16/26/6 20/3/6 19/30/6
f 14/25/2 13/24/2 17/27/2 18/4/2
f 16/26/3 14/25/3 18/4/3 20/3/3
f 13/24/5 15/23/5 19/28/5 17/27/5
f 9/19/1 10/1/1 18/4/1 17/27/1
f 1/17/4 5/9/4 16/26/4 15/29/4
f 7/7/4 3/6/4 13/24/4 14/25/4
f 12/2/1 11/31/1 19/30/1 20/3/1
f 12/2/5 10/1/5 22/36/5 24/37/5
f 10/1/6 9/19/6 21/22/6 22/36/6
f 11/31/2 12/2/2 24/37/2 23/38/2
usemtl soil
f 23/32/1 24/33/1 22/34/1 21/35/1
