# Blender 4.5.2 LTS
# www.blender.org
mtllib grass.mtl
o Low_Grass
v 0.024148 0.044781 -0.030394
v 0.031720 0.044781 -0.021265
v 0.031259 0.000000 -0.021821
v 0.024609 0.000000 -0.029837
v 0.023861 0.075197 -0.030739
v 0.032007 0.075197 -0.020919
v 0.025881 0.106031 -0.034879
v 0.034385 0.106031 -0.024627
v 0.033124 0.147232 -0.047803
v 0.041628 0.147232 -0.037552
v 0.043408 0.169938 -0.064598
v 0.050872 0.169938 -0.055601
v 0.051069 0.176339 -0.074743
v 0.056175 0.176339 -0.068588
v 0.066754 0.169959 -0.096323
v 0.067574 0.169959 -0.095335
v 0.070290 0.162993 -0.101463
v 0.028476 0.044781 -0.026852
v 0.027916 0.000000 -0.025851
v 0.028878 0.075197 -0.027568
v 0.031363 0.103340 -0.032008
v 0.038364 0.143379 -0.044501
v 0.047359 0.166462 -0.060546
v 0.053533 0.174265 -0.071562
v 0.067145 0.169959 -0.095851
v 0.024148 0.044781 -0.030394
v 0.031720 0.044781 -0.021265
v 0.031259 0.000000 -0.021821
v 0.024609 0.000000 -0.029837
v 0.023861 0.075197 -0.030739
v 0.032007 0.075197 -0.020919
v 0.025881 0.106031 -0.034879
v 0.034385 0.106031 -0.024627
v 0.033124 0.147232 -0.047803
v 0.041628 0.147232 -0.037552
v 0.043408 0.169938 -0.064598
v 0.050872 0.169938 -0.055601
v 0.051069 0.176339 -0.074743
v 0.056175 0.176339 -0.068588
v 0.066754 0.169959 -0.096323
v 0.067574 0.169959 -0.095335
v 0.070290 0.162993 -0.101463
v 0.028476 0.044781 -0.026852
v 0.027916 0.000000 -0.025851
v 0.028878 0.075197 -0.027568
v 0.031363 0.103340 -0.032008
v 0.038364 0.143379 -0.044501
v 0.047359 0.166462 -0.060546
v 0.053533 0.174265 -0.071562
v 0.067145 0.169959 -0.095851
v 0.003954 0.041421 -0.021953
v 0.010887 0.042710 -0.025366
v 0.016038 0.000000 -0.024061
v 0.009949 0.000000 -0.021063
v -0.003331 0.065325 -0.025369
v 0.004128 0.066711 -0.029041
v -0.021246 0.107648 -0.037549
v -0.013826 0.109406 -0.041690
v -0.042181 0.135499 -0.052489
v -0.034761 0.137257 -0.056629
v -0.061736 0.161042 -0.067225
v -0.055224 0.162586 -0.070859
v -0.074225 0.173010 -0.078531
v -0.069770 0.174066 -0.081017
v -0.094375 0.178543 -0.099484
v -0.093660 0.178713 -0.099883
v -0.101319 0.177051 -0.106207
v 0.006778 0.041491 -0.024369
v 0.012977 0.000000 -0.022554
v -0.000692 0.065035 -0.028429
v -0.018803 0.106442 -0.041150
v -0.039286 0.133652 -0.055774
v -0.059027 0.159996 -0.069850
v -0.071688 0.171957 -0.079730
v -0.094033 0.178624 -0.099675
v 0.003954 0.041421 -0.021953
v 0.010887 0.042710 -0.025366
v 0.016038 0.000000 -0.024061
v 0.009949 0.000000 -0.021063
v -0.003331 0.065325 -0.025369
v 0.004128 0.066711 -0.029041
v -0.021246 0.107648 -0.037549
v -0.013826 0.109406 -0.041690
v -0.042181 0.135499 -0.052489
v -0.034761 0.137257 -0.056629
v -0.061736 0.161042 -0.067225
v -0.055224 0.162586 -0.070859
v -0.074225 0.173010 -0.078531
v -0.069770 0.174066 -0.081017
v -0.094375 0.178543 -0.099484
v -0.093660 0.178713 -0.099883
v -0.101319 0.177051 -0.106207
v 0.006778 0.041491 -0.024369
v 0.012977 0.000000 -0.022554
v -0.000692 0.065035 -0.028429
v -0.018803 0.106442 -0.041150
v -0.039286 0.133652 -0.055774
v -0.059027 0.159996 -0.069850
v -0.071688 0.171957 -0.079730
v -0.094033 0.178624 -0.099675
v 0.014773 0.000000 -0.032601
v 0.028608 0.000000 -0.025524
v 0.017046 0.034112 -0.037792
v 0.031487 0.034112 -0.030405
v 0.025532 0.081493 -0.054380
v 0.039973 0.081493 -0.046993
v 0.037853 0.107605 -0.076289
v 0.050528 0.107605 -0.069805
v 0.047449 0.114966 -0.090108
v 0.056120 0.114966 -0.085673
v 0.066953 0.107629 -0.119260
v 0.068345 0.107629 -0.118548
v 0.071302 0.099618 -0.126121
v 0.022786 0.000000 -0.031282
v 0.025697 0.031017 -0.036980
v 0.033899 0.077062 -0.053013
v 0.044438 0.103608 -0.073607
v 0.051671 0.112581 -0.087746
v 0.067618 0.107629 -0.118920
v 0.014773 0.000000 -0.032601
v 0.028608 0.000000 -0.025524
v 0.017046 0.034112 -0.037792
v 0.031487 0.034112 -0.030405
v 0.025532 0.081493 -0.054380
v 0.039973 0.081493 -0.046993
v 0.037853 0.107605 -0.076289
v 0.050528 0.107605 -0.069805
v 0.047449 0.114966 -0.090108
v 0.056120 0.114966 -0.085673
v 0.066953 0.107629 -0.119260
v 0.068345 0.107629 -0.118548
v 0.071302 0.099618 -0.126121
v 0.022786 0.000000 -0.031282
v 0.025697 0.031017 -0.036980
v 0.033899 0.077062 -0.053013
v 0.044438 0.103608 -0.073607
v 0.051671 0.112581 -0.087746
v 0.067618 0.107629 -0.118920
v 0.038564 0.034541 0.000938
v 0.038792 0.034541 0.009104
v 0.038159 -0.000000 0.008458
v 0.037959 -0.000000 0.001287
v 0.039679 0.055946 0.000899
v 0.039924 0.055946 0.009683
v 0.045259 0.085223 0.002048
v 0.045514 0.085223 0.011218
v 0.052890 0.116411 0.003881
v 0.053146 0.116411 0.013051
v 0.060866 0.145394 0.006354
v 0.061091 0.145394 0.014402
v 0.069356 0.161163 0.009656
v 0.069510 0.161163 0.015162
v 0.091085 0.177077 0.017171
v 0.091109 0.177077 0.018055
v 0.095613 0.176170 0.018678
v 0.039674 0.034250 0.005241
v 0.038058 -0.000000 0.004853
v 0.041510 0.055446 0.005682
v 0.047950 0.084473 0.007227
v 0.055439 0.114959 0.009026
v 0.062592 0.144426 0.010746
v 0.069958 0.159880 0.012515
v 0.091096 0.177077 0.017593
v 0.038564 0.034541 0.000938
v 0.038792 0.034541 0.009104
v 0.038159 -0.000000 0.008458
v 0.037959 -0.000000 0.001287
v 0.039679 0.055946 0.000899
v 0.039924 0.055946 0.009683
v 0.045259 0.085223 0.002048
v 0.045514 0.085223 0.011218
v 0.052890 0.116411 0.003881
v 0.053146 0.116411 0.013051
v 0.060866 0.145394 0.006354
v 0.061091 0.145394 0.014402
v 0.069356 0.161163 0.009656
v 0.069510 0.161163 0.015162
v 0.091085 0.177077 0.017171
v 0.091109 0.177077 0.018055
v 0.095613 0.176170 0.018678
v 0.039674 0.034250 0.005241
v 0.038058 -0.000000 0.004853
v 0.041510 0.055446 0.005682
v 0.047950 0.084473 0.007227
v 0.055439 0.114959 0.009026
v 0.062592 0.144426 0.010746
v 0.069958 0.159880 0.012515
v 0.091096 0.177077 0.017593
v 0.002801 0.051499 -0.033906
v 0.011790 0.051499 -0.026168
v 0.011243 0.000000 -0.026640
v 0.003349 0.000000 -0.033435
v 0.002460 0.086477 -0.034199
v 0.012131 0.086477 -0.025875
v 0.003762 0.121937 -0.038618
v 0.013857 0.121937 -0.029928
v 0.008749 0.169318 -0.052569
v 0.018843 0.169318 -0.043880
v 0.016087 0.195430 -0.070844
v 0.024947 0.195430 -0.063217
v 0.021949 0.202791 -0.082124
v 0.028010 0.202791 -0.076907
v 0.033815 0.195454 -0.106018
v 0.034789 0.195454 -0.105180
v 0.036445 0.187443 -0.111675
v 0.007660 0.051499 -0.031136
v 0.007274 0.000000 -0.030056
v 0.007936 0.086477 -0.031909
v 0.009646 0.118843 -0.036702
v 0.014466 0.164888 -0.050187
v 0.020659 0.191433 -0.067507
v 0.024909 0.200406 -0.079399
v 0.034280 0.195454 -0.105618
v 0.002801 0.051499 -0.033906
v 0.011790 0.051499 -0.026168
v 0.011243 0.000000 -0.026640
v 0.003349 0.000000 -0.033435
v 0.002460 0.086477 -0.034199
v 0.012131 0.086477 -0.025875
v 0.003762 0.121937 -0.038618
v 0.013857 0.121937 -0.029928
v 0.008749 0.169318 -0.052569
v 0.018843 0.169318 -0.043880
v 0.016087 0.195430 -0.070844
v 0.024947 0.195430 -0.063217
v 0.021949 0.202791 -0.082124
v 0.028010 0.202791 -0.076907
v 0.033815 0.195454 -0.106018
v 0.034789 0.195454 -0.105180
v 0.036445 0.187443 -0.111675
v 0.007660 0.051499 -0.031136
v 0.007274 0.000000 -0.030056
v 0.007936 0.086477 -0.031909
v 0.009646 0.118843 -0.036702
v 0.014466 0.164888 -0.050187
v 0.020659 0.191433 -0.067507
v 0.024909 0.200406 -0.079399
v 0.034280 0.195454 -0.105618
v 0.028664 0.046054 -0.013373
v 0.030873 0.047487 -0.005967
v 0.028727 0.000000 -0.001106
v 0.026787 0.000000 -0.007610
v 0.033247 0.072631 -0.019986
v 0.035624 0.074172 -0.012019
v 0.048245 0.119687 -0.035618
v 0.051090 0.121642 -0.027612
v 0.066466 0.150653 -0.053769
v 0.069311 0.152608 -0.045762
v 0.084257 0.179053 -0.070593
v 0.086754 0.180769 -0.063565
v 0.097487 0.192359 -0.081021
v 0.099195 0.193533 -0.076214
v 0.121508 0.198512 -0.097395
v 0.121782 0.198700 -0.096623
v 0.129294 0.196853 -0.103121
v 0.030576 0.046131 -0.010185
v 0.027752 0.000000 -0.004376
v 0.035824 0.072308 -0.016874
v 0.051387 0.118347 -0.032609
v 0.069222 0.148599 -0.050367
v 0.086393 0.177890 -0.067484
v 0.098247 0.191189 -0.078319
v 0.121639 0.198601 -0.097026
v 0.028664 0.046054 -0.013373
v 0.030873 0.047487 -0.005967
v 0.028727 0.000000 -0.001106
v 0.026787 0.000000 -0.007610
v 0.033247 0.072631 -0.019986
v 0.035624 0.074172 -0.012019
v 0.048245 0.119687 -0.035618
v 0.051090 0.121642 -0.027612
v 0.066466 0.150653 -0.053769
v 0.069311 0.152608 -0.045762
v 0.084257 0.179053 -0.070593
v 0.086754 0.180769 -0.063565
v 0.097487 0.192359 -0.081021
v 0.099195 0.193533 -0.076214
v 0.121508 0.198512 -0.097395
v 0.121782 0.198700 -0.096623
v 0.129294 0.196853 -0.103121
v 0.030576 0.046131 -0.010185
v 0.027752 0.000000 -0.004376
v 0.035824 0.072308 -0.016874
v 0.051387 0.118347 -0.032609
v 0.069222 0.148599 -0.050367
v 0.086393 0.177890 -0.067484
v 0.098247 0.191189 -0.078319
v 0.121639 0.198601 -0.097026
v 0.046577 0.000000 -0.008308
v 0.034683 -0.000000 0.001692
v 0.050478 0.034112 -0.004198
v 0.038062 0.034112 0.006241
v 0.062468 0.081493 0.010064
v 0.050053 0.081493 0.020502
v 0.077872 0.107605 0.029926
v 0.066975 0.107605 0.039088
v 0.086880 0.114966 0.044136
v 0.079426 0.114966 0.050403
v 0.106169 0.107629 0.073430
v 0.104972 0.107629 0.074437
v 0.110803 0.099618 0.080102
v 0.042249 0.000000 -0.001437
v 0.046369 0.031017 0.003458
v 0.057959 0.077062 0.017243
v 0.072844 0.103608 0.034952
v 0.083064 0.112581 0.047109
v 0.105598 0.107629 0.073911
v 0.046577 0.000000 -0.008308
v 0.034683 -0.000000 0.001692
v 0.050478 0.034112 -0.004198
v 0.038062 0.034112 0.006241
v 0.062468 0.081493 0.010064
v 0.050053 0.081493 0.020502
v 0.077872 0.107605 0.029926
v 0.066975 0.107605 0.039088
v 0.086880 0.114966 0.044136
v 0.079426 0.114966 0.050403
v 0.106169 0.107629 0.073430
v 0.104972 0.107629 0.074437
v 0.110803 0.099618 0.080102
v 0.042249 0.000000 -0.001437
v 0.046369 0.031017 0.003458
v 0.057959 0.077062 0.017243
v 0.072844 0.103608 0.034952
v 0.083064 0.112581 0.047109
v 0.105598 0.107629 0.073911
v 0.000321 0.034541 0.016936
v -0.007768 0.034541 0.015798
v -0.007026 -0.000000 0.015282
v 0.000079 -0.000000 0.016280
v 0.000174 0.055946 0.018041
v -0.008528 0.055946 0.016818
v -0.001889 0.085223 0.023351
v -0.010973 0.085223 0.022074
v -0.004969 0.116411 0.030570
v -0.014053 0.116411 0.029293
v -0.008738 0.145394 0.038022
v -0.016711 0.145394 0.036901
v -0.013409 0.161163 0.045842
v -0.018863 0.161163 0.045075
v -0.024442 0.177077 0.066013
v -0.025318 0.177077 0.065890
v -0.026684 0.176170 0.070227
v -0.004106 0.034250 0.017312
v -0.003454 -0.000000 0.015784
v -0.004847 0.055446 0.019049
v -0.007444 0.084473 0.025141
v -0.010467 0.114959 0.032226
v -0.013356 0.144426 0.038991
v -0.016329 0.159880 0.045959
v -0.024861 0.177077 0.065955
v 0.000321 0.034541 0.016936
v -0.007768 0.034541 0.015798
v -0.007026 -0.000000 0.015282
v 0.000079 -0.000000 0.016280
v 0.000174 0.055946 0.018041
v -0.008528 0.055946 0.016818
v -0.001889 0.085223 0.023351
v -0.010973 0.085223 0.022074
v -0.004969 0.116411 0.030570
v -0.014053 0.116411 0.029293
v -0.008738 0.145394 0.038022
v -0.016711 0.145394 0.036901
v -0.013409 0.161163 0.045842
v -0.018863 0.161163 0.045075
v -0.024442 0.177077 0.066013
v -0.025318 0.177077 0.065890
v -0.026684 0.176170 0.070227
v -0.004106 0.034250 0.017312
v -0.003454 -0.000000 0.015784
v -0.004847 0.055446 0.019049
v -0.007444 0.084473 0.025141
v -0.010467 0.114959 0.032226
v -0.013356 0.144426 0.038991
v -0.016329 0.159880 0.045959
v -0.024861 0.177077 0.065955
v 0.040642 0.051499 -0.012516
v 0.031513 0.051499 -0.004943
v 0.032069 0.000000 -0.005404
v 0.040086 0.000000 -0.012055
v 0.040988 0.086477 -0.012803
v 0.031168 0.086477 -0.004656
v 0.045127 0.121937 -0.010782
v 0.034876 0.121937 -0.002278
v 0.058052 0.169318 -0.003539
v 0.047801 0.169318 0.004965
v 0.074847 0.195430 0.006745
v 0.065850 0.195430 0.014208
v 0.084991 0.202791 0.014405
v 0.078837 0.202791 0.019511
v 0.106572 0.195454 0.030090
v 0.105584 0.195454 0.030910
v 0.111711 0.187443 0.033626
v 0.037101 0.051499 -0.008187
v 0.036100 0.000000 -0.008748
v 0.037817 0.086477 -0.007786
v 0.042257 0.118843 -0.005301
v 0.054750 0.164888 0.001700
v 0.070794 0.191433 0.010695
v 0.081811 0.200406 0.016869
v 0.106100 0.195454 0.030482
v 0.040642 0.051499 -0.012516
v 0.031513 0.051499 -0.004943
v 0.032069 0.000000 -0.005404
v 0.040086 0.000000 -0.012055
v 0.040988 0.086477 -0.012803
v 0.031168 0.086477 -0.004656
v 0.045127 0.121937 -0.010782
v 0.034876 0.121937 -0.002278
v 0.058052 0.169318 -0.003539
v 0.047801 0.169318 0.004965
v 0.074847 0.195430 0.006745
v 0.065850 0.195430 0.014208
v 0.084991 0.202791 0.014405
v 0.078837 0.202791 0.019511
v 0.106572 0.195454 0.030090
v 0.105584 0.195454 0.030910
v 0.111711 0.187443 0.033626
v 0.037101 0.051499 -0.008187
v 0.036100 0.000000 -0.008748
v 0.037817 0.086477 -0.007786
v 0.042257 0.118843 -0.005301
v 0.054750 0.164888 0.001700
v 0.070794 0.191433 0.010695
v 0.081811 0.200406 0.016869
v 0.106100 0.195454 0.030482
v 0.047828 0.046054 -0.028840
v 0.038469 0.047487 -0.023920
v 0.033040 0.000000 -0.025737
v 0.041258 0.000000 -0.030057
v 0.054884 0.072631 -0.024034
v 0.044816 0.074172 -0.018742
v 0.070738 0.119687 -0.006835
v 0.060529 0.121642 -0.000876
v 0.088985 0.150653 0.014268
v 0.078776 0.152608 0.020227
v 0.105719 0.179053 0.035095
v 0.096759 0.180769 0.040325
v 0.115656 0.192359 0.051093
v 0.109526 0.193533 0.054671
v 0.130612 0.198512 0.080769
v 0.129627 0.198700 0.081344
v 0.135963 0.196853 0.090287
v 0.043609 0.046131 -0.025374
v 0.037172 0.000000 -0.027909
v 0.050624 0.072308 -0.019654
v 0.066489 0.118347 -0.001686
v 0.084340 0.148599 0.018971
v 0.101551 0.177890 0.038855
v 0.112251 0.191189 0.052823
v 0.130142 0.198601 0.081043
v 0.047828 0.046054 -0.028840
v 0.038469 0.047487 -0.023920
v 0.033040 0.000000 -0.025737
v 0.041258 0.000000 -0.030057
v 0.054884 0.072631 -0.024034
v 0.044816 0.074172 -0.018742
v 0.070738 0.119687 -0.006835
v 0.060529 0.121642 -0.000876
v 0.088985 0.150653 0.014268
v 0.078776 0.152608 0.020227
v 0.105719 0.179053 0.035095
v 0.096759 0.180769 0.040325
v 0.115656 0.192359 0.051093
v 0.109526 0.193533 0.054671
v 0.130612 0.198512 0.080769
v 0.129627 0.198700 0.081344
v 0.135963 0.196853 0.090287
v 0.043609 0.046131 -0.025374
v 0.037172 0.000000 -0.027909
v 0.050624 0.072308 -0.019654
v 0.066489 0.118347 -0.001686
v 0.084340 0.148599 0.018971
v 0.101551 0.177890 0.038855
v 0.112251 0.191189 0.052823
v 0.130142 0.198601 0.081043
v 0.015215 -0.000000 0.002898
v 0.009421 0.000000 -0.010333
v 0.015434 0.034501 0.003400
v 0.009201 0.034501 -0.010835
v 0.010389 0.077077 0.005981
v 0.003882 0.077077 -0.008878
v -0.006678 0.133967 0.013455
v -0.013185 0.133967 -0.001404
v -0.030083 0.165319 0.022621
v -0.035794 0.165319 0.009580
v -0.046258 0.174158 0.027250
v -0.050165 0.174158 0.018329
v -0.079808 0.165348 0.037479
v -0.080435 0.165348 0.036046
v -0.087517 0.155729 0.040040
v 0.011010 0.000000 -0.003106
v 0.010065 0.034501 -0.002692
v 0.004205 0.073362 -0.000123
v -0.012292 0.128647 0.007102
v -0.033484 0.160520 0.016378
v -0.048032 0.171294 0.022749
v -0.080107 0.165348 0.036795
v 0.015215 -0.000000 0.002898
v 0.009421 0.000000 -0.010333
v 0.015434 0.034501 0.003400
v 0.009201 0.034501 -0.010835
v 0.010389 0.077077 0.005981
v 0.003882 0.077077 -0.008878
v -0.006678 0.133967 0.013455
v -0.013185 0.133967 -0.001404
v -0.030083 0.165319 0.022621
v -0.035794 0.165319 0.009580
v -0.046258 0.174158 0.027250
v -0.050165 0.174158 0.018329
v -0.079808 0.165348 0.037479
v -0.080435 0.165348 0.036046
v -0.087517 0.155729 0.040040
v 0.011010 0.000000 -0.003106
v 0.010065 0.034501 -0.002692
v 0.004205 0.073362 -0.000123
v -0.012292 0.128647 0.007102
v -0.033484 0.160520 0.016378
v -0.048032 0.171294 0.022749
v -0.080107 0.165348 0.036795
v 0.018938 0.000000 -0.000368
v 0.030246 -0.000000 0.001909
v 0.014690 0.032658 0.012459
v 0.025998 0.035108 0.014735
v 0.011534 0.068250 0.025005
v 0.021459 0.070400 0.027003
v 0.011487 0.084925 0.034387
v 0.018276 0.086395 0.035754
v 0.014715 0.107395 0.044763
v 0.015815 0.107309 0.044951
v 0.015668 0.117872 0.048532
v 0.024985 -0.000000 0.002000
v 0.020836 0.030085 0.014554
v 0.016819 0.066792 0.026641
v 0.015129 0.083457 0.035010
v 0.015241 0.107353 0.044853
v 0.018938 0.000000 -0.000368
v 0.030246 -0.000000 0.001909
v 0.014690 0.032658 0.012459
v 0.025998 0.035108 0.014735
v 0.011534 0.068250 0.025005
v 0.021459 0.070400 0.027003
v 0.011487 0.084925 0.034387
v 0.018276 0.086395 0.035754
v 0.014715 0.107395 0.044763
v 0.015815 0.107309 0.044951
v 0.015668 0.117872 0.048532
v 0.024985 -0.000000 0.002000
v 0.020836 0.030085 0.014554
v 0.016819 0.066792 0.026641
v 0.015129 0.083457 0.035010
v 0.015241 0.107353 0.044853
v 0.017850 -0.000000 0.014197
v 0.021693 -0.000000 0.003704
v 0.006605 0.038713 0.012496
v 0.010382 0.041162 0.001432
v -0.006602 0.077518 0.009605
v -0.002826 0.079968 -0.001459
v -0.019015 0.113110 0.005902
v -0.015700 0.115260 -0.003809
v -0.027123 0.129785 0.001110
v -0.024855 0.131255 -0.005533
v -0.034425 0.152255 -0.007059
v -0.034029 0.152169 -0.008117
v -0.037189 0.162732 -0.009834
v 0.019041 -0.000000 0.008229
v 0.007634 0.037033 0.005987
v -0.005289 0.074945 0.003149
v -0.017743 0.111652 0.000437
v -0.025811 0.128318 -0.002396
v -0.034236 0.152214 -0.007564
v 0.017850 -0.000000 0.014197
v 0.021693 -0.000000 0.003704
v 0.006605 0.038713 0.012496
v 0.010382 0.041162 0.001432
v -0.006602 0.077518 0.009605
v -0.002826 0.079968 -0.001459
v -0.019015 0.113110 0.005902
v -0.015700 0.115260 -0.003809
v -0.027123 0.129785 0.001110
v -0.024855 0.131255 -0.005533
v -0.034425 0.152255 -0.007059
v -0.034029 0.152169 -0.008117
v -0.037189 0.162732 -0.009834
v 0.019041 -0.000000 0.008229
v 0.007634 0.037033 0.005987
v -0.005289 0.074945 0.003149
v -0.017743 0.111652 0.000437
v -0.025811 0.128318 -0.002396
v -0.034236 0.152214 -0.007564
v -0.007869 -0.000000 0.005998
v -0.006674 0.000000 -0.004501
v -0.012400 0.033260 0.009725
v -0.011114 0.034845 -0.001570
v -0.029460 0.082744 0.014380
v -0.028599 0.084808 0.002610
v -0.053059 0.116835 0.018631
v -0.052198 0.118899 0.006860
v -0.075923 0.148269 0.021724
v -0.075167 0.150080 0.011393
v -0.092952 0.163814 0.021513
v -0.092435 0.165053 0.014445
v -0.124949 0.174080 0.017899
v -0.124866 0.174279 0.016764
v -0.135963 0.173798 0.017143
v -0.008436 -0.000000 0.000573
v -0.013752 0.033205 0.003758
v -0.031582 0.081768 0.007986
v -0.054685 0.115080 0.012136
v -0.076916 0.147316 0.016159
v -0.092678 0.162665 0.017697
v -0.124909 0.174175 0.017357
v -0.007869 -0.000000 0.005998
v -0.006674 0.000000 -0.004501
v -0.012400 0.033260 0.009725
v -0.011114 0.034845 -0.001570
v -0.029460 0.082744 0.014380
v -0.028599 0.084808 0.002610
v -0.053059 0.116835 0.018631
v -0.052198 0.118899 0.006860
v -0.075923 0.148269 0.021724
v -0.075167 0.150080 0.011393
v -0.092952 0.163814 0.021513
v -0.092435 0.165053 0.014445
v -0.124949 0.174080 0.017899
v -0.124866 0.174279 0.016764
v -0.135963 0.173798 0.017143
v -0.008436 -0.000000 0.000573
v -0.013752 0.033205 0.003758
v -0.031582 0.081768 0.007986
v -0.054685 0.115080 0.012136
v -0.076916 0.147316 0.016159
v -0.092678 0.162665 0.017697
v -0.124909 0.174175 0.017357
v 0.021419 0.046054 -0.017473
v 0.014270 0.047487 -0.020407
v 0.011837 0.000000 -0.025131
v 0.018115 0.000000 -0.022554
v 0.023684 0.072631 -0.009752
v 0.015993 0.074172 -0.012909
v 0.026422 0.119687 0.011737
v 0.018405 0.121642 0.008920
v 0.029093 0.150653 0.037317
v 0.021076 0.152608 0.034500
v 0.031002 0.179053 0.061729
v 0.023966 0.180769 0.059256
v 0.030802 0.192359 0.078574
v 0.025989 0.193533 0.076882
v 0.028447 0.198512 0.107548
v 0.027674 0.198700 0.107277
v 0.028009 0.196853 0.117204
v 0.017738 0.046131 -0.017988
v 0.014993 0.000000 -0.023835
v 0.019644 0.072308 -0.009703
v 0.022106 0.118347 0.012292
v 0.024714 0.148599 0.037324
v 0.027242 0.177890 0.061438
v 0.028223 0.191189 0.077467
v 0.028078 0.198601 0.107419
v 0.021419 0.046054 -0.017473
v 0.014270 0.047487 -0.020407
v 0.011837 0.000000 -0.025131
v 0.018115 0.000000 -0.022554
v 0.023684 0.072631 -0.009752
v 0.015993 0.074172 -0.012909
v 0.026422 0.119687 0.011737
v -0.003170 -0.013657 -0.014339
v 0.029093 0.150653 0.037317
v -0.000499 0.017309 0.011241
v 0.031002 0.179053 0.061729
v 0.023966 0.180769 0.059256
v 0.030802 0.192359 0.078574
v 0.025989 0.193533 0.076882
v 0.028447 0.198512 0.107548
v 0.027674 0.198700 0.107277
v 0.028009 0.196853 0.117204
v 0.017738 0.046131 -0.017988
v 0.014993 0.000000 -0.023835
v 0.019644 0.072308 -0.009703
v 0.000531 -0.016952 -0.010967
v 0.003139 0.013300 0.014065
v 0.027242 0.177890 0.061438
v 0.028223 0.191189 0.077467
v 0.028078 0.198601 0.107419
v -0.010340 0.031067 -0.020197
v -0.010625 0.031067 -0.028362
v -0.009987 0.000000 -0.027720
v -0.009737 0.000000 -0.020550
v -0.011454 0.050318 -0.020150
v -0.011760 0.050318 -0.028933
v -0.017042 0.076650 -0.021260
v -0.017361 0.076650 -0.030428
v -0.024686 0.104700 -0.023040
v -0.025006 0.104700 -0.032208
v -0.032679 0.130767 -0.025457
v -0.032960 0.130767 -0.033504
v -0.041191 0.144951 -0.028700
v -0.041383 0.144951 -0.034204
v -0.062972 0.159263 -0.036063
v -0.063003 0.159263 -0.036947
v -0.067511 0.158447 -0.037538
v -0.011479 0.030804 -0.024492
v -0.009861 0.000000 -0.024115
v -0.013318 0.049868 -0.024920
v -0.019769 0.075975 -0.026420
v -0.027271 0.103395 -0.028167
v -0.034435 0.129897 -0.029837
v -0.041813 0.143796 -0.031555
v -0.062987 0.159263 -0.036485
v -0.010340 0.031067 -0.020197
v -0.010625 0.031067 -0.028362
v -0.009987 0.000000 -0.027720
v -0.009737 0.000000 -0.020550
v -0.011454 0.050318 -0.020150
v -0.011760 0.050318 -0.028933
v -0.017042 0.076650 -0.021260
v -0.017361 0.076650 -0.030428
v -0.024686 0.104700 -0.023040
v -0.025006 0.104700 -0.032208
v -0.032679 0.130767 -0.025457
v -0.032960 0.130767 -0.033504
v -0.041191 0.144951 -0.028700
v -0.041383 0.144951 -0.034204
v -0.062972 0.159263 -0.036063
v -0.063003 0.159263 -0.036947
v -0.067511 0.158447 -0.037538
v -0.011479 0.030804 -0.024492
v -0.009861 0.000000 -0.024115
v -0.013318 0.049868 -0.024920
v -0.019769 0.075975 -0.026420
v -0.027271 0.103395 -0.028167
v -0.034435 0.129897 -0.029837
v -0.041813 0.143796 -0.031555
v -0.062987 0.159263 -0.036485
v 0.010288 0.048516 0.034470
v 0.001245 0.048516 0.026795
v 0.001796 -0.000000 0.027262
v 0.009738 -0.000000 0.034002
v 0.010631 0.081469 0.034761
v 0.000903 0.081469 0.026504
v 0.009360 0.114875 0.039188
v -0.000795 0.114875 0.030569
v 0.004471 0.159512 0.053174
v -0.005684 0.159512 0.044555
v -0.002740 0.184112 0.071500
v -0.011653 0.184112 0.063935
v -0.008523 0.191046 0.082820
v -0.014620 0.191046 0.077645
v -0.020222 0.184134 0.106797
v -0.021201 0.184134 0.105966
v -0.022812 0.176587 0.112472
v 0.005411 0.048516 0.031734
v 0.005789 -0.000000 0.030651
v 0.005140 0.081469 0.032509
v 0.003463 0.111960 0.037313
v -0.001262 0.155338 0.050832
v -0.007334 0.180346 0.068195
v -0.011502 0.188799 0.080116
v -0.020689 0.184134 0.106400
v 0.010288 0.048516 0.034470
v 0.001245 0.048516 0.026795
v 0.001796 -0.000000 0.027262
v 0.009738 -0.000000 0.034002
v 0.010631 0.081469 0.034761
v 0.000903 0.081469 0.026504
v 0.009360 0.114875 0.039188
v -0.000795 0.114875 0.030569
v 0.004471 0.159512 0.053174
v -0.005684 0.159512 0.044555
v -0.002740 0.184112 0.071500
v -0.011653 0.184112 0.063935
v -0.008523 0.191046 0.082820
v -0.014620 0.191046 0.077645
v -0.020222 0.184134 0.106797
v -0.021201 0.184134 0.105966
v -0.022812 0.176587 0.112472
v 0.005411 0.048516 0.031734
v 0.005789 -0.000000 0.030651
v 0.005140 0.081469 0.032509
v 0.003463 0.111960 0.037313
v -0.001262 0.155338 0.050832
v -0.007334 0.180346 0.068195
v -0.011502 0.188799 0.080116
v -0.020689 0.184134 0.106400
v 0.042989 0.041702 0.018639
v 0.036520 0.043000 0.010277
v 0.037366 -0.000000 0.004614
v 0.043047 -0.000000 0.011958
v 0.039483 0.065768 0.026422
v 0.032523 0.067164 0.017426
v 0.025298 0.108378 0.045021
v 0.017657 0.110148 0.036003
v 0.007683 0.136418 0.066656
v 0.000042 0.138188 0.057637
v -0.009921 0.162135 0.086753
v -0.016627 0.163689 0.078837
v -0.023951 0.174184 0.099316
v -0.028538 0.175247 0.093901
v -0.050579 0.179755 0.119198
v -0.051315 0.179926 0.118329
v -0.059022 0.178253 0.126121
v 0.038844 0.041773 0.015086
v 0.040222 -0.000000 0.008306
v 0.034429 0.065476 0.022987
v 0.019489 0.107165 0.041732
v 0.002245 0.134559 0.062898
v -0.014348 0.161082 0.083301
v -0.026245 0.173124 0.096263
v -0.050930 0.179836 0.118783
v 0.042989 0.041702 0.018639
v 0.036520 0.043000 0.010277
v 0.037366 -0.000000 0.004614
v 0.043047 -0.000000 0.011958
v 0.039483 0.065768 0.026422
v 0.032523 0.067164 0.017426
v 0.025298 0.108378 0.045021
v 0.017657 0.110148 0.036003
v 0.007683 0.136418 0.066656
v 0.000042 0.138188 0.057637
v -0.009921 0.162135 0.086753
v -0.016627 0.163689 0.078837
v -0.023951 0.174184 0.099316
v -0.028538 0.175247 0.093901
v -0.050579 0.179755 0.119198
v -0.051315 0.179926 0.118329
v -0.059022 0.178253 0.126121
v 0.038844 0.041773 0.015086
v 0.040222 -0.000000 0.008306
v 0.034429 0.065476 0.022987
v 0.019489 0.107165 0.041732
v 0.002245 0.134559 0.062898
v -0.014348 0.161082 0.083301
v -0.026245 0.173124 0.096263
v -0.050930 0.179836 0.118783
v 0.005814 0.034541 -0.010713
v 0.012140 0.034541 -0.017130
v 0.012406 0.000000 -0.016097
v 0.006851 0.000000 -0.010461
v 0.004393 0.055946 -0.011635
v 0.011198 0.055946 -0.018538
v -0.001632 0.085223 -0.017275
v 0.005472 0.085223 -0.024482
v -0.009660 0.116411 -0.025190
v -0.002556 0.116411 -0.032396
v -0.017600 0.145394 -0.033886
v -0.011365 0.145394 -0.040211
v -0.025509 0.161163 -0.043653
v -0.021244 0.161163 -0.047980
v -0.046509 0.177077 -0.067937
v -0.045824 0.177077 -0.068631
v -0.050934 0.176170 -0.072953
v 0.007914 0.034250 -0.014939
v 0.009613 0.000000 -0.013263
v 0.005982 0.055446 -0.016843
v -0.000794 0.084473 -0.023520
v -0.008673 0.114959 -0.031288
v -0.016196 0.144426 -0.038707
v -0.023945 0.159880 -0.046346
v -0.046182 0.177077 -0.068268
v 0.005814 0.034541 -0.010713
v 0.012140 0.034541 -0.017130
v 0.012406 0.000000 -0.016097
v 0.006851 0.000000 -0.010461
v 0.004393 0.055946 -0.011635
v 0.011198 0.055946 -0.018538
v -0.001632 0.085223 -0.017275
v 0.005472 0.085223 -0.024482
v -0.009660 0.116411 -0.025190
v -0.002556 0.116411 -0.032396
v -0.017600 0.145394 -0.033886
v -0.011365 0.145394 -0.040211
v -0.025509 0.161163 -0.043653
v -0.021244 0.161163 -0.047980
v -0.046509 0.177077 -0.067937
v -0.045824 0.177077 -0.068631
v -0.050934 0.176170 -0.072953
v 0.007914 0.034250 -0.014939
v 0.009613 0.000000 -0.013263
v 0.005982 0.055446 -0.016843
v -0.000794 0.084473 -0.023520
v -0.008673 0.114959 -0.031288
v -0.016196 0.144426 -0.038707
v -0.023945 0.159880 -0.046346
v -0.046182 0.177077 -0.068268
v -0.012179 0.057391 0.034423
v -0.019630 0.057923 0.022059
v -0.014882 -0.000000 0.017921
v -0.008339 -0.000000 0.028779
v -0.014680 0.092094 0.038062
v -0.022695 0.092666 0.024761
v -0.022151 0.126633 0.044447
v -0.030517 0.127230 0.030563
v -0.041814 0.171529 0.058227
v -0.050181 0.172126 0.044342
v -0.065828 0.194602 0.072530
v -0.073171 0.195127 0.060344
v -0.081797 0.200078 0.079760
v -0.086820 0.200436 0.071424
v -0.113037 0.188944 0.093330
v -0.113843 0.189002 0.091991
v -0.119685 0.180090 0.096083
v -0.017117 0.057490 0.029006
v -0.011593 -0.000000 0.023380
v -0.020780 0.092095 0.032702
v -0.028811 0.123489 0.038895
v -0.047837 0.167130 0.052236
v -0.069684 0.190825 0.066416
v -0.083946 0.197909 0.075314
v -0.113422 0.188972 0.092691
v -0.012179 0.057391 0.034423
v -0.019630 0.057923 0.022059
v -0.014882 -0.000000 0.017921
v -0.008339 -0.000000 0.028779
v -0.014680 0.092094 0.038062
v -0.022695 0.092666 0.024761
v -0.022151 0.126633 0.044447
v -0.030517 0.127230 0.030563
v -0.041814 0.171529 0.058227
v -0.050181 0.172126 0.044342
v -0.065828 0.194602 0.072530
v -0.073171 0.195127 0.060344
v -0.081797 0.200078 0.079760
v -0.086820 0.200436 0.071424
v -0.113037 0.188944 0.093330
v -0.113843 0.189002 0.091991
v -0.119685 0.180090 0.096083
v -0.017117 0.057490 0.029006
v -0.011593 -0.000000 0.023380
v -0.020780 0.092095 0.032702
v -0.028811 0.123489 0.038895
v -0.047837 0.167130 0.052236
v -0.069684 0.190825 0.066416
v -0.083946 0.197909 0.075314
v -0.113422 0.188972 0.092691
vn 0.6441 -0.0143 -0.7648
vn 0.8578 -0.0126 -0.5139
vn 0.8250 -0.0122 -0.5650
vn 0.7020 -0.0132 -0.7120
vn 0.5241 -0.0899 -0.8469
vn 0.9041 -0.0694 -0.4217
vn 0.3683 -0.2708 -0.8894
vn 0.9232 -0.1978 -0.3295
vn 0.1961 -0.5252 -0.8281
vn 0.8941 -0.3793 -0.2381
vn 0.0125 -0.7547 -0.6560
vn 0.7962 -0.5902 -0.1334
vn -0.3294 -0.8903 -0.3144
vn 0.5673 -0.8193 0.0833
vn -0.5716 -0.7847 0.2399
vn -0.0712 -0.9034 0.4228
vn -0.5829 -0.6529 0.4837
vn 0.7617 -0.0136 -0.6478
vn 0.7674 -0.0127 -0.6411
vn 0.7493 -0.0841 -0.6569
vn 0.7212 -0.2224 -0.6560
vn 0.6532 -0.4450 -0.6126
vn 0.4995 -0.7232 -0.4769
vn 0.1501 -0.9773 -0.1495
vn -0.4340 -0.8504 0.2975
vn -0.6441 0.0143 0.7648
vn -0.8578 0.0126 0.5139
vn -0.8250 0.0122 0.5650
vn -0.7020 0.0132 0.7120
vn -0.5241 0.0899 0.8469
vn -0.9041 0.0694 0.4217
vn -0.3683 0.2708 0.8894
vn -0.9232 0.1978 0.3295
vn -0.1961 0.5252 0.8281
vn -0.8941 0.3793 0.2381
vn -0.0125 0.7547 0.6560
vn -0.7962 0.5902 0.1334
vn 0.3294 0.8903 0.3144
vn -0.5673 0.8193 -0.0833
vn 0.5716 0.7847 -0.2399
vn 0.0712 0.9034 -0.4228
vn 0.5829 0.6529 -0.4837
vn -0.7617 0.0136 0.6478
vn -0.7674 0.0127 0.6411
vn -0.7493 0.0841 0.6569
vn -0.7212 0.2224 0.6560
vn -0.6532 0.4450 0.6126
vn -0.4995 0.7232 0.4769
vn -0.1501 0.9773 0.1495
vn 0.4340 0.8504 -0.2975
vn -0.6251 -0.2203 -0.7488
vn -0.2092 -0.1402 -0.9678
vn -0.3169 -0.0777 -0.9453
vn -0.5511 -0.1080 -0.8274
vn -0.7240 -0.3989 -0.5628
vn -0.0457 -0.2381 -0.9702
vn -0.7328 -0.5840 -0.3493
vn 0.0795 -0.3374 -0.9380
vn -0.6838 -0.6722 -0.2838
vn 0.1193 -0.4015 -0.9080
vn -0.5890 -0.7534 -0.2924
vn 0.1158 -0.4828 -0.8680
vn -0.3907 -0.9171 -0.0790
vn 0.2270 -0.6572 -0.7187
vn 0.0014 -1.0000 0.0060
vn 0.2974 -0.8697 -0.3938
vn 0.2235 -0.9746 -0.0146
vn -0.4253 -0.1742 -0.8881
vn -0.4293 -0.0926 -0.8984
vn -0.4120 -0.3387 -0.8459
vn -0.3713 -0.5134 -0.7737
vn -0.3372 -0.6322 -0.6975
vn -0.2789 -0.6923 -0.6655
vn -0.1258 -0.8499 -0.5118
vn 0.0949 -0.9870 -0.1296
vn 0.6251 0.2203 0.7488
vn 0.2092 0.1402 0.9678
vn 0.3169 0.0777 0.9453
vn 0.5511 0.1080 0.8274
vn 0.7240 0.3989 0.5628
vn 0.0457 0.2381 0.9702
vn 0.7328 0.5840 0.3493
vn -0.0795 0.3374 0.9380
vn 0.6838 0.6722 0.2838
vn -0.1193 0.4015 0.9080
vn 0.5890 0.7534 0.2924
vn -0.1158 0.4828 0.8680
vn 0.3907 0.9171 0.0790
vn -0.2270 0.6572 0.7187
vn -0.0014 1.0000 -0.0060
vn -0.2974 0.8697 0.3938
vn -0.2235 0.9746 0.0146
vn 0.4253 0.1742 0.8881
vn 0.4293 0.0926 0.8984
vn 0.4120 0.3387 0.8459
vn 0.3713 0.5134 0.7737
vn 0.3372 0.6322 0.6975
vn 0.2789 0.6923 0.6655
vn 0.1258 0.8499 0.5118
vn -0.0949 0.9870 0.1296
vn 0.0936 -0.1714 -0.9807
vn 0.7384 -0.1716 -0.6522
vn 0.0263 -0.2619 -0.9647
vn 0.7646 -0.2622 -0.5887
vn -0.0790 -0.4861 -0.8703
vn 0.7496 -0.4870 -0.4483
vn -0.1631 -0.7100 -0.6850
vn 0.6480 -0.7116 -0.2714
vn -0.3153 -0.8865 -0.3387
vn 0.4537 -0.8895 0.0546
vn -0.3951 -0.8735 0.2843
vn -0.0031 -0.8748 0.4844
vn -0.3204 -0.7105 0.6265
vn 0.4462 -0.1840 -0.8758
vn 0.4380 -0.2612 -0.8602
vn 0.3922 -0.5014 -0.7713
vn 0.2881 -0.7709 -0.5681
vn 0.0827 -0.9820 -0.1699
vn -0.2117 -0.8876 0.4090
vn -0.0936 0.1714 0.9807
vn -0.7384 0.1716 0.6522
vn -0.0263 0.2619 0.9647
vn -0.7646 0.2622 0.5887
vn 0.0790 0.4861 0.8703
vn -0.7496 0.4870 0.4483
vn 0.1631 0.7100 0.6850
vn -0.6480 0.7116 0.2714
vn 0.3153 0.8865 0.3387
vn -0.4537 0.8895 -0.0546
vn 0.3951 0.8735 -0.2843
vn 0.0031 0.8748 -0.4845
vn 0.3204 0.7105 -0.6265
vn -0.4462 0.1840 0.8758
vn -0.4380 0.2612 0.8602
vn -0.3922 0.5014 0.7713
vn -0.2881 0.7709 0.5681
vn -0.0827 0.9820 0.1699
vn 0.2117 0.8876 -0.4090
vn -0.9704 0.0480 0.2366
vn -0.9757 0.0552 -0.2120
vn -0.9939 0.0341 -0.1053
vn -0.9877 0.0318 0.1529
vn -0.9215 0.1149 0.3711
vn -0.9082 0.1432 -0.3933
vn -0.8759 0.1734 0.4502
vn -0.8349 0.2174 -0.5057
vn -0.8685 0.1892 0.4582
vn -0.8256 0.2371 -0.5120
vn -0.8653 0.2783 0.4169
vn -0.8234 0.3503 -0.4465
vn -0.7551 0.5265 0.3906
vn -0.6476 0.6465 -0.4034
vn -0.3432 0.9029 0.2587
vn -0.1400 0.9704 -0.1969
vn 0.1981 0.9802 -0.0054
vn -0.9985 0.0513 0.0163
vn -0.9991 0.0332 0.0251
vn -0.9910 0.1340 -0.0032
vn -0.9747 0.2215 -0.0280
vn -0.9694 0.2433 -0.0340
vn -0.9400 0.3408 -0.0155
vn -0.8005 0.5994 0.0014
vn -0.2123 0.9766 -0.0334
vn 0.9704 -0.0480 -0.2366
vn 0.9757 -0.0552 0.2120
vn 0.9939 -0.0341 0.1053
vn 0.9877 -0.0318 -0.1529
vn 0.9215 -0.1149 -0.3711
vn 0.9082 -0.1432 0.3933
vn 0.8759 -0.1734 -0.4502
vn 0.8349 -0.2174 0.5057
vn 0.8685 -0.1892 -0.4582
vn 0.8256 -0.2371 0.5120
vn 0.8653 -0.2783 -0.4169
vn 0.8234 -0.3503 0.4465
vn 0.7551 -0.5265 -0.3906
vn 0.6476 -0.6465 0.4034
vn 0.3432 -0.9029 -0.2587
vn 0.1400 -0.9704 0.1969
vn -0.1981 -0.9802 0.0054
vn 0.9985 -0.0513 -0.0163
vn 0.9991 -0.0332 -0.0251
vn 0.9910 -0.1340 0.0032
vn 0.9747 -0.2215 0.0280
vn 0.9694 -0.2433 0.0340
vn 0.9400 -0.3408 0.0155
vn 0.8005 -0.5994 -0.0014
vn 0.2123 -0.9766 0.0334
vn 0.5075 -0.0124 -0.8615
vn 0.7600 -0.0109 -0.6498
vn 0.7192 -0.0106 -0.6947
vn 0.5734 -0.0114 -0.8192
vn 0.3758 -0.0782 -0.9234
vn 0.8216 -0.0605 -0.5668
vn 0.2137 -0.2406 -0.9468
vn 0.8599 -0.1753 -0.4794
vn 0.0524 -0.4808 -0.8753
vn 0.8557 -0.3436 -0.3869
vn -0.1091 -0.7129 -0.6928
vn 0.7936 -0.5449 -0.2708
vn -0.4224 -0.8621 -0.2800
vn 0.6198 -0.7848 -0.0038
vn -0.5683 -0.7441 0.3511
vn 0.0091 -0.8798 0.4752
vn -0.5219 -0.5997 0.6066
vn 0.6429 -0.0118 -0.7658
vn 0.6497 -0.0111 -0.7601
vn 0.6291 -0.0732 -0.7738
vn 0.6050 -0.1921 -0.7727
vn 0.5544 -0.3920 -0.7341
vn 0.4402 -0.6706 -0.5970
vn 0.1388 -0.9710 -0.1945
vn -0.4116 -0.8202 0.3973
vn -0.5075 0.0124 0.8615
vn -0.7600 0.0109 0.6498
vn -0.7192 0.0106 0.6947
vn -0.5734 0.0114 0.8192
vn -0.3758 0.0782 0.9234
vn -0.8216 0.0605 0.5668
vn -0.2137 0.2406 0.9468
vn -0.8599 0.1753 0.4794
vn -0.0524 0.4808 0.8753
vn -0.8557 0.3436 0.3869
vn 0.1091 0.7129 0.6928
vn -0.7936 0.5449 0.2708
vn 0.4224 0.8621 0.2800
vn -0.6198 0.7848 0.0038
vn 0.5683 0.7441 -0.3511
vn -0.0091 0.8798 -0.4752
vn 0.5219 0.5997 -0.6066
vn -0.6429 0.0118 0.7658
vn -0.6497 0.0111 0.7601
vn -0.6291 0.0732 0.7738
vn -0.6050 0.1921 0.7727
vn -0.5544 0.3920 0.7341
vn -0.4402 0.6706 0.5970
vn -0.1388 0.9710 0.1945
vn 0.4116 0.8202 -0.3973
vn 0.8467 -0.1987 -0.4936
vn 0.9909 -0.1280 -0.0416
vn 0.9855 -0.0700 -0.1547
vn 0.9087 -0.0973 -0.4059
vn 0.6855 -0.3649 -0.6301
vn 0.9687 -0.2170 0.1202
vn 0.4791 -0.5464 -0.6870
vn 0.9198 -0.3099 0.2406
vn 0.4127 -0.6327 -0.6552
vn 0.8892 -0.3676 0.2723
vn 0.4088 -0.7194 -0.5615
vn 0.8536 -0.4485 0.2651
vn 0.1513 -0.9023 -0.4037
vn 0.6943 -0.6216 0.3628
vn -0.0079 -1.0000 -0.0007
vn 0.3598 -0.8494 0.3861
vn -0.0261 -0.9691 0.2452
vn 0.9486 -0.1570 -0.2748
vn 0.9579 -0.0835 -0.2745
vn 0.9120 -0.3076 -0.2715
vn 0.8447 -0.4730 -0.2504
vn 0.7700 -0.5939 -0.2331
vn 0.7351 -0.6537 -0.1795
vn 0.5638 -0.8245 -0.0485
vn 0.1204 -0.9847 0.1261
vn -0.8467 0.1987 0.4936
vn -0.9909 0.1280 0.0416
vn -0.9855 0.0700 0.1547
vn -0.9087 0.0973 0.4059
vn -0.6855 0.3649 0.6301
vn -0.9687 0.2170 -0.1202
vn -0.4791 0.5464 0.6870
vn -0.9198 0.3099 -0.2406
vn -0.4127 0.6327 0.6552
vn -0.8892 0.3676 -0.2723
vn -0.4088 0.7194 0.5615
vn -0.8536 0.4485 -0.2651
vn -0.1513 0.9023 0.4037
vn -0.6943 0.6216 -0.3628
vn 0.0079 1.0000 0.0007
vn -0.3598 0.8494 -0.3861
vn 0.0261 0.9691 -0.2452
vn -0.9486 0.1570 0.2748
vn -0.9579 0.0835 0.2745
vn -0.9120 0.3076 0.2715
vn -0.8447 0.4730 0.2504
vn -0.7700 0.5939 0.2331
vn -0.7351 0.6537 0.1795
vn -0.5638 0.8245 0.0485
vn -0.1204 0.9847 -0.1261
vn 0.8674 -0.1714 0.4672
vn 0.3143 -0.1716 0.9337
vn 0.8788 -0.2619 0.3990
vn 0.2456 -0.2622 0.9332
vn 0.8327 -0.4861 0.2652
vn 0.1220 -0.4870 0.8648
vn 0.6946 -0.7100 0.1158
vn -0.0016 -0.7116 0.7026
vn 0.4346 -0.8865 -0.1590
vn -0.2265 -0.8895 0.3969
vn -0.1086 -0.8736 -0.4744
vn -0.4452 -0.8748 -0.1910
vn -0.4530 -0.7105 -0.5385
vn 0.6338 -0.1840 0.7513
vn 0.6225 -0.2612 0.7377
vn 0.5584 -0.5013 0.6609
vn 0.4116 -0.7709 0.4861
vn 0.1244 -0.9820 0.1422
vn -0.2948 -0.8876 -0.3539
vn -0.8674 0.1714 -0.4672
vn -0.3143 0.1716 -0.9337
vn -0.8788 0.2619 -0.3990
vn -0.2456 0.2622 -0.9332
vn -0.8327 0.4861 -0.2652
vn -0.1220 0.4870 -0.8648
vn -0.6946 0.7100 -0.1158
vn 0.0016 0.7116 -0.7026
vn -0.4346 0.8865 0.1590
vn 0.2265 0.8895 -0.3969
vn 0.1086 0.8736 0.4744
vn 0.4452 0.8748 0.1910
vn 0.4530 0.7105 0.5385
vn -0.6338 0.1840 -0.7513
vn -0.6225 0.2612 -0.7377
vn -0.5584 0.5013 -0.6609
vn -0.4116 0.7709 -0.4861
vn -0.1244 0.9820 -0.1422
vn 0.2948 0.8876 0.3539
vn -0.0715 0.0480 -0.9963
vn 0.3718 0.0552 -0.9267
vn 0.2696 0.0341 -0.9624
vn 0.0139 0.0318 -0.9994
vn -0.2122 0.1149 -0.9704
vn 0.5392 0.1432 -0.8299
vn -0.2979 0.1734 -0.9387
vn 0.6379 0.2174 -0.7388
vn -0.3070 0.1892 -0.9327
vn 0.6426 0.2371 -0.7286
vn -0.2667 0.2783 -0.9227
vn 0.5777 0.3503 -0.7373
vn -0.2593 0.5265 -0.8097
vn 0.5060 0.6464 -0.5711
vn -0.1979 0.9025 -0.3826
vn 0.2178 0.9703 -0.1055
vn -0.0276 0.9802 0.1963
vn 0.1505 0.0513 -0.9873
vn 0.1419 0.0332 -0.9893
vn 0.1684 0.1340 -0.9766
vn 0.1901 0.2215 -0.9564
vn 0.1952 0.2433 -0.9501
vn 0.1721 0.3408 -0.9243
vn 0.1322 0.5994 -0.7895
vn 0.0686 0.9768 -0.2029
vn 0.0715 -0.0480 0.9963
vn -0.3718 -0.0552 0.9267
vn -0.2696 -0.0341 0.9624
vn -0.0139 -0.0318 0.9994
vn 0.2122 -0.1149 0.9704
vn -0.5392 -0.1432 0.8299
vn 0.2979 -0.1734 0.9387
vn -0.6379 -0.2174 0.7388
vn 0.3070 -0.1892 0.9327
vn -0.6426 -0.2371 0.7286
vn 0.2667 -0.2783 0.9227
vn -0.5777 -0.3503 0.7373
vn 0.2593 -0.5265 0.8097
vn -0.5060 -0.6464 0.5711
vn 0.1979 -0.9025 0.3826
vn -0.2178 -0.9703 0.1055
vn 0.0276 -0.9802 -0.1963
vn -0.1505 -0.0513 0.9873
vn -0.1419 -0.0332 0.9893
vn -0.1684 -0.1340 0.9766
vn -0.1901 -0.2215 0.9564
vn -0.1952 -0.2433 0.9501
vn -0.1721 -0.3408 0.9243
vn -0.1322 -0.5994 0.7895
vn -0.0686 -0.9768 0.2029
vn 0.7649 -0.0124 0.6441
vn 0.5140 -0.0109 0.8577
vn 0.5650 -0.0106 0.8250
vn 0.7121 -0.0114 0.7020
vn 0.8478 -0.0782 0.5245
vn 0.4219 -0.0605 0.9046
vn 0.8979 -0.2406 0.3686
vn 0.3293 -0.1753 0.9278
vn 0.8542 -0.4808 0.1976
vn 0.2389 -0.3436 0.9082
vn 0.7013 -0.7129 0.0080
vn 0.1347 -0.5449 0.8276
vn 0.3465 -0.8621 -0.3698
vn -0.0996 -0.7848 0.6117
vn -0.2515 -0.7442 -0.6188
vn -0.4701 -0.8798 -0.0702
vn -0.5111 -0.5997 -0.6158
vn 0.6479 -0.0118 0.7616
vn 0.6412 -0.0111 0.7673
vn 0.6581 -0.0732 0.7494
vn 0.6610 -0.1921 0.7253
vn 0.6314 -0.3920 0.6691
vn 0.5153 -0.6706 0.5336
vn 0.1686 -0.9710 0.1693
vn -0.3231 -0.8201 -0.4722
vn -0.7649 0.0124 -0.6441
vn -0.5140 0.0109 -0.8577
vn -0.5650 0.0106 -0.8250
vn -0.7121 0.0114 -0.7020
vn -0.8478 0.0782 -0.5245
vn -0.4219 0.0605 -0.9046
vn -0.8979 0.2406 -0.3686
vn -0.3293 0.1753 -0.9278
vn -0.8542 0.4808 -0.1976
vn -0.2389 0.3436 -0.9082
vn -0.7013 0.7129 -0.0080
vn -0.1347 0.5449 -0.8276
vn -0.3465 0.8621 0.3698
vn 0.0996 0.7848 -0.6117
vn 0.2515 0.7442 0.6188
vn 0.4701 0.8798 0.0702
vn 0.5111 0.5997 0.6158
vn -0.6479 0.0118 -0.7616
vn -0.6412 0.0111 -0.7673
vn -0.6581 0.0732 -0.7494
vn -0.6610 0.1921 -0.7253
vn -0.6314 0.3920 -0.6691
vn -0.5153 0.6706 -0.5336
vn -0.1686 0.9710 -0.1693
vn 0.3231 0.8201 0.4722
vn 0.6103 -0.2184 0.7614
vn 0.2398 -0.1674 0.9563
vn 0.3516 -0.0879 0.9320
vn 0.5558 -0.1119 0.8237
vn 0.6819 -0.3847 0.6221
vn 0.0574 -0.2973 0.9530
vn 0.6889 -0.5577 0.4630
vn -0.0942 -0.4302 0.8978
vn 0.6461 -0.6541 0.3933
vn -0.1372 -0.5052 0.8520
vn 0.5672 -0.7294 0.3825
vn -0.1315 -0.5968 0.7916
vn 0.3958 -0.8974 0.1951
vn -0.2576 -0.7746 0.5776
vn 0.0486 -0.9988 0.0046
vn -0.2941 -0.9317 0.2131
vn -0.2149 -0.9754 -0.0491
vn 0.4369 -0.1876 0.8797
vn 0.4504 -0.0999 0.8872
vn 0.3983 -0.3593 0.8440
vn 0.3325 -0.5399 0.7733
vn 0.2870 -0.6523 0.7016
vn 0.2430 -0.7212 0.6487
vn 0.1020 -0.8832 0.4579
vn -0.1264 -0.9867 0.1023
vn -0.6103 0.2184 -0.7614
vn -0.2398 0.1674 -0.9563
vn -0.3516 0.0879 -0.9320
vn -0.5558 0.1119 -0.8237
vn -0.6819 0.3847 -0.6221
vn -0.0574 0.2973 -0.9530
vn -0.6889 0.5577 -0.4630
vn 0.0942 0.4302 -0.8978
vn -0.6461 0.6541 -0.3933
vn 0.1372 0.5052 -0.8520
vn -0.5672 0.7294 -0.3825
vn 0.1315 0.5968 -0.7916
vn -0.3958 0.8974 -0.1951
vn 0.2576 0.7746 -0.5776
vn -0.0486 0.9988 -0.0046
vn 0.2941 0.9317 -0.2132
vn 0.2148 0.9754 0.0491
vn -0.4369 0.1876 -0.8797
vn -0.4504 0.0999 -0.8872
vn -0.3983 0.3593 -0.8440
vn -0.3325 0.5399 -0.7733
vn -0.2870 0.6523 -0.7016
vn -0.2430 0.7212 -0.6487
vn -0.1020 0.8832 -0.4579
vn 0.1264 0.9867 -0.1023
vn -0.7840 -0.0165 0.6205
vn -0.9874 -0.0165 0.1576
vn -0.7438 -0.0771 0.6639
vn -0.9921 -0.0772 0.0991
vn -0.6353 -0.2221 0.7397
vn -0.9745 -0.2224 -0.0311
vn -0.5011 -0.4315 0.7501
vn -0.8913 -0.4324 -0.1364
vn -0.3253 -0.6522 0.6847
vn -0.7235 -0.6539 -0.2210
vn 0.0438 -0.8498 0.5253
vn -0.3538 -0.8537 -0.3822
vn 0.5493 -0.8344 0.0446
vn 0.3414 -0.8363 -0.4290
vn 0.7012 -0.6436 -0.3068
vn -0.9154 -0.0170 0.4021
vn -0.9123 -0.0827 0.4010
vn -0.8944 -0.2128 0.3935
vn -0.8270 -0.4280 0.3645
vn -0.6475 -0.7063 0.2861
vn -0.2012 -0.9751 0.0928
vn 0.4766 -0.8547 -0.2057
vn 0.7840 0.0165 -0.6205
vn 0.9874 0.0165 -0.1576
vn 0.7438 0.0771 -0.6639
vn 0.9921 0.0772 -0.0991
vn 0.6353 0.2221 -0.7397
vn 0.9745 0.2224 0.0311
vn 0.5011 0.4315 -0.7501
vn 0.8913 0.4324 0.1364
vn 0.3253 0.6522 -0.6847
vn 0.7236 0.6539 0.2210
vn -0.0438 0.8498 -0.5253
vn 0.3538 0.8537 0.3822
vn -0.5493 0.8344 -0.0446
vn -0.3414 0.8363 0.4290
vn -0.7012 0.6436 0.3068
vn 0.9154 0.0170 -0.4021
vn 0.9123 0.0827 -0.4010
vn 0.8944 0.2128 -0.3935
vn 0.8270 0.4280 -0.3645
vn 0.6475 0.7063 -0.2861
vn 0.2012 0.9751 -0.0928
vn -0.4766 0.8547 0.2057
vn 0.3880 0.3898 -0.8352
vn -0.1562 0.3408 -0.9271
vn 0.3932 0.3543 -0.8485
vn -0.1903 0.3068 -0.9326
vn 0.3746 0.3995 -0.8367
vn -0.2235 0.3797 -0.8977
vn 0.3158 0.4049 -0.8581
vn -0.1359 0.3984 -0.9071
vn 0.2378 0.3439 -0.9084
vn 0.0402 0.3567 -0.9334
vn 0.1838 0.3179 -0.9301
vn 0.1110 0.3793 -0.9186
vn 0.1163 0.3617 -0.9250
vn 0.0889 0.3783 -0.9214
vn 0.0760 0.4322 -0.8986
vn 0.1416 0.3504 -0.9258
vn -0.3880 -0.3898 0.8352
vn 0.1562 -0.3408 0.9271
vn -0.3932 -0.3543 0.8485
vn 0.1903 -0.3068 0.9326
vn -0.3746 -0.3995 0.8367
vn 0.2235 -0.3797 0.8977
vn -0.3158 -0.4049 0.8581
vn 0.1359 -0.3984 0.9071
vn -0.2378 -0.3439 0.9084
vn -0.0402 -0.3567 0.9334
vn -0.1838 -0.3179 0.9301
vn -0.1110 -0.3793 0.9186
vn -0.1163 -0.3617 0.9250
vn -0.0889 -0.3783 0.9214
vn -0.0760 -0.4322 0.8986
vn -0.1416 -0.3504 0.9258
vn -0.9481 -0.2903 -0.1296
vn -0.7742 -0.2583 -0.5779
vn -0.9460 -0.3110 -0.0917
vn -0.7152 -0.2756 -0.6423
vn -0.9408 -0.3292 -0.0806
vn -0.6991 -0.2905 -0.6533
vn -0.9113 -0.3993 -0.1003
vn -0.6644 -0.3819 -0.6424
vn -0.8999 -0.4054 -0.1608
vn -0.7162 -0.4005 -0.5716
vn -0.9041 -0.3445 -0.2528
vn -0.8272 -0.3577 -0.4333
vn -0.8960 -0.3184 -0.3095
vn -0.8845 -0.2821 -0.3716
vn -0.8800 -0.2979 -0.3699
vn -0.8618 -0.3244 -0.3899
vn -0.8406 -0.3792 -0.3867
vn -0.8144 -0.4330 -0.3863
vn -0.8710 -0.3511 -0.3437
vn 0.9481 0.2903 0.1296
vn 0.7742 0.2583 0.5779
vn 0.9460 0.3110 0.0917
vn 0.7152 0.2756 0.6423
vn 0.9408 0.3292 0.0806
vn 0.6991 0.2905 0.6533
vn 0.9113 0.3993 0.1003
vn 0.6644 0.3819 0.6424
vn 0.8999 0.4054 0.1608
vn 0.7162 0.4005 0.5716
vn 0.9041 0.3445 0.2528
vn 0.8272 0.3577 0.4333
vn 0.8960 0.3184 0.3095
vn 0.8845 0.2821 0.3716
vn 0.8800 0.2979 0.3699
vn 0.8618 0.3244 0.3899
vn 0.8406 0.3792 0.3867
vn 0.8144 0.4330 0.3863
vn 0.8710 0.3511 0.3437
vn -0.9731 -0.1613 0.1647
vn -0.9114 -0.0947 -0.4005
vn -0.9394 -0.2577 0.2262
vn -0.8632 -0.1753 -0.4734
vn -0.8285 -0.4639 0.3138
vn -0.7468 -0.3304 -0.5772
vn -0.7593 -0.5697 0.3145
vn -0.6946 -0.4123 -0.5895
vn -0.7167 -0.6498 0.2531
vn -0.6590 -0.5096 -0.5533
vn -0.4888 -0.8469 0.2093
vn -0.4349 -0.7170 -0.5447
vn -0.1541 -0.9878 0.0203
vn -0.1322 -0.9162 -0.3783
vn 0.0369 -0.9848 -0.1700
vn -0.9810 -0.1312 -0.1431
vn -0.9657 -0.2237 -0.1317
vn -0.8895 -0.4303 -0.1539
vn -0.8192 -0.5523 -0.1547
vn -0.7599 -0.6291 -0.1638
vn -0.5449 -0.8189 -0.1801
vn -0.1384 -0.9741 -0.1787
vn 0.9731 0.1613 -0.1647
vn 0.9114 0.0947 0.4005
vn 0.9394 0.2577 -0.2262
vn 0.8632 0.1753 0.4734
vn 0.8285 0.4639 -0.3138
vn 0.7468 0.3304 0.5772
vn 0.7593 0.5697 -0.3145
vn 0.6946 0.4123 0.5895
vn 0.7167 0.6498 -0.2531
vn 0.6590 0.5096 0.5533
vn 0.4888 0.8469 -0.2093
vn 0.4349 0.7170 0.5447
vn 0.1541 0.9878 -0.0203
vn 0.1322 0.9162 0.3783
vn -0.0369 0.9848 0.1700
vn 0.9810 0.1312 0.1431
vn 0.9657 0.2237 0.1317
vn 0.8895 0.4303 0.1539
vn 0.8192 0.5523 0.1547
vn 0.7599 0.6291 0.1638
vn 0.5449 0.8189 0.1801
vn 0.1384 0.9741 0.1787
vn -0.1480 -0.1987 0.9688
vn -0.5903 -0.1280 0.7970
vn -0.4988 -0.0700 0.8639
vn -0.2551 -0.0973 0.9620
vn 0.0595 -0.3649 0.9292
vn -0.7022 -0.2170 0.6781
vn 0.2335 -0.5464 0.8043
vn -0.7652 -0.3099 0.5644
vn 0.2505 -0.6327 0.7327
vn -0.7706 -0.3676 0.5207
vn 0.1800 -0.7194 0.6709
vn -0.7426 -0.4485 0.4974
vn 0.2191 -0.9023 0.3713
vn -0.7184 -0.6217 0.3122
vn 0.0054 -1.0000 -0.0055
vn -0.5261 -0.8496 0.0372
vn -0.1745 -0.9691 -0.1744
vn -0.3822 -0.1570 0.9106
vn -0.3883 -0.0835 0.9178
vn -0.3618 -0.3076 0.8800
vn -0.3360 -0.4730 0.8145
vn -0.3024 -0.5939 0.7455
vn -0.3222 -0.6538 0.6847
vn -0.3164 -0.8246 0.4691
vn -0.1738 -0.9847 0.0143
vn 0.1480 0.1987 -0.9688
vn 0.5903 0.1280 -0.7970
vn 0.4988 0.0700 -0.8639
vn 0.2551 0.0973 -0.9620
vn -0.6134 0.3321 -0.7166
vn 0.2300 0.9716 0.0551
vn -0.9639 0.2121 -0.1607
vn 0.0332 0.7401 0.6717
vn -0.9143 0.2465 -0.3215
vn 0.7205 0.2194 -0.6578
vn -0.5139 0.6328 -0.5792
vn 0.7139 0.3472 -0.6081
vn -0.2191 0.9023 -0.3713
vn 0.7184 0.6217 -0.3122
vn -0.0054 1.0000 0.0055
vn 0.5261 0.8496 -0.0372
vn 0.1745 0.9691 0.1743
vn 0.3822 0.1570 -0.9106
vn 0.3883 0.0835 -0.9178
vn -0.5600 0.4952 -0.6642
vn -0.1840 0.9829 -0.0035
vn -0.1971 0.5104 -0.8370
vn 0.0876 0.5661 -0.8196
vn 0.3164 0.8246 -0.4691
vn 0.1739 0.9847 -0.0143
vn 0.9686 0.0533 -0.2429
vn 0.9769 0.0612 0.2046
vn 0.9944 0.0379 0.0982
vn 0.9865 0.0354 -0.1597
vn 0.9178 0.1269 -0.3762
vn 0.9092 0.1581 0.3851
vn 0.8700 0.1919 -0.4542
vn 0.8341 0.2401 0.4965
vn 0.8614 0.2093 -0.4627
vn 0.8234 0.2617 0.5035
vn 0.8553 0.3033 -0.4201
vn 0.8155 0.3808 0.4358
vn 0.7357 0.5578 -0.3842
vn 0.6282 0.6780 0.3817
vn 0.3247 0.9136 -0.2448
vn 0.1341 0.9744 0.1807
vn -0.1789 0.9838 0.0063
vn 0.9981 0.0571 -0.0234
vn 0.9988 0.0369 -0.0322
vn 0.9888 0.1492 -0.0043
vn 0.9693 0.2452 0.0205
vn 0.9629 0.2687 0.0263
vn 0.9269 0.3752 0.0075
vn 0.7672 0.6413 -0.0078
vn 0.2006 0.9792 0.0294
vn -0.9686 -0.0533 0.2429
vn -0.9769 -0.0612 -0.2046
vn -0.9944 -0.0379 -0.0982
vn -0.9865 -0.0354 0.1597
vn -0.9178 -0.1269 0.3762
vn -0.9092 -0.1581 -0.3851
vn -0.8700 -0.1919 0.4542
vn -0.8341 -0.2401 -0.4965
vn -0.8614 -0.2093 0.4627
vn -0.8234 -0.2617 -0.5035
vn -0.8553 -0.3033 0.4201
vn -0.8155 -0.3808 -0.4358
vn -0.7357 -0.5578 0.3842
vn -0.6282 -0.6780 -0.3817
vn -0.3247 -0.9136 0.2448
vn -0.1341 -0.9744 -0.1807
vn 0.1789 -0.9838 -0.0063
vn -0.9981 -0.0571 0.0234
vn -0.9988 -0.0369 0.0322
vn -0.9888 -0.1492 0.0043
vn -0.9693 -0.2452 -0.0205
vn -0.9629 -0.2687 -0.0263
vn -0.9269 -0.3752 -0.0075
vn -0.7672 -0.6413 0.0078
vn -0.2006 -0.9792 -0.0294
vn -0.5015 -0.0132 0.8651
vn -0.7554 -0.0116 0.6551
vn -0.7143 -0.0113 0.6998
vn -0.5677 -0.0122 0.8231
vn -0.3692 -0.0830 0.9256
vn -0.8174 -0.0642 0.5725
vn -0.2077 -0.2531 0.9449
vn -0.8547 -0.1846 0.4852
vn -0.0476 -0.4997 0.8649
vn -0.8473 -0.3586 0.3917
vn 0.1086 -0.7311 0.6736
vn -0.7790 -0.5642 0.2737
vn 0.4047 -0.8747 0.2666
vn -0.6000 -0.7999 0.0121
vn 0.5472 -0.7617 -0.3470
vn -0.0083 -0.8904 -0.4551
vn 0.5065 -0.6225 -0.5966
vn -0.6376 -0.0125 0.7703
vn -0.6443 -0.0118 0.7646
vn -0.6238 -0.0777 0.7777
vn -0.5983 -0.2046 0.7747
vn -0.5443 -0.4143 0.7295
vn -0.4248 -0.6936 0.5818
vn -0.1305 -0.9739 0.1857
vn 0.3949 -0.8335 -0.3864
vn 0.5015 0.0132 -0.8651
vn 0.7554 0.0116 -0.6551
vn 0.7143 0.0113 -0.6998
vn 0.5677 0.0122 -0.8231
vn 0.3692 0.0830 -0.9256
vn 0.8174 0.0642 -0.5725
vn 0.2077 0.2531 -0.9449
vn 0.8547 0.1846 -0.4852
vn 0.0476 0.4997 -0.8649
vn 0.8473 0.3586 -0.3917
vn -0.1086 0.7311 -0.6736
vn 0.7790 0.5642 -0.2737
vn -0.4047 0.8747 -0.2666
vn 0.6000 0.7999 -0.0121
vn -0.5472 0.7617 0.3469
vn 0.0083 0.8904 0.4551
vn -0.5065 0.6225 0.5966
vn 0.6376 0.0125 -0.7703
vn 0.6443 0.0118 -0.7646
vn 0.6238 0.0777 -0.7777
vn 0.5983 0.2046 -0.7747
vn 0.5443 0.4143 -0.7295
vn 0.4248 0.6936 -0.5818
vn 0.1305 0.9739 -0.1857
vn -0.3949 0.8335 0.3864
vn -0.6405 -0.2401 0.7294
vn -0.8966 -0.1822 0.4037
vn -0.8561 -0.0970 0.5077
vn -0.7138 -0.1234 0.6893
vn -0.4870 -0.4175 0.7672
vn -0.9198 -0.3229 0.2227
vn -0.3277 -0.5931 0.7354
vn -0.8844 -0.4621 0.0657
vn -0.2627 -0.6905 0.6739
vn -0.8401 -0.5423 0.0117
vn -0.2637 -0.7607 0.5931
vn -0.7757 -0.6311 0.0085
vn -0.1168 -0.9118 0.3937
vn -0.5815 -0.8014 -0.1403
vn 0.0033 -0.9990 0.0441
vn -0.2423 -0.9420 -0.2322
vn 0.0095 -0.9796 -0.2008
vn -0.7885 -0.2067 0.5792
vn -0.7952 -0.1100 0.5963
vn -0.7522 -0.3921 0.5295
vn -0.6837 -0.5793 0.4437
vn -0.6158 -0.6882 0.3836
vn -0.5664 -0.7550 0.3305
vn -0.4017 -0.9009 0.1643
vn -0.1132 -0.9888 -0.0972
vn 0.6405 0.2401 -0.7294
vn 0.8966 0.1822 -0.4037
vn 0.8561 0.0970 -0.5077
vn 0.7138 0.1234 -0.6893
vn 0.4870 0.4175 -0.7672
vn 0.9198 0.3229 -0.2227
vn 0.3277 0.5931 -0.7354
vn 0.8844 0.4621 -0.0657
vn 0.2627 0.6905 -0.6739
vn 0.8401 0.5423 -0.0117
vn 0.2637 0.7607 -0.5931
vn 0.7757 0.6311 -0.0085
vn 0.1168 0.9118 -0.3937
vn 0.5815 0.8014 0.1403
vn -0.0033 0.9990 -0.0441
vn 0.2423 0.9420 0.2322
vn -0.0095 0.9796 0.2008
vn 0.7885 0.2067 -0.5792
vn 0.7952 0.1100 -0.5963
vn 0.7522 0.3921 -0.5295
vn 0.6837 0.5793 -0.4437
vn 0.6158 0.6882 -0.3836
vn 0.5664 0.7550 -0.3305
vn 0.4017 0.9009 -0.1643
vn 0.1132 0.9888 0.0972
vn 0.8846 0.0741 0.4605
vn 0.4754 0.0742 0.8766
vn 0.5801 0.0486 0.8131
vn 0.8224 0.0486 0.5669
vn 0.9482 0.1737 0.2660
vn 0.2832 0.1740 0.9431
vn 0.9564 0.2583 0.1361
vn 0.1541 0.2591 0.9535
vn 0.9526 0.2804 0.1183
vn 0.1362 0.2814 0.9499
vn 0.9032 0.3986 0.1594
vn 0.1766 0.3998 0.8994
vn 0.7293 0.6763 0.1034
vn 0.1195 0.6788 0.7245
vn 0.2809 0.9591 -0.0337
vn -0.0256 0.9599 0.2793
vn -0.0958 0.9909 -0.0946
vn 0.7110 0.0759 0.6991
vn 0.7119 0.0493 0.7005
vn 0.6996 0.1970 0.6869
vn 0.6768 0.3178 0.6640
vn 0.6699 0.3456 0.6572
vn 0.6269 0.4789 0.6146
vn 0.4770 0.7458 0.4651
vn 0.1206 0.9860 0.1155
vn -0.8846 -0.0741 -0.4605
vn -0.4754 -0.0742 -0.8766
vn -0.5801 -0.0486 -0.8131
vn -0.8224 -0.0486 -0.5669
vn -0.9482 -0.1737 -0.2660
vn -0.2832 -0.1740 -0.9431
vn -0.9564 -0.2583 -0.1361
vn -0.1541 -0.2591 -0.9535
vn -0.9526 -0.2804 -0.1183
vn -0.1362 -0.2814 -0.9499
vn -0.9032 -0.3986 -0.1594
vn -0.1766 -0.3998 -0.8994
vn -0.7293 -0.6763 -0.1034
vn -0.1195 -0.6788 -0.7245
vn -0.2809 -0.9591 0.0337
vn 0.0256 -0.9599 -0.2793
vn 0.0958 -0.9909 0.0946
vn -0.7110 -0.0759 -0.6991
vn -0.7119 -0.0493 -0.7005
vn -0.6996 -0.1970 -0.6869
vn -0.6768 -0.3178 -0.6640
vn -0.6699 -0.3456 -0.6572
vn -0.6269 -0.4789 -0.6146
vn -0.4770 -0.7458 -0.4651
vn -0.1206 -0.9860 -0.1155
vn -0.7437 -0.1303 0.6556
vn -0.9306 -0.1171 0.3468
vn -0.9013 -0.1155 0.4175
vn -0.7916 -0.1232 0.5984
vn -0.6409 -0.2098 0.7384
vn -0.9592 -0.1873 0.2118
vn -0.5086 -0.3728 0.7761
vn -0.9369 -0.3428 0.0680
vn -0.3510 -0.5846 0.7315
vn -0.8318 -0.5515 -0.0636
vn -0.1646 -0.7832 0.5996
vn -0.6350 -0.7514 -0.1792
vn 0.1602 -0.9142 0.3723
vn -0.2851 -0.8854 -0.3671
vn 0.5536 -0.8255 -0.1096
vn 0.3264 -0.8108 -0.4858
vn 0.6569 -0.6245 -0.4225
vn -0.8512 -0.1257 0.5096
vn -0.8524 -0.1200 0.5089
vn -0.8405 -0.2110 0.4990
vn -0.8030 -0.3663 0.4702
vn -0.6971 -0.5971 0.3968
vn -0.4808 -0.8385 0.2563
vn -0.0811 -0.9967 0.0104
vn 0.4647 -0.8284 -0.3128
vn 0.7437 0.1303 -0.6556
vn 0.9306 0.1171 -0.3468
vn 0.9013 0.1155 -0.4175
vn 0.7916 0.1232 -0.5984
vn 0.6409 0.2098 -0.7384
vn 0.9592 0.1873 -0.2118
vn 0.5086 0.3728 -0.7761
vn 0.9369 0.3428 -0.0680
vn 0.3510 0.5846 -0.7315
vn 0.8318 0.5515 0.0636
vn 0.1646 0.7832 -0.5996
vn 0.6350 0.7514 0.1792
vn -0.1602 0.9142 -0.3723
vn 0.2851 0.8854 0.3671
vn -0.5536 0.8255 0.1096
vn -0.3264 0.8108 0.4858
vn -0.6569 0.6245 0.4225
vn 0.8512 0.1257 -0.5096
vn 0.8524 0.1200 -0.5089
vn 0.8405 0.2110 -0.4990
vn 0.8030 0.3663 -0.4702
vn 0.6971 0.5971 -0.3968
vn 0.4808 0.8385 -0.2563
vn 0.0811 0.9967 -0.0104
vn -0.4647 0.8284 0.3128
vt 0.498022 0.137438
vt 0.964279 0.137438
vt 0.968329 0.002013
vt 0.498022 0.002013
vt 0.020838 0.137438
vt 0.031570 0.225207
vt 0.498022 0.225207
vt 0.498022 0.345256
vt 0.954987 0.345256
vt 0.957058 0.225207
vt 0.498022 0.556360
vt 0.954987 0.556360
vt 0.498022 0.682167
vt 0.899340 0.682167
vt 0.498022 0.824059
vt 0.773170 0.824059
vt 0.498022 0.970902
vt 0.543866 0.970902
vt 0.456134 0.970902
vt 0.498022 0.997987
vt 0.014420 0.002013
vt 0.045013 0.345256
vt 0.045013 0.556360
vt 0.100660 0.682167
vt 0.226830 0.824059
s 1
usemtl grass
f 18/1/18 2/2/2 3/3/3 19/4/19
f 1/5/1 5/6/5 20/7/20 18/1/18
f 21/8/21 8/9/8 6/10/6 20/7/20
f 22/11/22 10/12/10 8/9/8 21/8/21
f 23/13/23 12/14/12 10/12/10 22/11/22
f 24/15/24 14/16/14 12/14/12 23/13/23
f 25/17/25 16/18/16 14/16/14 24/15/24
f 25/17/25 15/19/15 17/20/17
f 19/4/19 4/21/4 1/5/1 18/1/18
f 20/7/20 6/10/6 2/2/2 18/1/18
f 20/7/20 5/6/5 7/22/7 21/8/21
f 21/8/21 7/22/7 9/23/9 22/11/22
f 22/11/22 9/23/9 11/24/11 23/13/23
f 23/13/23 11/24/11 13/25/13 24/15/24
f 24/15/24 13/25/13 15/19/15 25/17/25
f 17/20/17 16/18/16 25/17/25
f 44/4/44 28/3/28 27/2/27 43/1/43
f 43/1/43 45/7/45 30/6/30 26/5/26
f 45/7/45 31/10/31 33/9/33 46/8/46
f 46/8/46 33/9/33 35/12/35 47/11/47
f 47/11/47 35/12/35 37/14/37 48/13/48
f 48/13/48 37/14/37 39/16/39 49/15/49
f 49/15/49 39/16/39 41/18/41 50/17/50
f 42/20/42 40/19/40 50/17/50
f 43/1/43 26/5/26 29/21/29 44/4/44
f 43/1/43 27/2/27 31/10/31 45/7/45
f 46/8/46 32/22/32 30/6/30 45/7/45
f 47/11/47 34/23/34 32/22/32 46/8/46
f 48/13/48 36/24/36 34/23/34 47/11/47
f 49/15/49 38/25/38 36/24/36 48/13/48
f 50/17/50 40/19/40 38/25/38 49/15/49
f 50/17/50 41/18/41 42/20/42
f 68/1/68 52/2/52 53/3/53 69/4/69
f 51/5/51 55/6/55 70/7/70 68/1/68
f 71/8/71 58/9/58 56/10/56 70/7/70
f 72/11/72 60/12/60 58/9/58 71/8/71
f 73/13/73 62/14/62 60/12/60 72/11/72
f 74/15/74 64/16/64 62/14/62 73/13/73
f 75/17/75 66/18/66 64/16/64 74/15/74
f 75/17/75 65/19/65 67/20/67
f 69/4/69 54/21/54 51/5/51 68/1/68
f 70/7/70 56/10/56 52/2/52 68/1/68
f 70/7/70 55/6/55 57/22/57 71/8/71
f 71/8/71 57/22/57 59/23/59 72/11/72
f 72/11/72 59/23/59 61/24/61 73/13/73
f 73/13/73 61/24/61 63/25/63 74/15/74
f 74/15/74 63/25/63 65/19/65 75/17/75
f 67/20/67 66/18/66 75/17/75
f 94/4/94 78/3/78 77/2/77 93/1/93
f 93/1/93 95/7/95 80/6/80 76/5/76
f 95/7/95 81/10/81 83/9/83 96/8/96
f 96/8/96 83/9/83 85/12/85 97/11/97
f 97/11/97 85/12/85 87/14/87 98/13/98
f 98/13/98 87/14/87 89/16/89 99/15/99
f 99/15/99 89/16/89 91/18/91 100/17/100
f 92/20/92 90/19/90 100/17/100
f 93/1/93 76/5/76 79/21/79 94/4/94
f 93/1/93 77/2/77 81/10/81 95/7/95
f 96/8/96 82/22/82 80/6/80 95/7/95
f 97/11/97 84/23/84 82/22/82 96/8/96
f 98/13/98 86/24/86 84/23/84 97/11/97
f 99/15/99 88/25/88 86/24/86 98/13/98
f 100/17/100 90/19/90 88/25/88 99/15/99
f 100/17/100 91/18/91 92/20/92
f 136/13/136 126/24/126 124/23/124 135/11/135
f 138/17/138 131/18/131 132/20/132
f 115/8/115 104/9/104 102/10/102 114/7/114
f 116/11/116 106/12/106 104/9/104 115/8/115
f 117/13/117 108/14/108 106/12/106 116/11/116
f 118/15/118 110/16/110 108/14/108 117/13/117
f 119/17/119 112/18/112 110/16/110 118/15/118
f 119/17/119 111/19/111 113/20/113
f 137/15/137 128/25/128 126/24/126 136/13/136
f 135/11/135 124/23/124 122/22/122 134/8/134
f 114/7/114 101/6/101 103/22/103 115/8/115
f 115/8/115 103/22/103 105/23/105 116/11/116
f 116/11/116 105/23/105 107/24/107 117/13/117
f 117/13/117 107/24/107 109/25/109 118/15/118
f 118/15/118 109/25/109 111/19/111 119/17/119
f 113/20/113 112/18/112 119/17/119
f 138/17/138 130/19/130 128/25/128 137/15/137
f 134/8/134 122/22/122 120/6/120 133/7/133
f 133/7/133 121/10/121 123/9/123 134/8/134
f 134/8/134 123/9/123 125/12/125 135/11/135
f 135/11/135 125/12/125 127/14/127 136/13/136
f 136/13/136 127/14/127 129/16/129 137/15/137
f 137/15/137 129/16/129 131/18/131 138/17/138
f 132/20/132 130/19/130 138/17/138
f 157/4/157 141/3/141 140/2/140 156/1/156
f 156/1/156 158/7/158 143/6/143 139/5/139
f 158/7/158 144/10/144 146/9/146 159/8/159
f 159/8/159 146/9/146 148/12/148 160/11/160
f 160/11/160 148/12/148 150/14/150 161/13/161
f 161/13/161 150/14/150 152/16/152 162/15/162
f 162/15/162 152/16/152 154/18/154 163/17/163
f 155/20/155 153/19/153 163/17/163
f 156/1/156 139/5/139 142/21/142 157/4/157
f 156/1/156 140/2/140 144/10/144 158/7/158
f 159/8/159 145/22/145 143/6/143 158/7/158
f 160/11/160 147/23/147 145/22/145 159/8/159
f 161/13/161 149/24/149 147/23/147 160/11/160
f 162/15/162 151/25/151 149/24/149 161/13/161
f 163/17/163 153/19/153 151/25/151 162/15/162
f 163/17/163 154/18/154 155/20/155
f 181/1/181 165/2/165 166/3/166 182/4/182
f 164/5/164 168/6/168 183/7/183 181/1/181
f 184/8/184 171/9/171 169/10/169 183/7/183
f 185/11/185 173/12/173 171/9/171 184/8/184
f 186/13/186 175/14/175 173/12/173 185/11/185
f 187/15/187 177/16/177 175/14/175 186/13/186
f 188/17/188 179/18/179 177/16/177 187/15/187
f 188/17/188 178/19/178 180/20/180
f 182/4/182 167/21/167 164/5/164 181/1/181
f 183/7/183 169/10/169 165/2/165 181/1/181
f 183/7/183 168/6/168 170/22/170 184/8/184
f 184/8/184 170/22/170 172/23/172 185/11/185
f 185/11/185 172/23/172 174/24/174 186/13/186
f 186/13/186 174/24/174 176/25/176 187/15/187
f 187/15/187 176/25/176 178/19/178 188/17/188
f 180/20/180 179/18/179 188/17/188
f 206/1/206 190/2/190 191/3/191 207/4/207
f 189/5/189 193/6/193 208/7/208 206/1/206
f 209/8/209 196/9/196 194/10/194 208/7/208
f 210/11/210 198/12/198 196/9/196 209/8/209
f 211/13/211 200/14/200 198/12/198 210/11/210
f 212/15/212 202/16/202 200/14/200 211/13/211
f 213/17/213 204/18/204 202/16/202 212/15/212
f 213/17/213 203/19/203 205/20/205
f 207/4/207 192/21/192 189/5/189 206/1/206
f 208/7/208 194/10/194 190/2/190 206/1/206
f 208/7/208 193/6/193 195/22/195 209/8/209
f 209/8/209 195/22/195 197/23/197 210/11/210
f 210/11/210 197/23/197 199/24/199 211/13/211
f 211/13/211 199/24/199 201/25/201 212/15/212
f 212/15/212 201/25/201 203/19/203 213/17/213
f 205/20/205 204/18/204 213/17/213
f 232/4/232 216/3/216 215/2/215 231/1/231
f 231/1/231 233/7/233 218/6/218 214/5/214
f 233/7/233 219/10/219 221/9/221 234/8/234
f 234/8/234 221/9/221 223/12/223 235/11/235
f 235/11/235 223/12/223 225/14/225 236/13/236
f 236/13/236 225/14/225 227/16/227 237/15/237
f 237/15/237 227/16/227 229/18/229 238/17/238
f 230/20/230 228/19/228 238/17/238
f 231/1/231 214/5/214 217/21/217 232/4/232
f 231/1/231 215/2/215 219/10/219 233/7/233
f 234/8/234 220/22/220 218/6/218 233/7/233
f 235/11/235 222/23/222 220/22/220 234/8/234
f 236/13/236 224/24/224 222/23/222 235/11/235
f 237/15/237 226/25/226 224/24/224 236/13/236
f 238/17/238 228/19/228 226/25/226 237/15/237
f 238/17/238 229/18/229 230/20/230
f 256/1/256 240/2/240 241/3/241 257/4/257
f 239/5/239 243/6/243 258/7/258 256/1/256
f 259/8/259 246/9/246 244/10/244 258/7/258
f 260/11/260 248/12/248 246/9/246 259/8/259
f 261/13/261 250/14/250 248/12/248 260/11/260
f 262/15/262 252/16/252 250/14/250 261/13/261
f 263/17/263 254/18/254 252/16/252 262/15/262
f 263/17/263 253/19/253 255/20/255
f 257/4/257 242/21/242 239/5/239 256/1/256
f 258/7/258 244/10/244 240/2/240 256/1/256
f 258/7/258 243/6/243 245/22/245 259/8/259
f 259/8/259 245/22/245 247/23/247 260/11/260
f 260/11/260 247/23/247 249/24/249 261/13/261
f 261/13/261 249/24/249 251/25/251 262/15/262
f 262/15/262 251/25/251 253/19/253 263/17/263
f 255/20/255 254/18/254 263/17/263
f 282/4/282 266/3/266 265/2/265 281/1/281
f 281/1/281 283/7/283 268/6/268 264/5/264
f 283/7/283 269/10/269 271/9/271 284/8/284
f 284/8/284 271/9/271 273/12/273 285/11/285
f 285/11/285 273/12/273 275/14/275 286/13/286
f 286/13/286 275/14/275 277/16/277 287/15/287
f 287/15/287 277/16/277 279/18/279 288/17/288
f 280/20/280 278/19/278 288/17/288
f 281/1/281 264/5/264 267/21/267 282/4/282
f 281/1/281 265/2/265 269/10/269 283/7/283
f 284/8/284 270/22/270 268/6/268 283/7/283
f 285/11/285 272/23/272 270/22/270 284/8/284
f 286/13/286 274/24/274 272/23/272 285/11/285
f 287/15/287 276/25/276 274/24/274 286/13/286
f 288/17/288 278/19/278 276/25/276 287/15/287
f 288/17/288 279/18/279 280/20/280
f 324/13/324 314/24/314 312/23/312 323/11/323
f 326/17/326 319/18/319 320/20/320
f 303/8/303 292/9/292 290/10/290 302/7/302
f 304/11/304 294/12/294 292/9/292 303/8/303
f 305/13/305 296/14/296 294/12/294 304/11/304
f 306/15/306 298/16/298 296/14/296 305/13/305
f 307/17/307 300/18/300 298/16/298 306/15/306
f 307/17/307 299/19/299 301/20/301
f 325/15/325 316/25/316 314/24/314 324/13/324
f 323/11/323 312/23/312 310/22/310 322/8/322
f 302/7/302 289/6/289 291/22/291 303/8/303
f 303/8/303 291/22/291 293/23/293 304/11/304
f 304/11/304 293/23/293 295/24/295 305/13/305
f 305/13/305 295/24/295 297/25/297 306/15/306
f 306/15/306 297/25/297 299/19/299 307/17/307
f 301/20/301 300/18/300 307/17/307
f 326/17/326 318/19/318 316/25/316 325/15/325
f 322/8/322 310/22/310 308/6/308 321/7/321
f 321/7/321 309/10/309 311/9/311 322/8/322
f 322/8/322 311/9/311 313/12/313 323/11/323
f 323/11/323 313/12/313 315/14/315 324/13/324
f 324/13/324 315/14/315 317/16/317 325/15/325
f 325/15/325 317/16/317 319/18/319 326/17/326
f 320/20/320 318/19/318 326/17/326
f 345/4/345 329/3/329 328/2/328 344/1/344
f 344/1/344 346/7/346 331/6/331 327/5/327
f 346/7/346 332/10/332 334/9/334 347/8/347
f 347/8/347 334/9/334 336/12/336 348/11/348
f 348/11/348 336/12/336 338/14/338 349/13/349
f 349/13/349 338/14/338 340/16/340 350/15/350
f 350/15/350 340/16/340 342/18/342 351/17/351
f 343/20/343 341/19/341 351/17/351
f 344/1/344 327/5/327 330/21/330 345/4/345
f 344/1/344 328/2/328 332/10/332 346/7/346
f 347/8/347 333/22/333 331/6/331 346/7/346
f 348/11/348 335/23/335 333/22/333 347/8/347
f 349/13/349 337/24/337 335/23/335 348/11/348
f 350/15/350 339/25/339 337/24/337 349/13/349
f 351/17/351 341/19/341 339/25/339 350/15/350
f 351/17/351 342/18/342 343/20/343
f 369/1/369 353/2/353 354/3/354 370/4/370
f 352/5/352 356/6/356 371/7/371 369/1/369
f 372/8/372 359/9/359 357/10/357 371/7/371
f 373/11/373 361/12/361 359/9/359 372/8/372
f 374/13/374 363/14/363 361/12/361 373/11/373
f 375/15/375 365/16/365 363/14/363 374/13/374
f 376/17/376 367/18/367 365/16/365 375/15/375
f 376/17/376 366/19/366 368/20/368
f 370/4/370 355/21/355 352/5/352 369/1/369
f 371/7/371 357/10/357 353/2/353 369/1/369
f 371/7/371 356/6/356 358/22/358 372/8/372
f 372/8/372 358/22/358 360/23/360 373/11/373
f 373/11/373 360/23/360 362/24/362 374/13/374
f 374/13/374 362/24/362 364/25/364 375/15/375
f 375/15/375 364/25/364 366/19/366 376/17/376
f 368/20/368 367/18/367 376/17/376
f 394/1/394 378/2/378 379/3/379 395/4/395
f 377/5/377 381/6/381 396/7/396 394/1/394
f 397/8/397 384/9/384 382/10/382 396/7/396
f 398/11/398 386/12/386 384/9/384 397/8/397
f 399/13/399 388/14/388 386/12/386 398/11/398
f 400/15/400 390/16/390 388/14/388 399/13/399
f 401/17/401 392/18/392 390/16/390 400/15/400
f 401/17/401 391/19/391 393/20/393
f 395/4/395 380/21/380 377/5/377 394/1/394
f 396/7/396 382/10/382 378/2/378 394/1/394
f 396/7/396 381/6/381 383/22/383 397/8/397
f 397/8/397 383/22/383 385/23/385 398/11/398
f 398/11/398 385/23/385 387/24/387 399/13/399
f 399/13/399 387/24/387 389/25/389 400/15/400
f 400/15/400 389/25/389 391/19/391 401/17/401
f 393/20/393 392/18/392 401/17/401
f 420/4/420 404/3/404 403/2/403 419/1/419
f 419/1/419 421/7/421 406/6/406 402/5/402
f 421/7/421 407/10/407 409/9/409 422/8/422
f 422/8/422 409/9/409 411/12/411 423/11/423
f 423/11/423 411/12/411 413/14/413 424/13/424
f 424/13/424 413/14/413 415/16/415 425/15/425
f 425/15/425 415/16/415 417/18/417 426/17/426
f 418/20/418 416/19/416 426/17/426
f 419/1/419 402/5/402 405/21/405 420/4/420
f 419/1/419 403/2/403 407/10/407 421/7/421
f 422/8/422 408/22/408 406/6/406 421/7/421
f 423/11/423 410/23/410 408/22/408 422/8/422
f 424/13/424 412/24/412 410/23/410 423/11/423
f 425/15/425 414/25/414 412/24/412 424/13/424
f 426/17/426 416/19/416 414/25/414 425/15/425
f 426/17/426 417/18/417 418/20/418
f 444/1/444 428/2/428 429/3/429 445/4/445
f 427/5/427 431/6/431 446/7/446 444/1/444
f 447/8/447 434/9/434 432/10/432 446/7/446
f 448/11/448 436/12/436 434/9/434 447/8/447
f 449/13/449 438/14/438 436/12/436 448/11/448
f 450/15/450 440/16/440 438/14/438 449/13/449
f 451/17/451 442/18/442 440/16/440 450/15/450
f 451/17/451 441/19/441 443/20/443
f 445/4/445 430/21/430 427/5/427 444/1/444
f 446/7/446 432/10/432 428/2/428 444/1/444
f 446/7/446 431/6/431 433/22/433 447/8/447
f 447/8/447 433/22/433 435/23/435 448/11/448
f 448/11/448 435/23/435 437/24/437 449/13/449
f 449/13/449 437/24/437 439/25/439 450/15/450
f 450/15/450 439/25/439 441/19/441 451/17/451
f 443/20/443 442/18/442 451/17/451
f 470/4/470 454/3/454 453/2/453 469/1/469
f 469/1/469 471/7/471 456/6/456 452/5/452
f 471/7/471 457/10/457 459/9/459 472/8/472
f 472/8/472 459/9/459 461/12/461 473/11/473
f 473/11/473 461/12/461 463/14/463 474/13/474
f 474/13/474 463/14/463 465/16/465 475/15/475
f 475/15/475 465/16/465 467/18/467 476/17/476
f 468/20/468 466/19/466 476/17/476
f 469/1/469 452/5/452 455/21/455 470/4/470
f 469/1/469 453/2/453 457/10/457 471/7/471
f 472/8/472 458/22/458 456/6/456 471/7/471
f 473/11/473 460/23/460 458/22/458 472/8/472
f 474/13/474 462/24/462 460/23/460 473/11/473
f 475/15/475 464/25/464 462/24/462 474/13/474
f 476/17/476 466/19/466 464/25/464 475/15/475
f 476/17/476 467/18/467 468/20/468
f 518/13/518 507/24/507 505/23/505 517/11/517
f 477/5/477 479/6/479 493/7/493 492/1/492
f 494/8/494 482/9/482 480/10/480 493/7/493
f 495/11/495 484/12/484 482/9/482 494/8/494
f 496/13/496 486/14/486 484/12/484 495/11/495
f 497/15/497 488/16/488 486/14/486 496/13/496
f 498/17/498 490/18/490 488/16/488 497/15/497
f 498/17/498 489/19/489 491/20/491
f 519/15/519 509/25/509 507/24/507 518/13/518
f 493/7/493 480/10/480 478/2/478 492/1/492
f 493/7/493 479/6/479 481/22/481 494/8/494
f 494/8/494 481/22/481 483/23/483 495/11/495
f 495/11/495 483/23/483 485/24/485 496/13/496
f 496/13/496 485/24/485 487/25/487 497/15/497
f 497/15/497 487/25/487 489/19/489 498/17/498
f 491/20/491 490/18/490 498/17/498
f 520/17/520 511/19/511 509/25/509 519/15/519
f 514/1/514 515/7/515 501/6/501 499/5/499
f 515/7/515 502/10/502 504/9/504 516/8/516
f 516/8/516 504/9/504 506/12/506 517/11/517
f 517/11/517 506/12/506 508/14/508 518/13/518
f 518/13/518 508/14/508 510/16/510 519/15/519
f 519/15/519 510/16/510 512/18/512 520/17/520
f 513/20/513 511/19/511 520/17/520
f 520/17/520 512/18/512 513/20/513
f 514/1/514 500/2/500 502/10/502 515/7/515
f 516/8/516 503/22/503 501/6/501 515/7/515
f 517/11/517 505/23/505 503/22/503 516/8/516
f 533/11/533 523/23/523 525/24/525 534/13/534
f 534/13/534 525/24/525 527/25/527 535/15/535
f 552/17/552 545/19/545 543/25/543 551/15/551
f 533/11/533 524/12/524 522/9/522 532/8/532
f 534/13/534 526/14/526 524/12/524 533/11/533
f 535/15/535 528/16/528 526/14/526 534/13/534
f 536/17/536 530/18/530 528/16/528 535/15/535
f 536/17/536 529/19/529 531/20/531
f 535/15/535 527/25/527 529/19/529 536/17/536
f 531/20/531 530/18/530 536/17/536
f 552/17/552 546/18/546 547/20/547
f 532/8/532 521/22/521 523/23/523 533/11/533
f 550/13/550 541/24/541 539/23/539 549/11/549
f 551/15/551 543/25/543 541/24/541 550/13/550
f 549/11/549 539/23/539 537/22/537 548/8/548
f 548/8/548 538/9/538 540/12/540 549/11/549
f 549/11/549 540/12/540 542/14/542 550/13/550
f 550/13/550 542/14/542 544/16/544 551/15/551
f 551/15/551 544/16/544 546/18/546 552/17/552
f 547/20/547 545/19/545 552/17/552
f 568/11/568 557/23/557 559/24/559 569/13/569
f 569/13/569 559/24/559 561/25/561 570/15/570
f 567/8/567 556/9/556 554/10/554 566/7/566
f 568/11/568 558/12/558 556/9/556 567/8/567
f 569/13/569 560/14/560 558/12/558 568/11/568
f 570/15/570 562/16/562 560/14/560 569/13/569
f 571/17/571 564/18/564 562/16/562 570/15/570
f 571/17/571 563/19/563 565/20/565
f 570/15/570 561/25/561 563/19/563 571/17/571
f 565/20/565 564/18/564 571/17/571
f 566/7/566 553/6/553 555/22/555 567/8/567
f 567/8/567 555/22/555 557/23/557 568/11/568
f 588/13/588 578/24/578 576/23/576 587/11/587
f 589/15/589 580/25/580 578/24/578 588/13/588
f 585/7/585 573/10/573 575/9/575 586/8/586
f 586/8/586 575/9/575 577/12/577 587/11/587
f 587/11/587 577/12/577 579/14/579 588/13/588
f 588/13/588 579/14/579 581/16/581 589/15/589
f 589/15/589 581/16/581 583/18/583 590/17/590
f 584/20/584 582/19/582 590/17/590
f 590/17/590 582/19/582 580/25/580 589/15/589
f 590/17/590 583/18/583 584/20/584
f 586/8/586 574/22/574 572/6/572 585/7/585
f 587/11/587 576/23/576 574/22/574 586/8/586
f 632/13/632 621/24/621 619/23/619 631/11/631
f 591/5/591 593/6/593 607/7/607 606/1/606
f 608/8/608 596/9/596 594/10/594 607/7/607
f 609/11/609 598/12/598 596/9/596 608/8/608
f 610/13/610 600/14/600 598/12/598 609/11/609
f 611/15/611 602/16/602 600/14/600 610/13/610
f 612/17/612 604/18/604 602/16/602 611/15/611
f 612/17/612 603/19/603 605/20/605
f 633/15/633 623/25/623 621/24/621 632/13/632
f 607/7/607 594/10/594 592/2/592 606/1/606
f 607/7/607 593/6/593 595/22/595 608/8/608
f 608/8/608 595/22/595 597/23/597 609/11/609
f 609/11/609 597/23/597 599/24/599 610/13/610
f 610/13/610 599/24/599 601/25/601 611/15/611
f 611/15/611 601/25/601 603/19/603 612/17/612
f 605/20/605 604/18/604 612/17/612
f 634/17/634 625/19/625 623/25/623 633/15/633
f 628/1/628 629/7/629 615/6/615 613/5/613
f 629/7/629 616/10/616 618/9/618 630/8/630
f 630/8/630 618/9/618 620/12/620 631/11/631
f 631/11/631 620/12/620 622/14/622 632/13/632
f 632/13/632 622/14/622 624/16/624 633/15/633
f 633/15/633 624/16/624 626/18/626 634/17/634
f 627/20/627 625/19/625 634/17/634
f 634/17/634 626/18/626 627/20/627
f 628/1/628 614/2/614 616/10/616 629/7/629
f 630/8/630 617/22/617 615/6/615 629/7/629
f 631/11/631 619/23/619 617/22/617 630/8/630
f 652/1/652 636/2/636 637/3/637 653/4/653
f 635/5/635 639/6/639 654/7/654 652/1/652
f 655/8/655 642/9/642 640/10/640 654/7/654
f 656/11/656 644/12/644 642/9/642 655/8/655
f 657/13/657 646/14/646 644/12/644 656/11/656
f 658/15/658 648/16/648 646/14/646 657/13/657
f 659/17/659 650/18/650 648/16/648 658/15/658
f 659/17/659 649/19/649 651/20/651
f 653/4/653 638/21/638 635/5/635 652/1/652
f 654/7/654 640/10/640 636/2/636 652/1/652
f 654/7/654 639/6/639 641/22/641 655/8/655
f 655/8/655 641/22/641 643/23/643 656/11/656
f 656/11/656 643/23/643 645/24/645 657/13/657
f 657/13/657 645/24/645 647/25/647 658/15/658
f 658/15/658 647/25/647 649/19/649 659/17/659
f 651/20/651 650/18/650 659/17/659
f 678/4/678 662/3/662 661/2/661 677/1/677
f 677/1/677 679/7/679 664/6/664 660/5/660
f 679/7/679 665/10/665 667/9/667 680/8/680
f 680/8/680 667/9/667 669/12/669 681/11/681
f 681/11/681 669/12/669 671/14/671 682/13/682
f 682/13/682 671/14/671 673/16/673 683/15/683
f 683/15/683 673/16/673 675/18/675 684/17/684
f 676/20/676 674/19/674 684/17/684
f 677/1/677 660/5/660 663/21/663 678/4/678
f 677/1/677 661/2/661 665/10/665 679/7/679
f 680/8/680 666/22/666 664/6/664 679/7/679
f 681/11/681 668/23/668 666/22/666 680/8/680
f 682/13/682 670/24/670 668/23/668 681/11/681
f 683/15/683 672/25/672 670/24/670 682/13/682
f 684/17/684 674/19/674 672/25/672 683/15/683
f 684/17/684 675/18/675 676/20/676
f 703/4/703 687/3/687 686/2/686 702/1/702
f 702/1/702 704/7/704 689/6/689 685/5/685
f 704/7/704 690/10/690 692/9/692 705/8/705
f 705/8/705 692/9/692 694/12/694 706/11/706
f 706/11/706 694/12/694 696/14/696 707/13/707
f 707/13/707 696/14/696 698/16/698 708/15/708
f 708/15/708 698/16/698 700/18/700 709/17/709
f 701/20/701 699/19/699 709/17/709
f 702/1/702 685/5/685 688/21/688 703/4/703
f 702/1/702 686/2/686 690/10/690 704/7/704
f 705/8/705 691/22/691 689/6/689 704/7/704
f 706/11/706 693/23/693 691/22/691 705/8/705
f 707/13/707 695/24/695 693/23/693 706/11/706
f 708/15/708 697/25/697 695/24/695 707/13/707
f 709/17/709 699/19/699 697/25/697 708/15/708
f 709/17/709 700/18/700 701/20/701
f 727/1/727 711/2/711 712/3/712 728/4/728
f 710/5/710 714/6/714 729/7/729 727/1/727
f 730/8/730 717/9/717 715/10/715 729/7/729
f 731/11/731 719/12/719 717/9/717 730/8/730
f 732/13/732 721/14/721 719/12/719 731/11/731
f 733/15/733 723/16/723 721/14/721 732/13/732
f 734/17/734 725/18/725 723/16/723 733/15/733
f 734/17/734 724/19/724 726/20/726
f 728/4/728 713/21/713 710/5/710 727/1/727
f 729/7/729 715/10/715 711/2/711 727/1/727
f 729/7/729 714/6/714 716/22/716 730/8/730
f 730/8/730 716/22/716 718/23/718 731/11/731
f 731/11/731 718/23/718 720/24/720 732/13/732
f 732/13/732 720/24/720 722/25/722 733/15/733
f 733/15/733 722/25/722 724/19/724 734/17/734
f 726/20/726 725/18/725 734/17/734
f 752/1/752 736/2/736 737/3/737 753/4/753
f 735/5/735 739/6/739 754/7/754 752/1/752
f 755/8/755 742/9/742 740/10/740 754/7/754
f 756/11/756 744/12/744 742/9/742 755/8/755
f 757/13/757 746/14/746 744/12/744 756/11/756
f 758/15/758 748/16/748 746/14/746 757/13/757
f 759/17/759 750/18/750 748/16/748 758/15/758
f 759/17/759 749/19/749 751/20/751
f 753/4/753 738/21/738 735/5/735 752/1/752
f 754/7/754 740/10/740 736/2/736 752/1/752
f 754/7/754 739/6/739 741/22/741 755/8/755
f 755/8/755 741/22/741 743/23/743 756/11/756
f 756/11/756 743/23/743 745/24/745 757/13/757
f 757/13/757 745/24/745 747/25/747 758/15/758
f 758/15/758 747/25/747 749/19/749 759/17/759
f 751/20/751 750/18/750 759/17/759
f 778/4/778 762/3/762 761/2/761 777/1/777
f 777/1/777 779/7/779 764/6/764 760/5/760
f 779/7/779 765/10/765 767/9/767 780/8/780
f 780/8/780 767/9/767 769/12/769 781/11/781
f 781/11/781 769/12/769 771/14/771 782/13/782
f 782/13/782 771/14/771 773/16/773 783/15/783
f 783/15/783 773/16/773 775/18/775 784/17/784
f 776/20/776 774/19/774 784/17/784
f 777/1/777 760/5/760 763/21/763 778/4/778
f 777/1/777 761/2/761 765/10/765 779/7/779
f 780/8/780 766/22/766 764/6/764 779/7/779
f 781/11/781 768/23/768 766/22/766 780/8/780
f 782/13/782 770/24/770 768/23/768 781/11/781
f 783/15/783 772/25/772 770/24/770 782/13/782
f 784/17/784 774/19/774 772/25/772 783/15/783
f 784/17/784 775/18/775 776/20/776
f 802/1/802 786/2/786 787/3/787 803/4/803
f 785/5/785 789/6/789 804/7/804 802/1/802
f 805/8/805 792/9/792 790/10/790 804/7/804
f 806/11/806 794/12/794 792/9/792 805/8/805
f 807/13/807 796/14/796 794/12/794 806/11/806
f 808/15/808 798/16/798 796/14/796 807/13/807
f 809/17/809 800/18/800 798/16/798 808/15/808
f 809/17/809 799/19/799 801/20/801
f 803/4/803 788/21/788 785/5/785 802/1/802
f 804/7/804 790/10/790 786/2/786 802/1/802
f 804/7/804 789/6/789 791/22/791 805/8/805
f 805/8/805 791/22/791 793/23/793 806/11/806
f 806/11/806 793/23/793 795/24/795 807/13/807
f 807/13/807 795/24/795 797/25/797 808/15/808
f 808/15/808 797/25/797 799/19/799 809/17/809
f 801/20/801 800/18/800 809/17/809
f 828/4/828 812/3/812 811/2/811 827/1/827
f 827/1/827 829/7/829 814/6/814 810/5/810
f 829/7/829 815/10/815 817/9/817 830/8/830
f 830/8/830 817/9/817 819/12/819 831/11/831
f 831/11/831 819/12/819 821/14/821 832/13/832
f 832/13/832 821/14/821 823/16/823 833/15/833
f 833/15/833 823/16/823 825/18/825 834/17/834
f 826/20/826 824/19/824 834/17/834
f 827/1/827 810/5/810 813/21/813 828/4/828
f 827/1/827 811/2/811 815/10/815 829/7/829
f 830/8/830 816/22/816 814/6/814 829/7/829
f 831/11/831 818/23/818 816/22/816 830/8/830
f 832/13/832 820/24/820 818/23/818 831/11/831
f 833/15/833 822/25/822 820/24/820 832/13/832
f 834/17/834 824/19/824 822/25/822 833/15/833
f 834/17/834 825/18/825 826/20/826
f 853/4/853 837/3/837 836/2/836 852/1/852
f 852/1/852 854/7/854 839/6/839 835/5/835
f 854/7/854 840/10/840 842/9/842 855/8/855
f 855/8/855 842/9/842 844/12/844 856/11/856
f 856/11/856 844/12/844 846/14/846 857/13/857
f 857/13/857 846/14/846 848/16/848 858/15/858
f 858/15/858 848/16/848 850/18/850 859/17/859
f 851/20/851 849/19/849 859/17/859
f 852/1/852 835/5/835 838/21/838 853/4/853
f 852/1/852 836/2/836 840/10/840 854/7/854
f 855/8/855 841/22/841 839/6/839 854/7/854
f 856/11/856 843/23/843 841/22/841 855/8/855
f 857/13/857 845/24/845 843/23/843 856/11/856
f 858/15/858 847/25/847 845/24/845 857/13/857
f 859/17/859 849/19/849 847/25/847 858/15/858
f 859/17/859 850/18/850 851/20/851
f 877/1/877 861/2/861 862/3/862 878/4/878
f 860/5/860 864/6/864 879/7/879 877/1/877
f 880/8/880 867/9/867 865/10/865 879/7/879
f 881/11/881 869/12/869 867/9/867 880/8/880
f 882/13/882 871/14/871 869/12/869 881/11/881
f 883/15/883 873/16/873 871/14/871 882/13/882
f 884/17/884 875/18/875 873/16/873 883/15/883
f 884/17/884 874/19/874 876/20/876
f 878/4/878 863/21/863 860/5/860 877/1/877
f 879/7/879 865/10/865 861/2/861 877/1/877
f 879/7/879 864/6/864 866/22/866 880/8/880
f 880/8/880 866/22/866 868/23/868 881/11/881
f 881/11/881 868/23/868 870/24/870 882/13/882
f 882/13/882 870/24/870 872/25/872 883/15/883
f 883/15/883 872/25/872 874/19/874 884/17/884
f 876/20/876 875/18/875 884/17/884
f 902/1/902 886/2/886 887/3/887 903/4/903
f 885/5/885 889/6/889 904/7/904 902/1/902
f 905/8/905 892/9/892 890/10/890 904/7/904
f 906/11/906 894/12/894 892/9/892 905/8/905
f 907/13/907 896/14/896 894/12/894 906/11/906
f 908/15/908 898/16/898 896/14/896 907/13/907
f 909/17/909 900/18/900 898/16/898 908/15/908
f 909/17/909 899/19/899 901/20/901
f 903/4/903 888/21/888 885/5/885 902/1/902
f 904/7/904 890/10/890 886/2/886 902/1/902
f 904/7/904 889/6/889 891/22/891 905/8/905
f 905/8/905 891/22/891 893/23/893 906/11/906
f 906/11/906 893/23/893 895/24/895 907/13/907
f 907/13/907 895/24/895 897/25/897 908/15/908
f 908/15/908 897/25/897 899/19/899 909/17/909
f 901/20/901 900/18/900 909/17/909
f 928/4/928 912/3/912 911/2/911 927/1/927
f 927/1/927 929/7/929 914/6/914 910/5/910
f 929/7/929 915/10/915 917/9/917 930/8/930
f 930/8/930 917/9/917 919/12/919 931/11/931
f 931/11/931 919/12/919 921/14/921 932/13/932
f 932/13/932 921/14/921 923/16/923 933/15/933
f 933/15/933 923/16/923 925/18/925 934/17/934
f 926/20/926 924/19/924 934/17/934
f 927/1/927 910/5/910 913/21/913 928/4/928
f 927/1/927 911/2/911 915/10/915 929/7/929
f 930/8/930 916/22/916 914/6/914 929/7/929
f 931/11/931 918/23/918 916/22/916 930/8/930
f 932/13/932 920/24/920 918/23/918 931/11/931
f 933/15/933 922/25/922 920/24/920 932/13/932
f 934/17/934 924/19/924 922/25/922 933/15/933
f 934/17/934 925/18/925 926/20/926
